<svg version="1.1" viewBox="0.0 0.0 466.0 437.0" fill="none" stroke="none" stroke-linecap="square" stroke-miterlimit="10" width="466" height="437" xmlns:xlink="http://www.w3.org/1999/xlink" xmlns="http://www.w3.org/2000/svg"><path fill="#f8f9fa" d="M0 0L466.0 0L466.0 437.0L0 437.0L0 0Z" fill-rule="nonzero"/><path fill="#a42f25" d="M235.2835 204.84212C235.70433 204.83286 236.12537 204.82823 236.54642 204.82823L236.54642 228.95248C236.12537 228.95248 235.70433 228.95712 235.2835 228.96638Z" fill-rule="nonzero"/><path fill="#ea4335" d="M231.49467 120.44886C233.17807 120.41183 234.8622 120.39331 236.54642 120.39331L236.54642 204.82823C236.12537 204.82823 235.70433 204.83286 235.2835 204.84212Z" fill-rule="nonzero"/><path fill="#2e5dab" d="M397.37485 257.09747C397.37485 319.27362 325.3695 369.67737 236.54642 369.67737C147.72334 369.67737 75.718 319.27362 75.718 257.09747L75.718 232.9732C75.718 295.14935 147.72334 345.5531 236.54642 345.5531C325.3695 345.5531 397.37485 295.14935 397.37485 232.9732Z" fill-rule="nonzero"/><path fill="#2e5dab" d="M236.54642 204.82823C258.7522 204.82823 276.75354 217.42917 276.75354 232.9732L276.75354 257.09747C276.75354 241.55342 258.7522 228.95248 236.54642 228.95248Z" fill-rule="nonzero"/><path fill="#2e5dab" d="M196.33932 232.9732C196.33932 217.77335 213.58012 205.31955 235.2835 204.84212L235.2835 228.96638C213.58012 229.44382 196.33932 241.89761 196.33932 257.09747Z" fill-rule="nonzero"/><path fill="#4285f4" d="M236.54642 120.39331C324.87662 120.39331 396.67615 170.25978 397.36987 232.089C398.06363 293.91824 327.3919 344.568 239.0726 345.5392C150.75331 346.5104 77.84369 297.43954 75.76265 235.62556C73.68161 173.81158 143.20807 122.39102 231.49467 120.44886L235.2835 204.84212C213.21184 205.32765 195.83022 218.1828 196.35048 233.63629C196.87074 249.08978 215.09814 261.3575 237.17796 261.11472C259.25778 260.8719 276.92572 248.20946 276.7523 232.75215C276.57886 217.29485 258.62897 204.82823 236.54642 204.82823Z" fill-rule="nonzero"/><path fill="#4285f4" d="M94.0 423.54813C94.0 426.86185 91.313705 429.54813 88.0 429.54813C84.686295 429.54813 82.0 426.86185 82.0 423.54813C82.0 420.23444 84.686295 417.54813 88.0 417.54813C91.313705 417.54813 94.0 420.23444 94.0 423.54813Z" fill-rule="nonzero"/><path fill="#000000" d="M102.734375 426.39188L104.859375 426.1575Q104.9375 426.81375 105.265625 427.12625Q105.59375 427.43875 106.125 427.43875Q106.8125 427.43875 107.28125 426.81375Q107.765625 426.18875 107.890625 424.22Q107.0625 425.17313 105.828125 425.17313Q104.46875 425.17313 103.484375 424.14188Q102.515625 423.095 102.515625 421.42313Q102.515625 419.67313 103.546875 418.61063Q104.578125 417.54813 106.1875 417.54813Q107.921875 417.54813 109.03125 418.89188Q110.15625 420.23563 110.15625 423.32938Q110.15625 426.47 108.984375 427.86063Q107.828125 429.25125 105.96875 429.25125Q104.625 429.25125 103.796875 428.5325Q102.96875 427.81375 102.734375 426.39188ZM107.703125 421.595Q107.703125 420.5325 107.203125 419.95438Q106.71875 419.36063 106.078125 419.36063Q105.46875 419.36063 105.0625 419.845Q104.671875 420.32938 104.671875 421.42313Q104.671875 422.5325 105.109375 423.04813Q105.546875 423.56375 106.203125 423.56375Q106.828125 423.56375 107.265625 423.06375Q107.703125 422.56375 107.703125 421.595ZM111.734375 426.39188L113.859375 426.1575Q113.9375 426.81375 114.265625 427.12625Q114.59375 427.43875 115.125 427.43875Q115.8125 427.43875 116.28125 426.81375Q116.765625 426.18875 116.890625 424.22Q116.0625 425.17313 114.828125 425.17313Q113.46875 425.17313 112.484375 424.14188Q111.515625 423.095 111.515625 421.42313Q111.515625 419.67313 112.546875 418.61063Q113.578125 417.54813 115.1875 417.54813Q116.921875 417.54813 118.03125 418.89188Q119.15625 420.23563 119.15625 423.32938Q119.15625 426.47 117.984375 427.86063Q116.828125 429.25125 114.96875 429.25125Q113.625 429.25125 112.796875 428.5325Q111.96875 427.81375 111.734375 426.39188ZM116.703125 421.595Q116.703125 420.5325 116.203125 419.95438Q115.71875 419.36063 115.078125 419.36063Q114.46875 419.36063 114.0625 419.845Q113.671875 420.32938 113.671875 421.42313Q113.671875 422.5325 114.109375 423.04813Q114.546875 423.56375 115.203125 423.56375Q115.828125 423.56375 116.265625 423.06375Q116.703125 422.56375 116.703125 421.595ZM121.09375 426.845L123.296875 426.845L123.296875 428.42313Q123.296875 429.37625 123.125 429.92313Q122.96875 430.48563 122.5 430.92313Q122.046875 431.36063 121.34375 431.61063L120.921875 430.70438Q121.578125 430.48563 121.859375 430.095Q122.140625 429.72 122.15625 429.04813L121.09375 429.04813L121.09375 426.845ZM124.734375 426.39188L126.859375 426.1575Q126.9375 426.81375 127.265625 427.12625Q127.59375 427.43875 128.125 427.43875Q128.8125 427.43875 129.28125 426.81375Q129.76562 426.18875 129.89062 424.22Q129.0625 425.17313 127.828125 425.17313Q126.46875 425.17313 125.484375 424.14188Q124.515625 423.095 124.515625 421.42313Q124.515625 419.67313 125.546875 418.61063Q126.578125 417.54813 128.1875 417.54813Q129.92188 417.54813 131.03125 418.89188Q132.15625 420.23563 132.15625 423.32938Q132.15625 426.47 130.98438 427.86063Q129.82812 429.25125 127.96875 429.25125Q126.625 429.25125 125.796875 428.5325Q124.96875 427.81375 124.734375 426.39188ZM129.70312 421.595Q129.70312 420.5325 129.20312 419.95438Q128.71875 419.36063 128.07812 419.36063Q127.46875 419.36063 127.0625 419.845Q126.671875 420.32938 126.671875 421.42313Q126.671875 422.5325 127.109375 423.04813Q127.546875 423.56375 128.20312 423.56375Q128.82812 423.56375 129.26562 423.06375Q129.70312 422.56375 129.70312 421.595ZM138.1875 429.04813L138.1875 417.595L140.4375 417.595L145.125 425.23563L145.125 417.595L147.28125 417.595L147.28125 429.04813L144.95312 429.04813L140.34375 421.57938L140.34375 429.04813L138.1875 429.04813ZM151.79688 423.2825L149.79688 422.92313Q150.14062 421.72 150.95312 421.14188Q151.78125 420.56375 153.39062 420.56375Q154.85938 420.56375 155.57812 420.9075Q156.29688 421.25125 156.59375 421.79813Q156.89062 422.32938 156.89062 423.75125L156.85938 426.31375Q156.85938 427.4075 156.96875 427.93875Q157.07812 428.45438 157.35938 429.04813L155.1875 429.04813Q155.10938 428.82938 154.98438 428.39188Q154.92188 428.20438 154.90625 428.14188Q154.34375 428.68875 153.70312 428.97Q153.0625 429.23563 152.32812 429.23563Q151.04688 429.23563 150.3125 428.54813Q149.57812 427.845 149.57812 426.7825Q149.57812 426.07938 149.90625 425.5325Q150.25 424.97 150.84375 424.68875Q151.45312 424.39188 152.59375 424.17313Q154.14062 423.87625 154.73438 423.62625L154.73438 423.4075Q154.73438 422.7825 154.42188 422.51688Q154.10938 422.23563 153.23438 422.23563Q152.65625 422.23563 152.32812 422.47Q152.0 422.70438 151.79688 423.2825ZM154.73438 425.06375Q154.3125 425.20438 153.39062 425.4075Q152.48438 425.595 152.20312 425.7825Q151.76562 426.07938 151.76562 426.54813Q151.76562 427.01688 152.10938 427.36063Q152.45312 427.68875 152.98438 427.68875Q153.57812 427.68875 154.125 427.29813Q154.51562 427.00125 154.64062 426.56375Q154.73438 426.2825 154.73438 425.50125L154.73438 425.06375ZM151.78125 419.62625L150.78125 419.62625Q150.76562 419.45438 150.76562 419.345Q150.76562 418.5325 151.17188 418.095Q151.57812 417.64188 152.20312 417.64188Q152.46875 417.64188 152.70312 417.70438Q152.9375 417.76688 153.5625 418.04813Q154.1875 418.31375 154.53125 418.31375Q154.78125 418.31375 154.95312 418.1575Q155.125 418.00125 155.17188 417.64188L156.1875 417.64188Q156.17188 418.68875 155.78125 419.14188Q155.40625 419.595 154.79688 419.595Q154.53125 419.595 154.26562 419.54813Q154.09375 419.50125 153.375 419.23563Q152.65625 418.95438 152.32812 418.95438Q152.07812 418.95438 151.9375 419.11063Q151.79688 419.25125 151.78125 419.62625ZM158.64062 424.7825Q158.64062 423.68875 159.17188 422.67313Q159.71875 421.64188 160.70312 421.11063Q161.70312 420.56375 162.92188 420.56375Q164.79688 420.56375 166.0 421.7825Q167.20312 423.00125 167.20312 424.87625Q167.20312 426.75125 165.98438 428.00125Q164.78125 429.23563 162.9375 429.23563Q161.79688 429.23563 160.75 428.72Q159.71875 428.20438 159.17188 427.20438Q158.64062 426.20438 158.64062 424.7825ZM160.89062 424.89188Q160.89062 426.12625 161.46875 426.7825Q162.0625 427.43875 162.92188 427.43875Q163.78125 427.43875 164.35938 426.7825Q164.95312 426.12625 164.95312 424.87625Q164.95312 423.6575 164.35938 423.00125Q163.78125 422.345 162.92188 422.345Q162.0625 422.345 161.46875 423.00125Q160.89062 423.6575 160.89062 424.89188ZM173.15625 419.62625L173.15625 417.595L175.34375 417.595L175.34375 419.62625L173.15625 419.62625ZM173.15625 429.04813L173.15625 420.75125L175.34375 420.75125L175.34375 429.04813L173.15625 429.04813ZM184.70312 429.04813L182.5 429.04813L182.5 424.81375Q182.5 423.47 182.35938 423.07938Q182.21875 422.67313 181.90625 422.45438Q181.59375 422.23563 181.14062 422.23563Q180.57812 422.23563 180.125 422.54813Q179.67188 422.86063 179.5 423.37625Q179.32812 423.89188 179.32812 425.2825L179.32812 429.04813L177.14062 429.04813L177.14062 420.75125L179.17188 420.75125L179.17188 421.97Q180.26562 420.56375 181.90625 420.56375Q182.64062 420.56375 183.23438 420.82938Q183.84375 421.07938 184.14062 421.48563Q184.45312 421.89188 184.57812 422.4075Q184.70312 422.92313 184.70312 423.89188L184.70312 429.04813ZM194.76562 429.04813L192.71875 429.04813L192.71875 427.82938Q192.21875 428.5325 191.51562 428.89188Q190.82812 429.23563 190.125 429.23563Q188.70312 429.23563 187.67188 428.07938Q186.65625 426.92313 186.65625 424.86063Q186.65625 422.75125 187.64062 421.6575Q188.64062 420.56375 190.15625 420.56375Q191.54688 420.56375 192.5625 421.72L192.5625 417.595L194.76562 417.595L194.76562 429.04813ZM188.90625 424.72Q188.90625 426.04813 189.26562 426.64188Q189.79688 427.50125 190.75 427.50125Q191.51562 427.50125 192.04688 426.86063Q192.57812 426.20438 192.57812 424.92313Q192.57812 423.50125 192.0625 422.87625Q191.54688 422.23563 190.73438 422.23563Q189.95312 422.23563 189.42188 422.86063Q188.90625 423.48563 188.90625 424.72ZM197.15625 429.04813L197.15625 420.75125L199.34375 420.75125L199.34375 429.04813L197.15625 429.04813ZM196.98438 419.73563L198.0625 417.39188L200.51562 417.39188L198.375 419.73563L196.98438 419.73563ZM200.95312 429.595L203.45312 429.9075Q203.51562 430.345 203.75 430.50125Q204.0625 430.73563 204.73438 430.73563Q205.59375 430.73563 206.01562 430.48563Q206.3125 430.31375 206.45312 429.92313Q206.5625 429.6575 206.5625 428.9075L206.5625 427.70438Q205.57812 429.04813 204.07812 429.04813Q202.40625 429.04813 201.42188 427.62625Q200.65625 426.51688 200.65625 424.845Q200.65625 422.76688 201.65625 421.67313Q202.67188 420.56375 204.15625 420.56375Q205.70312 420.56375 206.70312 421.9075L206.70312 420.75125L208.75 420.75125L208.75 428.18875Q208.75 429.67313 208.5 430.39188Q208.26562 431.12625 207.82812 431.5325Q207.39062 431.95438 206.65625 432.18875Q205.9375 432.42313 204.8125 432.42313Q202.70312 432.42313 201.8125 431.68875Q200.9375 430.97 200.9375 429.86063Q200.9375 429.75125 200.95312 429.595ZM202.90625 424.72Q202.90625 426.04813 203.42188 426.6575Q203.9375 427.26688 204.6875 427.26688Q205.48438 427.26688 206.03125 426.64188Q206.59375 426.01688 206.59375 424.7825Q206.59375 423.48563 206.0625 422.86063Q205.53125 422.23563 204.71875 422.23563Q203.9375 422.23563 203.42188 422.86063Q202.90625 423.47 202.90625 424.72ZM215.95312 426.4075L218.14062 426.76688Q217.71875 427.97 216.8125 428.61063Q215.90625 429.23563 214.53125 429.23563Q212.375 429.23563 211.32812 427.81375Q210.51562 426.68875 210.51562 424.95438Q210.51562 422.89188 211.59375 421.73563Q212.67188 420.56375 214.3125 420.56375Q216.17188 420.56375 217.23438 421.7825Q218.3125 423.00125 218.26562 425.5325L212.76562 425.5325Q212.78125 426.50125 213.28125 427.04813Q213.79688 427.595 214.5625 427.595Q215.07812 427.595 215.42188 427.31375Q215.78125 427.0325 215.95312 426.4075ZM216.07812 424.18875Q216.0625 423.23563 215.59375 422.73563Q215.125 422.23563 214.45312 422.23563Q213.73438 422.23563 213.26562 422.76688Q212.79688 423.2825 212.79688 424.18875L216.07812 424.18875ZM227.70312 429.04813L225.5 429.04813L225.5 424.81375Q225.5 423.47 225.35938 423.07938Q225.21875 422.67313 224.90625 422.45438Q224.59375 422.23563 224.14062 422.23563Q223.57812 422.23563 223.125 422.54813Q222.67188 422.86063 222.5 423.37625Q222.32812 423.89188 222.32812 425.2825L222.32812 429.04813L220.14062 429.04813L220.14062 420.75125L222.17188 420.75125L222.17188 421.97Q223.26562 420.56375 224.90625 420.56375Q225.64062 420.56375 226.23438 420.82938Q226.84375 421.07938 227.14062 421.48563Q227.45312 421.89188 227.57812 422.4075Q227.70312 422.92313 227.70312 423.89188L227.70312 429.04813ZM231.79688 423.2825L229.79688 422.92313Q230.14062 421.72 230.95312 421.14188Q231.78125 420.56375 233.39062 420.56375Q234.85938 420.56375 235.57812 420.9075Q236.29688 421.25125 236.59375 421.79813Q236.89062 422.32938 236.89062 423.75125L236.85938 426.31375Q236.85938 427.4075 236.96875 427.93875Q237.07812 428.45438 237.35938 429.04813L235.1875 429.04813Q235.10938 428.82938 234.98438 428.39188Q234.92188 428.20438 234.90625 428.14188Q234.34375 428.68875 233.70312 428.97Q233.0625 429.23563 232.32812 429.23563Q231.04688 429.23563 230.3125 428.54813Q229.57812 427.845 229.57812 426.7825Q229.57812 426.07938 229.90625 425.5325Q230.25 424.97 230.84375 424.68875Q231.45312 424.39188 232.59375 424.17313Q234.14062 423.87625 234.73438 423.62625L234.73438 423.4075Q234.73438 422.7825 234.42188 422.51688Q234.10938 422.23563 233.23438 422.23563Q232.65625 422.23563 232.32812 422.47Q232.0 422.70438 231.79688 423.2825ZM234.73438 425.06375Q234.3125 425.20438 233.39062 425.4075Q232.48438 425.595 232.20312 425.7825Q231.76562 426.07938 231.76562 426.54813Q231.76562 427.01688 232.10938 427.36063Q232.45312 427.68875 232.98438 427.68875Q233.57812 427.68875 234.125 427.29813Q234.51562 427.00125 234.64062 426.56375Q234.73438 426.2825 234.73438 425.50125L234.73438 425.06375ZM238.375 426.67313L240.57812 426.345Q240.71875 426.98563 241.14062 427.31375Q241.57812 427.64188 242.35938 427.64188Q243.20312 427.64188 243.64062 427.32938Q243.92188 427.11063 243.92188 426.75125Q243.92188 426.50125 243.76562 426.32938Q243.60938 426.17313 243.03125 426.04813Q240.375 425.45438 239.67188 424.97Q238.6875 424.29813 238.6875 423.11063Q238.6875 422.0325 239.53125 421.29813Q240.39062 420.56375 242.17188 420.56375Q243.875 420.56375 244.70312 421.12625Q245.53125 421.67313 245.84375 422.75125L243.78125 423.14188Q243.64062 422.6575 243.26562 422.4075Q242.90625 422.14188 242.21875 422.14188Q241.34375 422.14188 240.96875 422.37625Q240.71875 422.54813 240.71875 422.82938Q240.71875 423.06375 240.9375 423.22Q241.23438 423.43875 242.98438 423.845Q244.75 424.23563 245.4375 424.81375Q246.125 425.4075 246.125 426.45438Q246.125 427.595 245.17188 428.42313Q244.21875 429.23563 242.35938 429.23563Q240.65625 429.23563 239.67188 428.54813Q238.6875 427.86063 238.375 426.67313Z" fill-rule="nonzero"/><path fill="#ea4335" d="M275.0 423.54813C275.0 426.86185 272.31372 429.54813 269.0 429.54813C265.68628 429.54813 263.0 426.86185 263.0 423.54813C263.0 420.23444 265.68628 417.54813 269.0 417.54813C272.31372 417.54813 275.0 420.23444 275.0 423.54813Z" fill-rule="nonzero"/><path fill="#000000" d="M287.39062 417.54813Q289.0625 417.54813 290.0 418.73563Q291.10938 420.14188 291.10938 423.39188Q291.10938 426.64188 289.98438 428.06375Q289.0625 429.25125 287.39062 429.25125Q285.71875 429.25125 284.6875 427.97Q283.67188 426.67313 283.67188 423.37625Q283.67188 420.14188 284.79688 418.72Q285.73438 417.54813 287.39062 417.54813ZM287.39062 419.36063Q287.0 419.36063 286.6875 419.62625Q286.375 419.87625 286.20312 420.5325Q285.96875 421.37625 285.96875 423.39188Q285.96875 425.4075 286.17188 426.17313Q286.375 426.92313 286.6875 427.17313Q287.0 427.42313 287.39062 427.42313Q287.79688 427.42313 288.10938 427.17313Q288.42188 426.9075 288.59375 426.25125Q288.8125 425.4075 288.8125 423.39188Q288.8125 421.37625 288.60938 420.62625Q288.40625 419.87625 288.09375 419.62625Q287.79688 419.36063 287.39062 419.36063ZM293.09375 426.845L295.29688 426.845L295.29688 428.42313Q295.29688 429.37625 295.125 429.92313Q294.96875 430.48563 294.5 430.92313Q294.04688 431.36063 293.34375 431.61063L292.92188 430.70438Q293.57812 430.48563 293.85938 430.095Q294.14062 429.72 294.15625 429.04813L293.09375 429.04813L293.09375 426.845ZM302.29688 429.04813L300.10938 429.04813L300.10938 420.76688Q298.90625 421.89188 297.26562 422.43875L297.26562 420.43875Q298.125 420.1575 299.125 419.37625Q300.14062 418.595 300.51562 417.54813L302.29688 417.54813L302.29688 429.04813ZM310.09375 429.04813L310.09375 417.595L312.40625 417.595L312.40625 429.04813L310.09375 429.04813ZM321.70312 429.04813L319.5 429.04813L319.5 424.81375Q319.5 423.47 319.35938 423.07938Q319.21875 422.67313 318.90625 422.45438Q318.59375 422.23563 318.14062 422.23563Q317.57812 422.23563 317.125 422.54813Q316.67188 422.86063 316.5 423.37625Q316.32812 423.89188 316.32812 425.2825L316.32812 429.04813L314.14062 429.04813L314.14062 420.75125L316.17188 420.75125L316.17188 421.97Q317.26562 420.56375 318.90625 420.56375Q319.64062 420.56375 320.23438 420.82938Q320.84375 421.07938 321.14062 421.48563Q321.45312 421.89188 321.57812 422.4075Q321.70312 422.92313 321.70312 423.89188L321.70312 429.04813ZM331.76562 429.04813L329.71875 429.04813L329.71875 427.82938Q329.21875 428.5325 328.51562 428.89188Q327.82812 429.23563 327.125 429.23563Q325.70312 429.23563 324.67188 428.07938Q323.65625 426.92313 323.65625 424.86063Q323.65625 422.75125 324.64062 421.6575Q325.64062 420.56375 327.15625 420.56375Q328.54688 420.56375 329.5625 421.72L329.5625 417.595L331.76562 417.595L331.76562 429.04813ZM325.90625 424.72Q325.90625 426.04813 326.26562 426.64188Q326.79688 427.50125 327.75 427.50125Q328.51562 427.50125 329.04688 426.86063Q329.57812 426.20438 329.57812 424.92313Q329.57812 423.50125 329.0625 422.87625Q328.54688 422.23563 327.73438 422.23563Q326.95312 422.23563 326.42188 422.86063Q325.90625 423.48563 325.90625 424.72ZM334.15625 429.04813L334.15625 420.75125L336.34375 420.75125L336.34375 429.04813L334.15625 429.04813ZM333.98438 419.73563L335.0625 417.39188L337.51562 417.39188L335.375 419.73563L333.98438 419.73563ZM337.95312 429.595L340.45312 429.9075Q340.51562 430.345 340.75 430.50125Q341.0625 430.73563 341.73438 430.73563Q342.59375 430.73563 343.01562 430.48563Q343.3125 430.31375 343.45312 429.92313Q343.5625 429.6575 343.5625 428.9075L343.5625 427.70438Q342.57812 429.04813 341.07812 429.04813Q339.40625 429.04813 338.42188 427.62625Q337.65625 426.51688 337.65625 424.845Q337.65625 422.76688 338.65625 421.67313Q339.67188 420.56375 341.15625 420.56375Q342.70312 420.56375 343.70312 421.9075L343.70312 420.75125L345.75 420.75125L345.75 428.18875Q345.75 429.67313 345.5 430.39188Q345.26562 431.12625 344.82812 431.5325Q344.39062 431.95438 343.65625 432.18875Q342.9375 432.42313 341.8125 432.42313Q339.70312 432.42313 338.8125 431.68875Q337.9375 430.97 337.9375 429.86063Q337.9375 429.75125 337.95312 429.595ZM339.90625 424.72Q339.90625 426.04813 340.42188 426.6575Q340.9375 427.26688 341.6875 427.26688Q342.48438 427.26688 343.03125 426.64188Q343.59375 426.01688 343.59375 424.7825Q343.59375 423.48563 343.0625 422.86063Q342.53125 422.23563 341.71875 422.23563Q340.9375 422.23563 340.42188 422.86063Q339.90625 423.47 339.90625 424.72ZM352.95312 426.4075L355.14062 426.76688Q354.71875 427.97 353.8125 428.61063Q352.90625 429.23563 351.53125 429.23563Q349.375 429.23563 348.32812 427.81375Q347.51562 426.68875 347.51562 424.95438Q347.51562 422.89188 348.59375 421.73563Q349.67188 420.56375 351.3125 420.56375Q353.17188 420.56375 354.23438 421.7825Q355.3125 423.00125 355.26562 425.5325L349.76562 425.5325Q349.78125 426.50125 350.28125 427.04813Q350.79688 427.595 351.5625 427.595Q352.07812 427.595 352.42188 427.31375Q352.78125 427.0325 352.95312 426.4075ZM353.07812 424.18875Q353.0625 423.23563 352.59375 422.73563Q352.125 422.23563 351.45312 422.23563Q350.73438 422.23563 350.26562 422.76688Q349.79688 423.2825 349.79688 424.18875L353.07812 424.18875ZM364.70312 429.04813L362.5 429.04813L362.5 424.81375Q362.5 423.47 362.35938 423.07938Q362.21875 422.67313 361.90625 422.45438Q361.59375 422.23563 361.14062 422.23563Q360.57812 422.23563 360.125 422.54813Q359.67188 422.86063 359.5 423.37625Q359.32812 423.89188 359.32812 425.2825L359.32812 429.04813L357.14062 429.04813L357.14062 420.75125L359.17188 420.75125L359.17188 421.97Q360.26562 420.56375 361.90625 420.56375Q362.64062 420.56375 363.23438 420.82938Q363.84375 421.07938 364.14062 421.48563Q364.45312 421.89188 364.57812 422.4075Q364.70312 422.92313 364.70312 423.89188L364.70312 429.04813ZM368.79688 423.2825L366.79688 422.92313Q367.14062 421.72 367.95312 421.14188Q368.78125 420.56375 370.39062 420.56375Q371.85938 420.56375 372.57812 420.9075Q373.29688 421.25125 373.59375 421.79813Q373.89062 422.32938 373.89062 423.75125L373.85938 426.31375Q373.85938 427.4075 373.96875 427.93875Q374.07812 428.45438 374.35938 429.04813L372.1875 429.04813Q372.10938 428.82938 371.98438 428.39188Q371.92188 428.20438 371.90625 428.14188Q371.34375 428.68875 370.70312 428.97Q370.0625 429.23563 369.32812 429.23563Q368.04688 429.23563 367.3125 428.54813Q366.57812 427.845 366.57812 426.7825Q366.57812 426.07938 366.90625 425.5325Q367.25 424.97 367.84375 424.68875Q368.45312 424.39188 369.59375 424.17313Q371.14062 423.87625 371.73438 423.62625L371.73438 423.4075Q371.73438 422.7825 371.42188 422.51688Q371.10938 422.23563 370.23438 422.23563Q369.65625 422.23563 369.32812 422.47Q369.0 422.70438 368.79688 423.2825ZM371.73438 425.06375Q371.3125 425.20438 370.39062 425.4075Q369.48438 425.595 369.20312 425.7825Q368.76562 426.07938 368.76562 426.54813Q368.76562 427.01688 369.10938 427.36063Q369.45312 427.68875 369.98438 427.68875Q370.57812 427.68875 371.125 427.29813Q371.51562 427.00125 371.64062 426.56375Q371.73438 426.2825 371.73438 425.50125L371.73438 425.06375ZM375.375 426.67313L377.57812 426.345Q377.71875 426.98563 378.14062 427.31375Q378.57812 427.64188 379.35938 427.64188Q380.20312 427.64188 380.64062 427.32938Q380.92188 427.11063 380.92188 426.75125Q380.92188 426.50125 380.76562 426.32938Q380.60938 426.17313 380.03125 426.04813Q377.375 425.45438 376.67188 424.97Q375.6875 424.29813 375.6875 423.11063Q375.6875 422.0325 376.53125 421.29813Q377.39062 420.56375 379.17188 420.56375Q380.875 420.56375 381.70312 421.12625Q382.53125 421.67313 382.84375 422.75125L380.78125 423.14188Q380.64062 422.6575 380.26562 422.4075Q379.90625 422.14188 379.21875 422.14188Q378.34375 422.14188 377.96875 422.37625Q377.71875 422.54813 377.71875 422.82938Q377.71875 423.06375 377.9375 423.22Q378.23438 423.43875 379.98438 423.845Q381.75 424.23563 382.4375 424.81375Q383.125 425.4075 383.125 426.45438Q383.125 427.595 382.17188 428.42313Q381.21875 429.23563 379.35938 429.23563Q377.65625 429.23563 376.67188 428.54813Q375.6875 427.86063 375.375 426.67313Z" fill-rule="nonzero"/><path fill="#000000" d="M198.48438 66.35L202.32812 56.334373L203.75 56.334373L207.85938 66.35L206.34375 66.35L205.17188 63.31875L200.98438 63.31875L199.89062 66.35L198.48438 66.35ZM201.375 62.240623L204.76562 62.240623L203.71875 59.459373Q203.25 58.19375 203.01562 57.38125Q202.82812 58.35 202.46875 59.2875L201.375 62.240623ZM208.5625 66.35L208.5625 56.334373L209.92188 56.334373L215.1875 64.19375L215.1875 56.334373L216.46875 56.334373L216.46875 66.35L215.10938 66.35L209.84375 58.475L209.84375 66.35L208.5625 66.35ZM217.17188 61.475Q217.17188 58.975 218.51562 57.56875Q219.85938 56.146873 221.96875 56.146873Q223.35938 56.146873 224.46875 56.81875Q225.59375 57.475 226.17188 58.6625Q226.76562 59.85 226.76562 61.35Q226.76562 62.88125 226.14062 64.08437Q225.53125 65.2875 224.40625 65.9125Q223.28125 66.52187 221.96875 66.52187Q220.54688 66.52187 219.4375 65.83437Q218.32812 65.14687 217.75 63.975Q217.17188 62.7875 217.17188 61.475ZM218.54688 61.490623Q218.54688 63.303123 219.51562 64.35Q220.5 65.38125 221.96875 65.38125Q223.45312 65.38125 224.42188 64.33437Q225.39062 63.2875 225.39062 61.35Q225.39062 60.115623 224.96875 59.209373Q224.5625 58.303123 223.76562 57.803123Q222.96875 57.2875 221.98438 57.2875Q220.57812 57.2875 219.5625 58.25625Q218.54688 59.225 218.54688 61.490623ZM228.76562 60.490623L228.76562 59.084373L230.17188 59.084373L230.17188 60.490623L228.76562 60.490623ZM228.76562 66.35L228.76562 64.94375L230.17188 64.94375L230.17188 66.35L228.76562 66.35ZM242.54688 65.1625L242.54688 66.35L235.92188 66.35Q235.90625 65.9125 236.0625 65.49062Q236.32812 64.81875 236.875 64.1625Q237.4375 63.50625 238.48438 62.646873Q240.125 61.303123 240.6875 60.521873Q241.26562 59.740623 241.26562 59.0375Q241.26562 58.303123 240.73438 57.803123Q240.21875 57.303123 239.39062 57.303123Q238.5 57.303123 237.95312 57.834373Q237.42188 58.365623 237.42188 59.31875L236.15625 59.178123Q236.28125 57.771873 237.125 57.0375Q237.98438 56.2875 239.40625 56.2875Q240.85938 56.2875 241.6875 57.084373Q242.53125 57.88125 242.53125 59.06875Q242.53125 59.678123 242.28125 60.25625Q242.04688 60.834373 241.46875 61.475Q240.90625 62.115623 239.57812 63.240623Q238.46875 64.1625 238.15625 64.50625Q237.84375 64.83437 237.64062 65.1625L242.54688 65.1625ZM244.07812 61.4125Q244.07812 59.63125 244.4375 58.553123Q244.8125 57.459373 245.53125 56.88125Q246.25 56.2875 247.34375 56.2875Q248.15625 56.2875 248.76562 56.615623Q249.375 56.94375 249.76562 57.553123Q250.17188 58.1625 250.39062 59.0375Q250.60938 59.9125 250.60938 61.4125Q250.60938 63.178123 250.25 64.25625Q249.89062 65.33437 249.17188 65.92812Q248.45312 66.52187 247.34375 66.52187Q245.90625 66.52187 245.07812 65.475Q244.07812 64.225 244.07812 61.4125ZM245.34375 61.4125Q245.34375 63.88125 245.92188 64.69375Q246.5 65.50625 247.34375 65.50625Q248.20312 65.50625 248.78125 64.69375Q249.35938 63.865623 249.35938 61.4125Q249.35938 58.928123 248.78125 58.115623Q248.20312 57.303123 247.32812 57.303123Q246.48438 57.303123 245.98438 58.021873Q245.34375 58.94375 245.34375 61.4125ZM258.54688 65.1625L258.54688 66.35L251.92188 66.35Q251.90625 65.9125 252.0625 65.49062Q252.32812 64.81875 252.875 64.1625Q253.4375 63.50625 254.48438 62.646873Q256.125 61.303123 256.6875 60.521873Q257.26562 59.740623 257.26562 59.0375Q257.26562 58.303123 256.73438 57.803123Q256.21875 57.303123 255.39062 57.303123Q254.5 57.303123 253.95312 57.834373Q253.42188 58.365623 253.42188 59.31875L252.15625 59.178123Q252.28125 57.771873 253.125 57.0375Q253.98438 56.2875 255.40625 56.2875Q256.85938 56.2875 257.6875 57.084373Q258.53125 57.88125 258.53125 59.06875Q258.53125 59.678123 258.28125 60.25625Q258.04688 60.834373 257.46875 61.475Q256.90625 62.115623 255.57812 63.240623Q254.46875 64.1625 254.15625 64.50625Q253.84375 64.83437 253.64062 65.1625L258.54688 65.1625ZM260.07812 63.725L261.375 63.615623Q261.51562 64.55312 262.03125 65.0375Q262.5625 65.50625 263.29688 65.50625Q264.1875 65.50625 264.79688 64.83437Q265.42188 64.1625 265.42188 63.06875Q265.42188 62.00625 264.82812 61.396873Q264.23438 60.7875 263.28125 60.7875Q262.6875 60.7875 262.20312 61.06875Q261.73438 61.334373 261.45312 61.75625L260.29688 61.615623L261.26562 56.459373L266.25 56.459373L266.25 57.646873L262.25 57.646873L261.71875 60.334373Q262.625 59.709373 263.60938 59.709373Q264.92188 59.709373 265.8125 60.615623Q266.71875 61.521873 266.71875 62.959373Q266.71875 64.31875 265.9375 65.30312Q264.96875 66.52187 263.29688 66.52187Q261.9375 66.52187 261.0625 65.75625Q260.20312 64.99062 260.07812 63.725Z" fill-rule="nonzero"/><path fill="#000000" d="M48.6231 40.85L48.6231 26.537498L58.982475 26.537498L58.982475 28.224998L50.52935 28.224998L50.52935 32.6L58.4356 32.6L58.4356 34.2875L50.52935 34.2875L50.52935 39.1625L59.3106 39.1625L59.3106 40.85L48.6231 40.85ZM60.951225 36.25625L62.732475 36.1Q62.857475 37.1625 63.3106 37.85Q63.77935 38.5375 64.7481 38.975Q65.732475 39.396873 66.96685 39.396873Q68.044975 39.396873 68.8731 39.084373Q69.701225 38.75625 70.107475 38.19375Q70.513725 37.63125 70.513725 36.959373Q70.513725 36.2875 70.1231 35.7875Q69.732475 35.2875 68.84185 34.94375Q68.263725 34.709373 66.27935 34.240623Q64.3106 33.771873 63.52935 33.35Q62.4981 32.81875 61.9981 32.021873Q61.4981 31.224998 61.4981 30.240623Q61.4981 29.146873 62.107475 28.209373Q62.71685 27.271873 63.90435 26.787498Q65.09185 26.287498 66.52935 26.287498Q68.1231 26.287498 69.34185 26.803123Q70.5606 27.318748 71.201225 28.318748Q71.857475 29.303123 71.90435 30.568748L70.09185 30.709373Q69.951225 29.349998 69.107475 28.662498Q68.263725 27.959373 66.607475 27.959373Q64.888725 27.959373 64.09185 28.599998Q63.3106 29.224998 63.3106 30.099998Q63.3106 30.881248 63.8731 31.381248Q64.419975 31.881248 66.732475 32.396873Q69.044975 32.9125 69.90435 33.303123Q71.15435 33.88125 71.7481 34.771873Q72.34185 35.646873 72.34185 36.803123Q72.34185 37.94375 71.6856 38.959373Q71.02935 39.975 69.794975 40.5375Q68.576225 41.1 67.044975 41.1Q65.107475 41.1 63.794975 40.5375Q62.482475 39.959373 61.732475 38.81875Q60.982475 37.678123 60.951225 36.25625ZM78.232475 40.85L78.232475 28.224998L73.513725 28.224998L73.513725 26.537498L84.857475 26.537498L84.857475 28.224998L80.1231 28.224998L80.1231 40.85L78.232475 40.85ZM95.982475 26.537498L97.8731 26.537498L97.8731 34.803123Q97.8731 36.959373 97.388725 38.240623Q96.90435 39.50625 95.6231 40.303123Q94.357475 41.1 92.27935 41.1Q90.263725 41.1 88.982475 40.4125Q87.71685 39.709373 87.169975 38.396873Q86.6231 37.084373 86.6231 34.803123L86.6231 26.537498L88.513725 26.537498L88.513725 34.7875Q88.513725 36.6625 88.857475 37.553123Q89.201225 38.428123 90.044975 38.9125Q90.888725 39.38125 92.1231 39.38125Q94.201225 39.38125 95.09185 38.44375Q95.982475 37.490623 95.982475 34.7875L95.982475 26.537498ZM99.59185 40.85L99.59185 26.537498L104.513725 26.537498Q106.1856 26.537498 107.076225 26.740623Q108.294975 27.021873 109.169975 27.756248Q110.294975 28.724998 110.857475 30.209373Q111.419975 31.693748 111.419975 33.615623Q111.419975 35.240623 111.044975 36.50625Q110.669975 37.75625 110.0606 38.584373Q109.46685 39.4125 108.763725 39.896873Q108.0606 40.365623 107.0606 40.615623Q106.0606 40.85 104.7481 40.85L99.59185 40.85ZM101.482475 39.1625L104.544975 39.1625Q105.951225 39.1625 106.7481 38.896873Q107.5606 38.63125 108.044975 38.146873Q108.71685 37.475 109.09185 36.35Q109.46685 35.209373 109.46685 33.584373Q109.46685 31.334373 108.732475 30.131248Q107.9981 28.928123 106.9356 28.521873Q106.1856 28.224998 104.4981 28.224998L101.482475 28.224998L101.482475 39.1625ZM113.013725 33.88125Q113.013725 30.318748 114.919975 28.303123Q116.84185 26.271873 119.8731 26.271873Q121.857475 26.271873 123.4356 27.224998Q125.02935 28.178123 125.857475 29.881248Q126.701225 31.568748 126.701225 33.709373Q126.701225 35.88125 125.826225 37.6Q124.951225 39.31875 123.326225 40.209373Q121.71685 41.1 119.857475 41.1Q117.84185 41.1 116.2481 40.13125Q114.65435 39.146873 113.826225 37.459373Q113.013725 35.75625 113.013725 33.88125ZM114.96685 33.9125Q114.96685 36.490623 116.357475 37.990623Q117.7481 39.475 119.84185 39.475Q121.982475 39.475 123.357475 37.975Q124.7481 36.459373 124.7481 33.69375Q124.7481 31.959373 124.15435 30.662498Q123.576225 29.349998 122.4356 28.631248Q121.294975 27.912498 119.8731 27.912498Q117.8731 27.912498 116.419975 29.303123Q114.96685 30.678123 114.96685 33.9125ZM128.95123 36.25625L130.73248 36.1Q130.85748 37.1625 131.31061 37.85Q131.77936 38.5375 132.74811 38.975Q133.73248 39.396873 134.96686 39.396873Q136.04498 39.396873 136.87311 39.084373Q137.70123 38.75625 138.10748 38.19375Q138.51373 37.63125 138.51373 36.959373Q138.51373 36.2875 138.12311 35.7875Q137.73248 35.2875 136.84186 34.94375Q136.26373 34.709373 134.27936 34.240623Q132.31061 33.771873 131.52936 33.35Q130.49811 32.81875 129.99811 32.021873Q129.49811 31.224998 129.49811 30.240623Q129.49811 29.146873 130.10748 28.209373Q130.71686 27.271873 131.90436 26.787498Q133.09186 26.287498 134.52936 26.287498Q136.12311 26.287498 137.34186 26.803123Q138.56061 27.318748 139.20123 28.318748Q139.85748 29.303123 139.90436 30.568748L138.09186 30.709373Q137.95123 29.349998 137.10748 28.662498Q136.26373 27.959373 134.60748 27.959373Q132.88873 27.959373 132.09186 28.599998Q131.31061 29.224998 131.31061 30.099998Q131.31061 30.881248 131.87311 31.381248Q132.41998 31.881248 134.73248 32.396873Q137.04498 32.9125 137.90436 33.303123Q139.15436 33.88125 139.74811 34.771873Q140.34186 35.646873 140.34186 36.803123Q140.34186 37.94375 139.68561 38.959373Q139.02936 39.975 137.79498 40.5375Q136.57623 41.1 135.04498 41.1Q133.10748 41.1 131.79498 40.5375Q130.48248 39.959373 129.73248 38.81875Q128.98248 37.678123 128.95123 36.25625ZM147.95123 36.25625L149.73248 36.1Q149.85748 37.1625 150.31061 37.85Q150.77936 38.5375 151.74811 38.975Q152.73248 39.396873 153.96686 39.396873Q155.04498 39.396873 155.87311 39.084373Q156.70123 38.75625 157.10748 38.19375Q157.51373 37.63125 157.51373 36.959373Q157.51373 36.2875 157.12311 35.7875Q156.73248 35.2875 155.84186 34.94375Q155.26373 34.709373 153.27936 34.240623Q151.31061 33.771873 150.52936 33.35Q149.49811 32.81875 148.99811 32.021873Q148.49811 31.224998 148.49811 30.240623Q148.49811 29.146873 149.10748 28.209373Q149.71686 27.271873 150.90436 26.787498Q152.09186 26.287498 153.52936 26.287498Q155.12311 26.287498 156.34186 26.803123Q157.56061 27.318748 158.20123 28.318748Q158.85748 29.303123 158.90436 30.568748L157.09186 30.709373Q156.95123 29.349998 156.10748 28.662498Q155.26373 27.959373 153.60748 27.959373Q151.88873 27.959373 151.09186 28.599998Q150.31061 29.224998 150.31061 30.099998Q150.31061 30.881248 150.87311 31.381248Q151.41998 31.881248 153.73248 32.396873Q156.04498 32.9125 156.90436 33.303123Q158.15436 33.88125 158.74811 34.771873Q159.34186 35.646873 159.34186 36.803123Q159.34186 37.94375 158.68561 38.959373Q158.02936 39.975 156.79498 40.5375Q155.57623 41.1 154.04498 41.1Q152.10748 41.1 150.79498 40.5375Q149.48248 39.959373 148.73248 38.81875Q147.98248 37.678123 147.95123 36.25625ZM161.01373 33.88125Q161.01373 30.318748 162.91998 28.303123Q164.84186 26.271873 167.87311 26.271873Q169.85748 26.271873 171.43561 27.224998Q173.02936 28.178123 173.85748 29.881248Q174.70123 31.568748 174.70123 33.709373Q174.70123 35.88125 173.82623 37.6Q172.95123 39.31875 171.32623 40.209373Q169.71686 41.1 167.85748 41.1Q165.84186 41.1 164.24811 40.13125Q162.65436 39.146873 161.82623 37.459373Q161.01373 35.75625 161.01373 33.88125ZM162.96686 33.9125Q162.96686 36.490623 164.35748 37.990623Q165.74811 39.475 167.84186 39.475Q169.98248 39.475 171.35748 37.975Q172.74811 36.459373 172.74811 33.69375Q172.74811 31.959373 172.15436 30.662498Q171.57623 29.349998 170.43561 28.631248Q169.29498 27.912498 167.87311 27.912498Q165.87311 27.912498 164.41998 29.303123Q162.96686 30.678123 162.96686 33.9125ZM177.51373 40.85L177.51373 26.537498L182.88873 26.537498Q184.52936 26.537498 185.51373 26.974998Q186.49811 27.396873 187.06061 28.303123Q187.62311 29.209373 187.62311 30.193748Q187.62311 31.115623 187.12311 31.928123Q186.63873 32.740623 185.62311 33.225Q186.91998 33.615623 187.62311 34.5375Q188.32623 35.44375 188.32623 36.69375Q188.32623 37.709373 187.88873 38.56875Q187.46686 39.428123 186.84186 39.896873Q186.21686 40.365623 185.27936 40.615623Q184.34186 40.85 182.96686 40.85L177.51373 40.85ZM179.40436 32.553123L182.49811 32.553123Q183.76373 32.553123 184.31061 32.38125Q185.02936 32.1625 185.38873 31.678123Q185.76373 31.178123 185.76373 30.412498Q185.76373 29.709373 185.41998 29.162498Q185.07623 28.615623 184.43561 28.428123Q183.81061 28.224998 182.26373 28.224998L179.40436 28.224998L179.40436 32.553123ZM179.40436 39.1625L182.96686 39.1625Q183.88873 39.1625 184.26373 39.084373Q184.91998 38.975 185.35748 38.709373Q185.79498 38.428123 186.07623 37.9125Q186.35748 37.38125 186.35748 36.69375Q186.35748 35.896873 185.95123 35.303123Q185.54498 34.709373 184.81061 34.475Q184.07623 34.240623 182.71686 34.240623L179.40436 34.240623L179.40436 39.1625ZM190.62311 40.85L190.62311 26.537498L196.96686 26.537498Q198.87311 26.537498 199.87311 26.928123Q200.87311 27.303123 201.46686 28.287498Q202.06061 29.256248 202.06061 30.443748Q202.06061 31.959373 201.07623 33.00625Q200.09186 34.053123 198.02936 34.334373Q198.77936 34.69375 199.16998 35.053123Q199.99811 35.803123 200.74811 36.959373L203.23248 40.85L200.85748 40.85L198.95123 37.865623Q198.12311 36.584373 197.59186 35.896873Q197.06061 35.209373 196.62311 34.94375Q196.20123 34.6625 195.76373 34.553123Q195.43561 34.490623 194.71686 34.490623L192.51373 34.490623L192.51373 40.85L190.62311 40.85ZM192.51373 32.85L196.59186 32.85Q197.88873 32.85 198.60748 32.584373Q199.34186 32.31875 199.71686 31.724998Q200.10748 31.131248 200.10748 30.443748Q200.10748 29.428123 199.37311 28.771873Q198.63873 28.115623 197.04498 28.115623L192.51373 28.115623L192.51373 32.85ZM204.62311 40.85L204.62311 26.537498L214.98248 26.537498L214.98248 28.224998L206.52936 28.224998L206.52936 32.6L214.43561 32.6L214.43561 34.2875L206.52936 34.2875L206.52936 39.1625L215.31061 39.1625L215.31061 40.85L204.62311 40.85ZM223.68561 40.85L223.68561 26.537498L233.34186 26.537498L233.34186 28.224998L225.57623 28.224998L225.57623 32.6625L232.29498 32.6625L232.29498 34.35L225.57623 34.35L225.57623 40.85L223.68561 40.85ZM244.98248 26.537498L246.87311 26.537498L246.87311 34.803123Q246.87311 36.959373 246.38873 38.240623Q245.90436 39.50625 244.62311 40.303123Q243.35748 41.1 241.27936 41.1Q239.26373 41.1 237.98248 40.4125Q236.71686 39.709373 236.16998 38.396873Q235.62311 37.084373 235.62311 34.803123L235.62311 26.537498L237.51373 26.537498L237.51373 34.7875Q237.51373 36.6625 237.85748 37.553123Q238.20123 38.428123 239.04498 38.9125Q239.88873 39.38125 241.12311 39.38125Q243.20123 39.38125 244.09186 38.44375Q244.98248 37.490623 244.98248 34.7875L244.98248 26.537498ZM252.23248 40.85L252.23248 28.224998L247.51373 28.224998L247.51373 26.537498L258.85748 26.537498L258.85748 28.224998L254.12311 28.224998L254.12311 40.85L252.23248 40.85ZM260.6231 40.85L260.6231 26.537498L270.98248 26.537498L270.98248 28.224998L262.52936 28.224998L262.52936 32.6L270.4356 32.6L270.4356 34.2875L262.52936 34.2875L262.52936 39.1625L271.3106 39.1625L271.3106 40.85L260.6231 40.85ZM273.51373 40.85L273.51373 26.537498L278.88873 26.537498Q280.52936 26.537498 281.51373 26.974998Q282.4981 27.396873 283.0606 28.303123Q283.6231 29.209373 283.6231 30.193748Q283.6231 31.115623 283.1231 31.928123Q282.63873 32.740623 281.6231 33.225Q282.91998 33.615623 283.6231 34.5375Q284.32623 35.44375 284.32623 36.69375Q284.32623 37.709373 283.88873 38.56875Q283.46686 39.428123 282.84186 39.896873Q282.21686 40.365623 281.27936 40.615623Q280.34186 40.85 278.96686 40.85L273.51373 40.85ZM275.40436 32.553123L278.4981 32.553123Q279.76373 32.553123 280.3106 32.38125Q281.02936 32.1625 281.38873 31.678123Q281.76373 31.178123 281.76373 30.412498Q281.76373 29.709373 281.41998 29.162498Q281.07623 28.615623 280.4356 28.428123Q279.8106 28.224998 278.26373 28.224998L275.40436 28.224998L275.40436 32.553123ZM275.40436 39.1625L278.96686 39.1625Q279.88873 39.1625 280.26373 39.084373Q280.91998 38.975 281.35748 38.709373Q281.79498 38.428123 282.07623 37.9125Q282.35748 37.38125 282.35748 36.69375Q282.35748 35.896873 281.95123 35.303123Q281.54498 34.709373 280.8106 34.475Q280.07623 34.240623 278.71686 34.240623L275.40436 34.240623L275.40436 39.1625ZM286.01373 33.88125Q286.01373 30.318748 287.91998 28.303123Q289.84186 26.271873 292.8731 26.271873Q294.85748 26.271873 296.4356 27.224998Q298.02936 28.178123 298.85748 29.881248Q299.70123 31.568748 299.70123 33.709373Q299.70123 35.88125 298.82623 37.6Q297.95123 39.31875 296.32623 40.209373Q294.71686 41.1 292.85748 41.1Q290.84186 41.1 289.2481 40.13125Q287.65436 39.146873 286.82623 37.459373Q286.01373 35.75625 286.01373 33.88125ZM287.96686 33.9125Q287.96686 36.490623 289.35748 37.990623Q290.7481 39.475 292.84186 39.475Q294.98248 39.475 296.35748 37.975Q297.7481 36.459373 297.7481 33.69375Q297.7481 31.959373 297.15436 30.662498Q296.57623 29.349998 295.4356 28.631248Q294.29498 27.912498 292.8731 27.912498Q290.8731 27.912498 289.41998 29.303123Q287.96686 30.678123 287.96686 33.9125ZM302.51373 40.85L302.51373 26.537498L304.40436 26.537498L304.40436 39.1625L311.45123 39.1625L311.45123 40.85L302.51373 40.85ZM319.90436 40.85L319.90436 26.537498L321.8106 26.537498L321.8106 40.85L319.90436 40.85ZM325.57623 40.85L325.57623 26.537498L327.51373 26.537498L335.02936 37.771873L335.02936 26.537498L336.84186 26.537498L336.84186 40.85L334.90436 40.85L327.38873 29.599998L327.38873 40.85L325.57623 40.85ZM338.59186 40.85L338.59186 26.537498L343.51373 26.537498Q345.1856 26.537498 346.07623 26.740623Q347.29498 27.021873 348.16998 27.756248Q349.29498 28.724998 349.85748 30.209373Q350.41998 31.693748 350.41998 33.615623Q350.41998 35.240623 350.04498 36.50625Q349.66998 37.75625 349.0606 38.584373Q348.46686 39.4125 347.76373 39.896873Q347.0606 40.365623 346.0606 40.615623Q345.0606 40.85 343.7481 40.85L338.59186 40.85ZM340.48248 39.1625L343.54498 39.1625Q344.95123 39.1625 345.7481 38.896873Q346.5606 38.63125 347.04498 38.146873Q347.71686 37.475 348.09186 36.35Q348.46686 35.209373 348.46686 33.584373Q348.46686 31.334373 347.73248 30.131248Q346.9981 28.928123 345.9356 28.521873Q345.1856 28.224998 343.4981 28.224998L340.48248 28.224998L340.48248 39.1625ZM352.90436 40.85L352.90436 26.537498L354.8106 26.537498L354.8106 40.85L352.90436 40.85ZM352.41998 25.662498L353.71686 22.928123L356.01373 22.928123L353.8731 25.662498L352.41998 25.662498ZM365.29498 35.240623L365.29498 33.553123L371.35748 33.5375L371.35748 38.85Q369.95123 39.975 368.46686 40.5375Q366.98248 41.1 365.41998 41.1Q363.3106 41.1 361.59186 40.19375Q359.8731 39.2875 358.98248 37.584373Q358.10748 35.865623 358.10748 33.75625Q358.10748 31.662498 358.98248 29.865623Q359.85748 28.053123 361.4981 27.178123Q363.13873 26.287498 365.27936 26.287498Q366.82623 26.287498 368.07623 26.787498Q369.34186 27.287498 370.04498 28.193748Q370.76373 29.084373 371.13873 30.537498L369.4356 31.006248Q369.10748 29.912498 368.6231 29.287498Q368.15436 28.662498 367.26373 28.287498Q366.3731 27.912498 365.29498 27.912498Q363.98248 27.912498 363.02936 28.303123Q362.09186 28.693748 361.51373 29.349998Q360.9356 29.990623 360.60748 30.756248Q360.0606 32.084373 360.0606 33.646873Q360.0606 35.553123 360.71686 36.85Q361.38873 38.13125 362.63873 38.75625Q363.90436 39.38125 365.3106 39.38125Q366.54498 39.38125 367.71686 38.9125Q368.88873 38.44375 369.4981 37.896873L369.4981 35.240623L365.29498 35.240623ZM374.90436 40.85L374.90436 26.537498L376.8106 26.537498L376.8106 40.85L374.90436 40.85ZM380.57623 40.85L380.57623 26.537498L382.51373 26.537498L390.02936 37.771873L390.02936 26.537498L391.84186 26.537498L391.84186 40.85L389.90436 40.85L382.38873 29.599998L382.38873 40.85L380.57623 40.85ZM392.01373 40.85L397.51373 26.537498L399.5606 26.537498L405.41998 40.85L403.26373 40.85L401.59186 36.50625L395.60748 36.50625L394.02936 40.85L392.01373 40.85ZM396.15436 34.975L400.9981 34.975L399.51373 31.006248Q398.82623 29.193748 398.4981 28.037498Q398.21686 29.412498 397.71686 30.771873L396.15436 34.975Z" fill-rule="nonzero"/></svg>