<svg version="1.1" viewBox="0.0 0.0 466.0 437.0" fill="none" stroke="none" stroke-linecap="square" stroke-miterlimit="10" width="466" height="437" xmlns:xlink="http://www.w3.org/1999/xlink" xmlns="http://www.w3.org/2000/svg"><path fill="#f8f9fa" d="M0 0L466.0 0L466.0 437.0L0 437.0L0 0Z" fill-rule="nonzero"/><path fill="#a42f25" d="M227.6416 195.81317C229.41605 195.6324 231.20685 195.54167 233.0 195.54167L233.0 217.86667C231.20685 217.86667 229.41605 217.9574 227.6416 218.13817Z" fill-rule="nonzero"/><path fill="#ea4335" d="M211.56639 118.49016C218.66422 117.76711 225.82742 117.40417 233.0 117.40417L233.0 195.54167C231.20685 195.54167 229.41605 195.6324 227.6416 195.81317Z" fill-rule="nonzero"/><path fill="#2e5dab" d="M381.83334 243.9125C381.83334 301.45135 315.1984 348.09583 233.0 348.09583C150.80162 348.09583 84.166664 301.45135 84.166664 243.9125L84.166664 221.5875C84.166664 279.12637 150.80162 325.77084 233.0 325.77084C315.1984 325.77084 381.83334 279.12637 381.83334 221.5875Z" fill-rule="nonzero"/><path fill="#2e5dab" d="M233.0 195.54167C253.54959 195.54167 270.20834 207.20279 270.20834 221.5875L270.20834 243.9125C270.20834 229.52779 253.54959 217.86667 233.0 217.86667Z" fill-rule="nonzero"/><path fill="#2e5dab" d="M195.79167 221.5875C195.79167 208.65166 209.35445 197.67607 227.6416 195.81317L227.6416 218.13817C209.35445 220.00107 195.79167 230.97665 195.79167 243.9125Z" fill-rule="nonzero"/><path fill="#4285f4" d="M233.0 117.40417C313.10626 117.40417 378.84274 161.78656 381.7362 217.82436C384.6297 273.86215 323.6421 321.45074 243.74484 325.499C163.84761 329.5472 93.70533 288.60266 85.04001 232.85732C76.37468 177.11197 132.29515 126.565475 211.56639 118.49016L227.6416 195.81317C207.82379 197.832 193.84367 210.46861 196.01 224.40495C198.17633 238.3413 215.7119 248.57742 235.6862 247.56537C255.66052 246.55331 270.9074 234.65616 270.18405 220.64671C269.4607 206.63727 253.02657 195.54167 233.0 195.54167Z" fill-rule="nonzero"/><path fill="#4285f4" d="M87.0 405.65C87.0 408.9637 84.313705 411.65 81.0 411.65C77.686295 411.65 75.0 408.9637 75.0 405.65C75.0 402.3363 77.686295 399.65 81.0 399.65C84.313705 399.65 87.0 402.3363 87.0 405.65Z" fill-rule="nonzero"/><path fill="#000000" d="M95.734375 408.49374L97.859375 408.25937Q97.9375 408.91562 98.265625 409.22812Q98.59375 409.54062 99.125 409.54062Q99.8125 409.54062 100.28125 408.91562Q100.765625 408.29062 100.890625 406.32187Q100.0625 407.275 98.828125 407.275Q97.46875 407.275 96.484375 406.24374Q95.515625 405.19687 95.515625 403.525Q95.515625 401.775 96.546875 400.7125Q97.578125 399.65 99.1875 399.65Q100.921875 399.65 102.03125 400.99374Q103.15625 402.3375 103.15625 405.43124Q103.15625 408.57187 101.984375 409.9625Q100.828125 411.35312 98.96875 411.35312Q97.625 411.35312 96.796875 410.63437Q95.96875 409.91562 95.734375 408.49374ZM100.703125 403.69687Q100.703125 402.63437 100.203125 402.05624Q99.71875 401.4625 99.078125 401.4625Q98.46875 401.4625 98.0625 401.94687Q97.671875 402.43124 97.671875 403.525Q97.671875 404.63437 98.109375 405.15Q98.546875 405.66562 99.203125 405.66562Q99.828125 405.66562 100.265625 405.16562Q100.703125 404.66562 100.703125 403.69687ZM104.6875 401.88437L104.6875 399.85312L112.1875 399.85312L112.1875 401.44687Q111.265625 402.35312 110.296875 404.07187Q109.34375 405.775 108.828125 407.7125Q108.328125 409.63437 108.34375 411.15L106.21875 411.15Q106.28125 408.775 107.203125 406.30624Q108.125 403.8375 109.671875 401.88437L104.6875 401.88437ZM114.09375 408.94687L116.296875 408.94687L116.296875 410.525Q116.296875 411.47812 116.125 412.025Q115.96875 412.5875 115.5 413.025Q115.046875 413.4625 114.34375 413.7125L113.921875 412.80624Q114.578125 412.5875 114.859375 412.19687Q115.140625 411.82187 115.15625 411.15L114.09375 411.15L114.09375 408.94687ZM117.6875 401.88437L117.6875 399.85312L125.1875 399.85312L125.1875 401.44687Q124.265625 402.35312 123.296875 404.07187Q122.34375 405.775 121.828125 407.7125Q121.328125 409.63437 121.34375 411.15L119.21875 411.15Q119.28125 408.775 120.203125 406.30624Q121.125 403.8375 122.671875 401.88437L117.6875 401.88437ZM126.703125 402.525Q126.703125 400.97812 127.375 400.24374Q128.04688 399.49374 129.20312 399.49374Q130.40625 399.49374 131.07812 400.24374Q131.75 400.97812 131.75 402.525Q131.75 404.05624 131.07812 404.80624Q130.40625 405.54062 129.25 405.54062Q128.04688 405.54062 127.375 404.80624Q126.703125 404.07187 126.703125 402.525ZM128.40625 402.50937Q128.40625 403.61874 128.67188 404.00937Q128.85938 404.29062 129.20312 404.29062Q129.5625 404.29062 129.75 404.00937Q130.0 403.61874 130.0 402.50937Q130.0 401.38437 129.75 401.00937Q129.5625 400.72812 129.20312 400.72812Q128.85938 400.72812 128.67188 401.00937Q128.40625 401.38437 128.40625 402.50937ZM130.875 411.5875L129.25 411.5875L135.35938 399.49374L136.9375 399.49374L130.875 411.5875ZM134.42188 408.57187Q134.42188 407.04062 135.09375 406.30624Q135.78125 405.55624 136.95312 405.55624Q138.125 405.55624 138.79688 406.30624Q139.48438 407.04062 139.48438 408.57187Q139.48438 410.11874 138.79688 410.86874Q138.125 411.61874 136.96875 411.61874Q135.78125 411.61874 135.09375 410.86874Q134.42188 410.11874 134.42188 408.57187ZM136.14062 408.57187Q136.14062 409.68124 136.39062 410.05624Q136.59375 410.35312 136.9375 410.35312Q137.28125 410.35312 137.46875 410.07187Q137.73438 409.68124 137.73438 408.57187Q137.73438 407.44687 137.48438 407.07187Q137.28125 406.79062 136.9375 406.79062Q136.57812 406.79062 136.39062 407.07187Q136.14062 407.44687 136.14062 408.57187ZM147.14062 411.15L147.14062 399.69687L150.59375 399.69687L152.67188 407.50937L154.73438 399.69687L158.20312 399.69687L158.20312 411.15L156.04688 411.15L156.04688 402.13437L153.78125 411.15L151.54688 411.15L149.28125 402.13437L149.28125 411.15L147.14062 411.15ZM161.79688 405.38437L159.79688 405.025Q160.14062 403.82187 160.95312 403.24374Q161.78125 402.66562 163.39062 402.66562Q164.85938 402.66562 165.57812 403.00937Q166.29688 403.35312 166.59375 403.9Q166.89062 404.43124 166.89062 405.85312L166.85938 408.41562Q166.85938 409.50937 166.96875 410.04062Q167.07812 410.55624 167.35938 411.15L165.1875 411.15Q165.10938 410.93124 164.98438 410.49374Q164.92188 410.30624 164.90625 410.24374Q164.34375 410.79062 163.70312 411.07187Q163.0625 411.3375 162.32812 411.3375Q161.04688 411.3375 160.3125 410.65Q159.57812 409.94687 159.57812 408.88437Q159.57812 408.18124 159.90625 407.63437Q160.25 407.07187 160.84375 406.79062Q161.45312 406.49374 162.59375 406.275Q164.14062 405.97812 164.73438 405.72812L164.73438 405.50937Q164.73438 404.88437 164.42188 404.61874Q164.10938 404.3375 163.23438 404.3375Q162.65625 404.3375 162.32812 404.57187Q162.0 404.80624 161.79688 405.38437ZM164.73438 407.16562Q164.3125 407.30624 163.39062 407.50937Q162.48438 407.69687 162.20312 407.88437Q161.76562 408.18124 161.76562 408.65Q161.76562 409.11874 162.10938 409.4625Q162.45312 409.79062 162.98438 409.79062Q163.57812 409.79062 164.125 409.4Q164.51562 409.10312 164.64062 408.66562Q164.73438 408.38437 164.73438 407.60312L164.73438 407.16562ZM168.375 408.775L170.57812 408.44687Q170.71875 409.0875 171.14062 409.41562Q171.57812 409.74374 172.35938 409.74374Q173.20312 409.74374 173.64062 409.43124Q173.92188 409.2125 173.92188 408.85312Q173.92188 408.60312 173.76562 408.43124Q173.60938 408.275 173.03125 408.15Q170.375 407.55624 169.67188 407.07187Q168.6875 406.4 168.6875 405.2125Q168.6875 404.13437 169.53125 403.4Q170.39062 402.66562 172.17188 402.66562Q173.875 402.66562 174.70312 403.22812Q175.53125 403.775 175.84375 404.85312L173.78125 405.24374Q173.64062 404.75937 173.26562 404.50937Q172.90625 404.24374 172.21875 404.24374Q171.34375 404.24374 170.96875 404.47812Q170.71875 404.65 170.71875 404.93124Q170.71875 405.16562 170.9375 405.32187Q171.23438 405.54062 172.98438 405.94687Q174.75 406.3375 175.4375 406.91562Q176.125 407.50937 176.125 408.55624Q176.125 409.69687 175.17188 410.525Q174.21875 411.3375 172.35938 411.3375Q170.65625 411.3375 169.67188 410.65Q168.6875 409.9625 168.375 408.775ZM185.39062 405.30624L183.21875 405.69687Q183.10938 405.04062 182.71875 404.7125Q182.34375 404.38437 181.71875 404.38437Q180.90625 404.38437 180.40625 404.9625Q179.92188 405.525 179.92188 406.85312Q179.92188 408.32187 180.42188 408.93124Q180.92188 409.54062 181.75 409.54062Q182.375 409.54062 182.76562 409.19687Q183.17188 408.8375 183.34375 407.9625L185.5 408.3375Q185.15625 409.82187 184.20312 410.5875Q183.25 411.3375 181.65625 411.3375Q179.82812 411.3375 178.75 410.19687Q177.67188 409.04062 177.67188 407.00937Q177.67188 404.94687 178.75 403.80624Q179.84375 402.66562 181.6875 402.66562Q183.20312 402.66562 184.09375 403.32187Q185.0 403.9625 185.39062 405.30624ZM192.60938 411.15L192.60938 409.9Q192.15625 410.57187 191.42188 410.9625Q190.6875 411.3375 189.85938 411.3375Q189.03125 411.3375 188.35938 410.97812Q187.70312 410.60312 187.40625 409.94687Q187.10938 409.275 187.10938 408.10312L187.10938 402.85312L189.29688 402.85312L189.29688 406.66562Q189.29688 408.41562 189.42188 408.80624Q189.54688 409.19687 189.85938 409.43124Q190.1875 409.66562 190.67188 409.66562Q191.23438 409.66562 191.67188 409.35312Q192.125 409.04062 192.28125 408.5875Q192.45312 408.13437 192.45312 406.35312L192.45312 402.85312L194.65625 402.85312L194.65625 411.15L192.60938 411.15ZM197.15625 411.15L197.15625 399.69687L199.34375 399.69687L199.34375 411.15L197.15625 411.15ZM201.15625 401.72812L201.15625 399.69687L203.34375 399.69687L203.34375 401.72812L201.15625 401.72812ZM201.15625 411.15L201.15625 402.85312L203.34375 402.85312L203.34375 411.15L201.15625 411.15ZM212.70312 411.15L210.5 411.15L210.5 406.91562Q210.5 405.57187 210.35938 405.18124Q210.21875 404.775 209.90625 404.55624Q209.59375 404.3375 209.14062 404.3375Q208.57812 404.3375 208.125 404.65Q207.67188 404.9625 207.5 405.47812Q207.32812 405.99374 207.32812 407.38437L207.32812 411.15L205.14062 411.15L205.14062 402.85312L207.17188 402.85312L207.17188 404.07187Q208.26562 402.66562 209.90625 402.66562Q210.64062 402.66562 211.23438 402.93124Q211.84375 403.18124 212.14062 403.5875Q212.45312 403.99374 212.57812 404.50937Q212.70312 405.025 212.70312 405.99374L212.70312 411.15ZM214.64062 406.88437Q214.64062 405.79062 215.17188 404.775Q215.71875 403.74374 216.70312 403.2125Q217.70312 402.66562 218.92188 402.66562Q220.79688 402.66562 222.0 403.88437Q223.20312 405.10312 223.20312 406.97812Q223.20312 408.85312 221.98438 410.10312Q220.78125 411.3375 218.9375 411.3375Q217.79688 411.3375 216.75 410.82187Q215.71875 410.30624 215.17188 409.30624Q214.64062 408.30624 214.64062 406.88437ZM216.89062 406.99374Q216.89062 408.22812 217.46875 408.88437Q218.0625 409.54062 218.92188 409.54062Q219.78125 409.54062 220.35938 408.88437Q220.95312 408.22812 220.95312 406.97812Q220.95312 405.75937 220.35938 405.10312Q219.78125 404.44687 218.92188 404.44687Q218.0625 404.44687 217.46875 405.10312Q216.89062 405.75937 216.89062 406.99374ZM224.375 408.775L226.57812 408.44687Q226.71875 409.0875 227.14062 409.41562Q227.57812 409.74374 228.35938 409.74374Q229.20312 409.74374 229.64062 409.43124Q229.92188 409.2125 229.92188 408.85312Q229.92188 408.60312 229.76562 408.43124Q229.60938 408.275 229.03125 408.15Q226.375 407.55624 225.67188 407.07187Q224.6875 406.4 224.6875 405.2125Q224.6875 404.13437 225.53125 403.4Q226.39062 402.66562 228.17188 402.66562Q229.875 402.66562 230.70312 403.22812Q231.53125 403.775 231.84375 404.85312L229.78125 405.24374Q229.64062 404.75937 229.26562 404.50937Q228.90625 404.24374 228.21875 404.24374Q227.34375 404.24374 226.96875 404.47812Q226.71875 404.65 226.71875 404.93124Q226.71875 405.16562 226.9375 405.32187Q227.23438 405.54062 228.98438 405.94687Q230.75 406.3375 231.4375 406.91562Q232.125 407.50937 232.125 408.55624Q232.125 409.69687 231.17188 410.525Q230.21875 411.3375 228.35938 411.3375Q226.65625 411.3375 225.67188 410.65Q224.6875 409.9625 224.375 408.775Z" fill-rule="nonzero"/><path fill="#ea4335" d="M261.0 405.65C261.0 408.9637 258.31372 411.65 255.0 411.65C251.6863 411.65 249.0 408.9637 249.0 405.65C249.0 402.3363 251.6863 399.65 255.0 399.65C258.31372 399.65 261.0 402.3363 261.0 405.65Z" fill-rule="nonzero"/><path fill="#000000" d="M277.09375 409.10312L277.09375 411.15L269.40625 411.15Q269.53125 409.99374 270.15625 408.9625Q270.78125 407.91562 272.625 406.2125Q274.10938 404.82187 274.4375 404.3375Q274.89062 403.65 274.89062 402.99374Q274.89062 402.25937 274.5 401.86874Q274.10938 401.4625 273.40625 401.4625Q272.71875 401.4625 272.3125 401.88437Q271.90625 402.29062 271.84375 403.25937L269.65625 403.04062Q269.85938 401.22812 270.89062 400.44687Q271.92188 399.65 273.46875 399.65Q275.15625 399.65 276.125 400.57187Q277.09375 401.47812 277.09375 402.8375Q277.09375 403.60312 276.8125 404.30624Q276.54688 405.00937 275.9375 405.775Q275.54688 406.275 274.5 407.22812Q273.46875 408.18124 273.1875 408.49374Q272.90625 408.80624 272.73438 409.10312L277.09375 409.10312ZM279.09375 408.94687L281.29688 408.94687L281.29688 410.525Q281.29688 411.47812 281.125 412.025Q280.96875 412.5875 280.5 413.025Q280.04688 413.4625 279.34375 413.7125L278.92188 412.80624Q279.57812 412.5875 279.85938 412.19687Q280.14062 411.82187 280.15625 411.15L279.09375 411.15L279.09375 408.94687ZM282.60938 408.10312L284.73438 407.85312Q284.82812 408.66562 285.26562 409.10312Q285.71875 409.525 286.35938 409.525Q287.03125 409.525 287.5 409.00937Q287.96875 408.49374 287.96875 407.61874Q287.96875 406.79062 287.51562 406.30624Q287.07812 405.82187 286.4375 405.82187Q286.01562 405.82187 285.42188 405.97812L285.67188 404.19687Q286.5625 404.2125 287.03125 403.80624Q287.5 403.4 287.5 402.7125Q287.5 402.13437 287.15625 401.79062Q286.8125 401.44687 286.23438 401.44687Q285.67188 401.44687 285.26562 401.8375Q284.875 402.22812 284.79688 402.97812L282.76562 402.63437Q282.98438 401.60312 283.40625 400.97812Q283.82812 400.35312 284.59375 400.00937Q285.35938 399.65 286.29688 399.65Q287.92188 399.65 288.89062 400.68124Q289.70312 401.525 289.70312 402.5875Q289.70312 404.0875 288.04688 404.99374Q289.03125 405.19687 289.625 405.93124Q290.21875 406.66562 290.21875 407.7125Q290.21875 409.2125 289.10938 410.29062Q288.01562 411.35312 286.375 411.35312Q284.8125 411.35312 283.78125 410.4625Q282.76562 409.55624 282.60938 408.10312ZM291.70312 402.525Q291.70312 400.97812 292.375 400.24374Q293.04688 399.49374 294.20312 399.49374Q295.40625 399.49374 296.07812 400.24374Q296.75 400.97812 296.75 402.525Q296.75 404.05624 296.07812 404.80624Q295.40625 405.54062 294.25 405.54062Q293.04688 405.54062 292.375 404.80624Q291.70312 404.07187 291.70312 402.525ZM293.40625 402.50937Q293.40625 403.61874 293.67188 404.00937Q293.85938 404.29062 294.20312 404.29062Q294.5625 404.29062 294.75 404.00937Q295.0 403.61874 295.0 402.50937Q295.0 401.38437 294.75 401.00937Q294.5625 400.72812 294.20312 400.72812Q293.85938 400.72812 293.67188 401.00937Q293.40625 401.38437 293.40625 402.50937ZM295.875 411.5875L294.25 411.5875L300.35938 399.49374L301.9375 399.49374L295.875 411.5875ZM299.42188 408.57187Q299.42188 407.04062 300.09375 406.30624Q300.78125 405.55624 301.95312 405.55624Q303.125 405.55624 303.79688 406.30624Q304.48438 407.04062 304.48438 408.57187Q304.48438 410.11874 303.79688 410.86874Q303.125 411.61874 301.96875 411.61874Q300.78125 411.61874 300.09375 410.86874Q299.42188 410.11874 299.42188 408.57187ZM301.14062 408.57187Q301.14062 409.68124 301.39062 410.05624Q301.59375 410.35312 301.9375 410.35312Q302.28125 410.35312 302.46875 410.07187Q302.73438 409.68124 302.73438 408.57187Q302.73438 407.44687 302.48438 407.07187Q302.28125 406.79062 301.9375 406.79062Q301.57812 406.79062 301.39062 407.07187Q301.14062 407.44687 301.14062 408.57187ZM312.1875 411.15L312.1875 399.69687L320.03125 399.69687L320.03125 401.63437L314.5 401.63437L314.5 404.3375L319.28125 404.3375L319.28125 406.275L314.5 406.275L314.5 411.15L312.1875 411.15ZM326.95312 408.50937L329.14062 408.86874Q328.71875 410.07187 327.8125 410.7125Q326.90625 411.3375 325.53125 411.3375Q323.375 411.3375 322.32812 409.91562Q321.51562 408.79062 321.51562 407.05624Q321.51562 404.99374 322.59375 403.8375Q323.67188 402.66562 325.3125 402.66562Q327.17188 402.66562 328.23438 403.88437Q329.3125 405.10312 329.26562 407.63437L323.76562 407.63437Q323.78125 408.60312 324.28125 409.15Q324.79688 409.69687 325.5625 409.69687Q326.07812 409.69687 326.42188 409.41562Q326.78125 409.13437 326.95312 408.50937ZM327.07812 406.29062Q327.0625 405.3375 326.59375 404.8375Q326.125 404.3375 325.45312 404.3375Q324.73438 404.3375 324.26562 404.86874Q323.79688 405.38437 323.79688 406.29062L327.07812 406.29062ZM330.98438 402.85312L333.01562 402.85312L333.01562 403.97812Q334.09375 402.66562 335.59375 402.66562Q336.39062 402.66562 336.96875 402.99374Q337.5625 403.32187 337.9375 403.97812Q338.48438 403.32187 339.10938 402.99374Q339.75 402.66562 340.46875 402.66562Q341.39062 402.66562 342.01562 403.04062Q342.65625 403.4 342.96875 404.11874Q343.1875 404.65 343.1875 405.8375L343.1875 411.15L341.0 411.15L341.0 406.4Q341.0 405.16562 340.76562 404.80624Q340.46875 404.3375 339.82812 404.3375Q339.375 404.3375 338.96875 404.61874Q338.5625 404.9 338.375 405.44687Q338.20312 405.99374 338.20312 407.16562L338.20312 411.15L336.0 411.15L336.0 406.60312Q336.0 405.38437 335.875 405.04062Q335.76562 404.68124 335.51562 404.50937Q335.28125 404.3375 334.85938 404.3375Q334.34375 404.3375 333.9375 404.61874Q333.53125 404.88437 333.35938 405.4Q333.1875 405.91562 333.1875 407.11874L333.1875 411.15L330.98438 411.15L330.98438 402.85312ZM345.15625 401.72812L345.15625 399.69687L347.34375 399.69687L347.34375 401.72812L345.15625 401.72812ZM345.15625 411.15L345.15625 402.85312L347.34375 402.85312L347.34375 411.15L345.15625 411.15ZM356.70312 411.15L354.5 411.15L354.5 406.91562Q354.5 405.57187 354.35938 405.18124Q354.21875 404.775 353.90625 404.55624Q353.59375 404.3375 353.14062 404.3375Q352.57812 404.3375 352.125 404.65Q351.67188 404.9625 351.5 405.47812Q351.32812 405.99374 351.32812 407.38437L351.32812 411.15L349.14062 411.15L349.14062 402.85312L351.17188 402.85312L351.17188 404.07187Q352.26562 402.66562 353.90625 402.66562Q354.64062 402.66562 355.23438 402.93124Q355.84375 403.18124 356.14062 403.5875Q356.45312 403.99374 356.57812 404.50937Q356.70312 405.025 356.70312 405.99374L356.70312 411.15ZM359.15625 401.72812L359.15625 399.69687L361.34375 399.69687L361.34375 401.72812L359.15625 401.72812ZM359.15625 411.15L359.15625 402.85312L361.34375 402.85312L361.34375 411.15L359.15625 411.15ZM370.70312 411.15L368.5 411.15L368.5 406.91562Q368.5 405.57187 368.35938 405.18124Q368.21875 404.775 367.90625 404.55624Q367.59375 404.3375 367.14062 404.3375Q366.57812 404.3375 366.125 404.65Q365.67188 404.9625 365.5 405.47812Q365.32812 405.99374 365.32812 407.38437L365.32812 411.15L363.14062 411.15L363.14062 402.85312L365.17188 402.85312L365.17188 404.07187Q366.26562 402.66562 367.90625 402.66562Q368.64062 402.66562 369.23438 402.93124Q369.84375 403.18124 370.14062 403.5875Q370.45312 403.99374 370.57812 404.50937Q370.70312 405.025 370.70312 405.99374L370.70312 411.15ZM372.64062 406.88437Q372.64062 405.79062 373.17188 404.775Q373.71875 403.74374 374.70312 403.2125Q375.70312 402.66562 376.92188 402.66562Q378.79688 402.66562 380.0 403.88437Q381.20312 405.10312 381.20312 406.97812Q381.20312 408.85312 379.98438 410.10312Q378.78125 411.3375 376.9375 411.3375Q375.79688 411.3375 374.75 410.82187Q373.71875 410.30624 373.17188 409.30624Q372.64062 408.30624 372.64062 406.88437ZM374.89062 406.99374Q374.89062 408.22812 375.46875 408.88437Q376.0625 409.54062 376.92188 409.54062Q377.78125 409.54062 378.35938 408.88437Q378.95312 408.22812 378.95312 406.97812Q378.95312 405.75937 378.35938 405.10312Q377.78125 404.44687 376.92188 404.44687Q376.0625 404.44687 375.46875 405.10312Q374.89062 405.75937 374.89062 406.99374ZM382.375 408.775L384.57812 408.44687Q384.71875 409.0875 385.14062 409.41562Q385.57812 409.74374 386.35938 409.74374Q387.20312 409.74374 387.64062 409.43124Q387.92188 409.2125 387.92188 408.85312Q387.92188 408.60312 387.76562 408.43124Q387.60938 408.275 387.03125 408.15Q384.375 407.55624 383.67188 407.07187Q382.6875 406.4 382.6875 405.2125Q382.6875 404.13437 383.53125 403.4Q384.39062 402.66562 386.17188 402.66562Q387.875 402.66562 388.70312 403.22812Q389.53125 403.775 389.84375 404.85312L387.78125 405.24374Q387.64062 404.75937 387.26562 404.50937Q386.90625 404.24374 386.21875 404.24374Q385.34375 404.24374 384.96875 404.47812Q384.71875 404.65 384.71875 404.93124Q384.71875 405.16562 384.9375 405.32187Q385.23438 405.54062 386.98438 405.94687Q388.75 406.3375 389.4375 406.91562Q390.125 407.50937 390.125 408.55624Q390.125 409.69687 389.17188 410.525Q388.21875 411.3375 386.35938 411.3375Q384.65625 411.3375 383.67188 410.65Q382.6875 409.9625 382.375 408.775Z" fill-rule="nonzero"/><path fill="#000000" d="M175.98438 66.35L179.82812 56.334373L181.25 56.334373L185.35938 66.35L183.84375 66.35L182.67188 63.31875L178.48438 63.31875L177.39062 66.35L175.98438 66.35ZM178.875 62.240623L182.26562 62.240623L181.21875 59.459373Q180.75 58.19375 180.51562 57.38125Q180.32812 58.35 179.96875 59.2875L178.875 62.240623ZM186.0625 66.35L186.0625 56.334373L187.42188 56.334373L192.6875 64.19375L192.6875 56.334373L193.96875 56.334373L193.96875 66.35L192.60938 66.35L187.34375 58.475L187.34375 66.35L186.0625 66.35ZM194.67188 61.475Q194.67188 58.975 196.01562 57.56875Q197.35938 56.146873 199.46875 56.146873Q200.85938 56.146873 201.96875 56.81875Q203.09375 57.475 203.67188 58.6625Q204.26562 59.85 204.26562 61.35Q204.26562 62.88125 203.64062 64.08437Q203.03125 65.2875 201.90625 65.9125Q200.78125 66.52187 199.46875 66.52187Q198.04688 66.52187 196.9375 65.83437Q195.82812 65.14687 195.25 63.975Q194.67188 62.7875 194.67188 61.475ZM196.04688 61.490623Q196.04688 63.303123 197.01562 64.35Q198.0 65.38125 199.46875 65.38125Q200.95312 65.38125 201.92188 64.33437Q202.89062 63.2875 202.89062 61.35Q202.89062 60.115623 202.46875 59.209373Q202.0625 58.303123 201.26562 57.803123Q200.46875 57.2875 199.48438 57.2875Q198.07812 57.2875 197.0625 58.25625Q196.04688 59.225 196.04688 61.490623ZM206.26562 60.490623L206.26562 59.084373L207.67188 59.084373L207.67188 60.490623L206.26562 60.490623ZM206.26562 66.35L206.26562 64.94375L207.67188 64.94375L207.67188 66.35L206.26562 66.35ZM220.04688 65.1625L220.04688 66.35L213.42188 66.35Q213.40625 65.9125 213.5625 65.49062Q213.82812 64.81875 214.375 64.1625Q214.9375 63.50625 215.98438 62.646873Q217.625 61.303123 218.1875 60.521873Q218.76562 59.740623 218.76562 59.0375Q218.76562 58.303123 218.23438 57.803123Q217.71875 57.303123 216.89062 57.303123Q216.0 57.303123 215.45312 57.834373Q214.92188 58.365623 214.92188 59.31875L213.65625 59.178123Q213.78125 57.771873 214.625 57.0375Q215.48438 56.2875 216.90625 56.2875Q218.35938 56.2875 219.1875 57.084373Q220.03125 57.88125 220.03125 59.06875Q220.03125 59.678123 219.78125 60.25625Q219.54688 60.834373 218.96875 61.475Q218.40625 62.115623 217.07812 63.240623Q215.96875 64.1625 215.65625 64.50625Q215.34375 64.83437 215.14062 65.1625L220.04688 65.1625ZM221.57812 61.4125Q221.57812 59.63125 221.9375 58.553123Q222.3125 57.459373 223.03125 56.88125Q223.75 56.2875 224.84375 56.2875Q225.65625 56.2875 226.26562 56.615623Q226.875 56.94375 227.26562 57.553123Q227.67188 58.1625 227.89062 59.0375Q228.10938 59.9125 228.10938 61.4125Q228.10938 63.178123 227.75 64.25625Q227.39062 65.33437 226.67188 65.92812Q225.95312 66.52187 224.84375 66.52187Q223.40625 66.52187 222.57812 65.475Q221.57812 64.225 221.57812 61.4125ZM222.84375 61.4125Q222.84375 63.88125 223.42188 64.69375Q224.0 65.50625 224.84375 65.50625Q225.70312 65.50625 226.28125 64.69375Q226.85938 63.865623 226.85938 61.4125Q226.85938 58.928123 226.28125 58.115623Q225.70312 57.303123 224.82812 57.303123Q223.98438 57.303123 223.48438 58.021873Q222.84375 58.94375 222.84375 61.4125ZM234.21875 66.35L232.98438 66.35L232.98438 58.50625Q232.54688 58.928123 231.8125 59.365623Q231.09375 59.7875 230.53125 59.990623L230.53125 58.803123Q231.5625 58.31875 232.32812 57.63125Q233.10938 56.94375 233.42188 56.2875L234.21875 56.2875L234.21875 66.35ZM241.53125 66.35L241.53125 63.94375L237.17188 63.94375L237.17188 62.81875L241.75 56.334373L242.75 56.334373L242.75 62.81875L244.10938 62.81875L244.10938 63.94375L242.75 63.94375L242.75 66.35L241.53125 66.35ZM241.53125 62.81875L241.53125 58.303123L238.39062 62.81875L241.53125 62.81875ZM249.4375 63.334373L249.4375 62.1L253.21875 62.1L253.21875 63.334373L249.4375 63.334373ZM265.04688 65.1625L265.04688 66.35L258.42188 66.35Q258.40625 65.9125 258.5625 65.49062Q258.82812 64.81875 259.375 64.1625Q259.9375 63.50625 260.98438 62.646873Q262.625 61.303123 263.1875 60.521873Q263.76562 59.740623 263.76562 59.0375Q263.76562 58.303123 263.23438 57.803123Q262.71875 57.303123 261.89062 57.303123Q261.0 57.303123 260.45312 57.834373Q259.92188 58.365623 259.92188 59.31875L258.65625 59.178123Q258.78125 57.771873 259.625 57.0375Q260.48438 56.2875 261.90625 56.2875Q263.35938 56.2875 264.1875 57.084373Q265.03125 57.88125 265.03125 59.06875Q265.03125 59.678123 264.78125 60.25625Q264.54688 60.834373 263.96875 61.475Q263.40625 62.115623 262.07812 63.240623Q260.96875 64.1625 260.65625 64.50625Q260.34375 64.83437 260.14062 65.1625L265.04688 65.1625ZM266.57812 61.4125Q266.57812 59.63125 266.9375 58.553123Q267.3125 57.459373 268.03125 56.88125Q268.75 56.2875 269.84375 56.2875Q270.65625 56.2875 271.26562 56.615623Q271.875 56.94375 272.26562 57.553123Q272.67188 58.1625 272.89062 59.0375Q273.10938 59.9125 273.10938 61.4125Q273.10938 63.178123 272.75 64.25625Q272.39062 65.33437 271.67188 65.92812Q270.95312 66.52187 269.84375 66.52187Q268.40625 66.52187 267.57812 65.475Q266.57812 64.225 266.57812 61.4125ZM267.84375 61.4125Q267.84375 63.88125 268.42188 64.69375Q269.0 65.50625 269.84375 65.50625Q270.70312 65.50625 271.28125 64.69375Q271.85938 63.865623 271.85938 61.4125Q271.85938 58.928123 271.28125 58.115623Q270.70312 57.303123 269.82812 57.303123Q268.98438 57.303123 268.48438 58.021873Q267.84375 58.94375 267.84375 61.4125ZM281.04688 65.1625L281.04688 66.35L274.42188 66.35Q274.40625 65.9125 274.5625 65.49062Q274.82812 64.81875 275.375 64.1625Q275.9375 63.50625 276.98438 62.646873Q278.625 61.303123 279.1875 60.521873Q279.76562 59.740623 279.76562 59.0375Q279.76562 58.303123 279.23438 57.803123Q278.71875 57.303123 277.89062 57.303123Q277.0 57.303123 276.45312 57.834373Q275.92188 58.365623 275.92188 59.31875L274.65625 59.178123Q274.78125 57.771873 275.625 57.0375Q276.48438 56.2875 277.90625 56.2875Q279.35938 56.2875 280.1875 57.084373Q281.03125 57.88125 281.03125 59.06875Q281.03125 59.678123 280.78125 60.25625Q280.54688 60.834373 279.96875 61.475Q279.40625 62.115623 278.07812 63.240623Q276.96875 64.1625 276.65625 64.50625Q276.34375 64.83437 276.14062 65.1625L281.04688 65.1625ZM282.57812 63.725L283.875 63.615623Q284.01562 64.55312 284.53125 65.0375Q285.0625 65.50625 285.79688 65.50625Q286.6875 65.50625 287.29688 64.83437Q287.92188 64.1625 287.92188 63.06875Q287.92188 62.00625 287.32812 61.396873Q286.73438 60.7875 285.78125 60.7875Q285.1875 60.7875 284.70312 61.06875Q284.23438 61.334373 283.95312 61.75625L282.79688 61.615623L283.76562 56.459373L288.75 56.459373L288.75 57.646873L284.75 57.646873L284.21875 60.334373Q285.125 59.709373 286.10938 59.709373Q287.42188 59.709373 288.3125 60.615623Q289.21875 61.521873 289.21875 62.959373Q289.21875 64.31875 288.4375 65.30312Q287.46875 66.52187 285.79688 66.52187Q284.4375 66.52187 283.5625 65.75625Q282.70312 64.99062 282.57812 63.725Z" fill-rule="nonzero"/><path fill="#000000" d="M91.4981 40.85L91.4981 26.537498L102.1231 26.537498L102.1231 28.959373L94.388725 28.959373L94.388725 32.13125L101.576225 32.13125L101.576225 34.5375L94.388725 34.5375L94.388725 38.44375L102.388725 38.44375L102.388725 40.85L91.4981 40.85ZM103.763725 36.19375L106.576225 35.9125Q106.84185 37.334373 107.607475 38.00625Q108.388725 38.6625 109.701225 38.6625Q111.107475 38.6625 111.8106 38.06875Q112.513725 37.475 112.513725 36.69375Q112.513725 36.178123 112.21685 35.834373Q111.919975 35.475 111.1856 35.209373Q110.669975 35.021873 108.8731 34.584373Q106.544975 34.00625 105.607475 33.1625Q104.27935 31.974998 104.27935 30.287498Q104.27935 29.193748 104.90435 28.240623Q105.52935 27.287498 106.6856 26.787498Q107.857475 26.287498 109.513725 26.287498Q112.201225 26.287498 113.5606 27.474998Q114.9356 28.646873 114.9981 30.631248L112.107475 30.756248Q111.919975 29.646873 111.3106 29.162498Q110.701225 28.678123 109.482475 28.678123Q108.21685 28.678123 107.513725 29.193748Q107.044975 29.537498 107.044975 30.084373Q107.044975 30.599998 107.482475 30.959373Q108.02935 31.412498 110.138725 31.912498Q112.2481 32.4125 113.2481 32.94375Q114.263725 33.475 114.826225 34.396873Q115.40435 35.31875 115.40435 36.678123Q115.40435 37.9125 114.71685 38.990623Q114.044975 40.053123 112.794975 40.584373Q111.544975 41.1 109.669975 41.1Q106.96685 41.1 105.4981 39.85Q104.044975 38.6 103.763725 36.19375ZM120.71685 40.85L120.71685 28.959373L116.482475 28.959373L116.482475 26.537498L127.857475 26.537498L127.857475 28.959373L123.607475 28.959373L123.607475 40.85L120.71685 40.85ZM130.48248 26.537498L133.37311 26.537498L133.37311 34.2875Q133.37311 36.13125 133.48248 36.678123Q133.66998 37.553123 134.35748 38.084373Q135.06061 38.615623 136.27936 38.615623Q137.49811 38.615623 138.12311 38.115623Q138.74811 37.615623 138.87311 36.88125Q139.01373 36.146873 139.01373 34.459373L139.01373 26.537498L141.90436 26.537498L141.90436 34.053123Q141.90436 36.63125 141.66998 37.69375Q141.43561 38.75625 140.79498 39.490623Q140.16998 40.225 139.10748 40.6625Q138.06061 41.1 136.35748 41.1Q134.31061 41.1 133.24811 40.63125Q132.18561 40.146873 131.57623 39.396873Q130.96686 38.63125 130.76373 37.803123Q130.48248 36.56875 130.48248 34.1625L130.48248 26.537498ZM144.49811 26.537498L149.77936 26.537498Q151.56061 26.537498 152.49811 26.803123Q153.76373 27.178123 154.65436 28.131248Q155.56061 29.068748 156.02936 30.443748Q156.49811 31.818748 156.49811 33.834373Q156.49811 35.6 156.06061 36.88125Q155.51373 38.44375 154.51373 39.396873Q153.76373 40.13125 152.48248 40.553123Q151.52936 40.85 149.93561 40.85L144.49811 40.85L144.49811 26.537498ZM147.38873 28.959373L147.38873 38.44375L149.54498 38.44375Q150.74811 38.44375 151.29498 38.303123Q151.99811 38.13125 152.45123 37.709373Q152.91998 37.2875 153.20123 36.334373Q153.49811 35.365623 153.49811 33.69375Q153.49811 32.0375 153.20123 31.146873Q152.91998 30.256248 152.38873 29.771873Q151.85748 29.271873 151.06061 29.084373Q150.45123 28.959373 148.68561 28.959373L147.38873 28.959373ZM157.91998 33.771873Q157.91998 31.584373 158.57623 30.099998Q159.06061 29.006248 159.90436 28.146873Q160.74811 27.271873 161.74811 26.849998Q163.09186 26.287498 164.84186 26.287498Q167.99811 26.287498 169.88873 28.256248Q171.79498 30.209373 171.79498 33.709373Q171.79498 37.178123 169.90436 39.146873Q168.02936 41.1 164.87311 41.1Q161.68561 41.1 159.79498 39.146873Q157.91998 37.19375 157.91998 33.771873ZM160.88873 33.678123Q160.88873 36.115623 162.01373 37.365623Q163.13873 38.615623 164.87311 38.615623Q166.59186 38.615623 167.70123 37.38125Q168.81061 36.13125 168.81061 33.646873Q168.81061 31.178123 167.73248 29.974998Q166.65436 28.756248 164.87311 28.756248Q163.07623 28.756248 161.98248 29.990623Q160.88873 31.209373 160.88873 33.678123ZM173.76373 36.19375L176.57623 35.9125Q176.84186 37.334373 177.60748 38.00625Q178.38873 38.6625 179.70123 38.6625Q181.10748 38.6625 181.81061 38.06875Q182.51373 37.475 182.51373 36.69375Q182.51373 36.178123 182.21686 35.834373Q181.91998 35.475 181.18561 35.209373Q180.66998 35.021873 178.87311 34.584373Q176.54498 34.00625 175.60748 33.1625Q174.27936 31.974998 174.27936 30.287498Q174.27936 29.193748 174.90436 28.240623Q175.52936 27.287498 176.68561 26.787498Q177.85748 26.287498 179.51373 26.287498Q182.20123 26.287498 183.56061 27.474998Q184.93561 28.646873 184.99811 30.631248L182.10748 30.756248Q181.91998 29.646873 181.31061 29.162498Q180.70123 28.678123 179.48248 28.678123Q178.21686 28.678123 177.51373 29.193748Q177.04498 29.537498 177.04498 30.084373Q177.04498 30.599998 177.48248 30.959373Q178.02936 31.412498 180.13873 31.912498Q182.24811 32.4125 183.24811 32.94375Q184.26373 33.475 184.82623 34.396873Q185.40436 35.31875 185.40436 36.678123Q185.40436 37.9125 184.71686 38.990623Q184.04498 40.053123 182.79498 40.584373Q181.54498 41.1 179.66998 41.1Q176.96686 41.1 175.49811 39.85Q174.04498 38.6 173.76373 36.19375ZM192.76373 36.19375L195.57623 35.9125Q195.84186 37.334373 196.60748 38.00625Q197.38873 38.6625 198.70123 38.6625Q200.10748 38.6625 200.81061 38.06875Q201.51373 37.475 201.51373 36.69375Q201.51373 36.178123 201.21686 35.834373Q200.91998 35.475 200.18561 35.209373Q199.66998 35.021873 197.87311 34.584373Q195.54498 34.00625 194.60748 33.1625Q193.27936 31.974998 193.27936 30.287498Q193.27936 29.193748 193.90436 28.240623Q194.52936 27.287498 195.68561 26.787498Q196.85748 26.287498 198.51373 26.287498Q201.20123 26.287498 202.56061 27.474998Q203.93561 28.646873 203.99811 30.631248L201.10748 30.756248Q200.91998 29.646873 200.31061 29.162498Q199.70123 28.678123 198.48248 28.678123Q197.21686 28.678123 196.51373 29.193748Q196.04498 29.537498 196.04498 30.084373Q196.04498 30.599998 196.48248 30.959373Q197.02936 31.412498 199.13873 31.912498Q201.24811 32.4125 202.24811 32.94375Q203.26373 33.475 203.82623 34.396873Q204.40436 35.31875 204.40436 36.678123Q204.40436 37.9125 203.71686 38.990623Q203.04498 40.053123 201.79498 40.584373Q200.54498 41.1 198.66998 41.1Q195.96686 41.1 194.49811 39.85Q193.04498 38.6 192.76373 36.19375ZM205.91998 33.771873Q205.91998 31.584373 206.57623 30.099998Q207.06061 29.006248 207.90436 28.146873Q208.74811 27.271873 209.74811 26.849998Q211.09186 26.287498 212.84186 26.287498Q215.99811 26.287498 217.88873 28.256248Q219.79498 30.209373 219.79498 33.709373Q219.79498 37.178123 217.90436 39.146873Q216.02936 41.1 212.87311 41.1Q209.68561 41.1 207.79498 39.146873Q205.91998 37.19375 205.91998 33.771873ZM208.88873 33.678123Q208.88873 36.115623 210.01373 37.365623Q211.13873 38.615623 212.87311 38.615623Q214.59186 38.615623 215.70123 37.38125Q216.81061 36.13125 216.81061 33.646873Q216.81061 31.178123 215.73248 29.974998Q214.65436 28.756248 212.87311 28.756248Q211.07623 28.756248 209.98248 29.990623Q208.88873 31.209373 208.88873 33.678123ZM222.51373 26.537498L228.23248 26.537498Q229.93561 26.537498 230.76373 26.678123Q231.60748 26.818748 232.26373 27.271873Q232.91998 27.709373 233.35748 28.459373Q233.79498 29.209373 233.79498 30.131248Q233.79498 31.146873 233.24811 31.990623Q232.71686 32.81875 231.79498 33.240623Q233.09186 33.615623 233.79498 34.5375Q234.49811 35.459373 234.49811 36.69375Q234.49811 37.678123 234.04498 38.6Q233.59186 39.521873 232.81061 40.084373Q232.02936 40.63125 230.87311 40.75625Q230.15436 40.834373 227.38873 40.85L222.51373 40.85L222.51373 26.537498ZM225.40436 28.912498L225.40436 32.225L227.29498 32.225Q228.98248 32.225 229.38873 32.178123Q230.13873 32.084373 230.56061 31.662498Q230.98248 31.240623 230.98248 30.553123Q230.98248 29.881248 230.60748 29.474998Q230.24811 29.053123 229.52936 28.959373Q229.10748 28.912498 227.06061 28.912498L225.40436 28.912498ZM225.40436 34.615623L225.40436 38.44375L228.07623 38.44375Q229.63873 38.44375 230.06061 38.35Q230.70123 38.225 231.10748 37.771873Q231.51373 37.31875 231.51373 36.56875Q231.51373 35.9125 231.20123 35.475Q230.88873 35.021873 230.29498 34.81875Q229.70123 34.615623 227.73248 34.615623L225.40436 34.615623ZM236.51373 40.85L236.51373 26.537498L242.59186 26.537498Q244.88873 26.537498 245.91998 26.928123Q246.96686 27.303123 247.59186 28.287498Q248.21686 29.271873 248.21686 30.553123Q248.21686 32.1625 247.26373 33.209373Q246.32623 34.25625 244.43561 34.5375Q245.37311 35.084373 245.98248 35.740623Q246.59186 36.38125 247.63873 38.053123L249.38873 40.85L245.91998 40.85L243.84186 37.740623Q242.71686 36.06875 242.31061 35.63125Q241.90436 35.19375 241.43561 35.0375Q240.98248 34.865623 239.98248 34.865623L239.40436 34.865623L239.40436 40.85L236.51373 40.85ZM239.40436 32.584373L241.54498 32.584373Q243.62311 32.584373 244.13873 32.4125Q244.65436 32.240623 244.95123 31.818748Q245.24811 31.381248 245.24811 30.724998Q245.24811 30.006248 244.85748 29.568748Q244.46686 29.115623 243.76373 29.006248Q243.41998 28.959373 241.65436 28.959373L239.40436 28.959373L239.40436 32.584373ZM250.49811 40.85L250.49811 26.537498L261.1231 26.537498L261.1231 28.959373L253.38873 28.959373L253.38873 32.13125L260.57623 32.13125L260.57623 34.5375L253.38873 34.5375L253.38873 38.44375L261.38873 38.44375L261.38873 40.85L250.49811 40.85ZM269.51373 40.85L269.51373 26.537498L279.34186 26.537498L279.34186 28.959373L272.40436 28.959373L272.40436 32.35L278.38873 32.35L278.38873 34.771873L272.40436 34.771873L272.40436 40.85L269.51373 40.85ZM281.48248 26.537498L284.3731 26.537498L284.3731 34.2875Q284.3731 36.13125 284.48248 36.678123Q284.66998 37.553123 285.35748 38.084373Q286.0606 38.615623 287.27936 38.615623Q288.4981 38.615623 289.1231 38.115623Q289.7481 37.615623 289.8731 36.88125Q290.01373 36.146873 290.01373 34.459373L290.01373 26.537498L292.90436 26.537498L292.90436 34.053123Q292.90436 36.63125 292.66998 37.69375Q292.4356 38.75625 291.79498 39.490623Q291.16998 40.225 290.10748 40.6625Q289.0606 41.1 287.35748 41.1Q285.3106 41.1 284.2481 40.63125Q283.1856 40.146873 282.57623 39.396873Q281.96686 38.63125 281.76373 37.803123Q281.48248 36.56875 281.48248 34.1625L281.48248 26.537498ZM298.71686 40.85L298.71686 28.959373L294.48248 28.959373L294.48248 26.537498L305.85748 26.537498L305.85748 28.959373L301.60748 28.959373L301.60748 40.85L298.71686 40.85ZM308.4981 40.85L308.4981 26.537498L319.1231 26.537498L319.1231 28.959373L311.38873 28.959373L311.38873 32.13125L318.57623 32.13125L318.57623 34.5375L311.38873 34.5375L311.38873 38.44375L319.38873 38.44375L319.38873 40.85L308.4981 40.85ZM321.51373 26.537498L327.23248 26.537498Q328.9356 26.537498 329.76373 26.678123Q330.60748 26.818748 331.26373 27.271873Q331.91998 27.709373 332.35748 28.459373Q332.79498 29.209373 332.79498 30.131248Q332.79498 31.146873 332.2481 31.990623Q331.71686 32.81875 330.79498 33.240623Q332.09186 33.615623 332.79498 34.5375Q333.4981 35.459373 333.4981 36.69375Q333.4981 37.678123 333.04498 38.6Q332.59186 39.521873 331.8106 40.084373Q331.02936 40.63125 329.8731 40.75625Q329.15436 40.834373 326.38873 40.85L321.51373 40.85L321.51373 26.537498ZM324.40436 28.912498L324.40436 32.225L326.29498 32.225Q327.98248 32.225 328.38873 32.178123Q329.13873 32.084373 329.5606 31.662498Q329.98248 31.240623 329.98248 30.553123Q329.98248 29.881248 329.60748 29.474998Q329.2481 29.053123 328.52936 28.959373Q328.10748 28.912498 326.0606 28.912498L324.40436 28.912498ZM324.40436 34.615623L324.40436 38.44375L327.07623 38.44375Q328.63873 38.44375 329.0606 38.35Q329.70123 38.225 330.10748 37.771873Q330.51373 37.31875 330.51373 36.56875Q330.51373 35.9125 330.20123 35.475Q329.88873 35.021873 329.29498 34.81875Q328.70123 34.615623 326.73248 34.615623L324.40436 34.615623ZM334.91998 33.771873Q334.91998 31.584373 335.57623 30.099998Q336.0606 29.006248 336.90436 28.146873Q337.7481 27.271873 338.7481 26.849998Q340.09186 26.287498 341.84186 26.287498Q344.9981 26.287498 346.88873 28.256248Q348.79498 30.209373 348.79498 33.709373Q348.79498 37.178123 346.90436 39.146873Q345.02936 41.1 341.8731 41.1Q338.6856 41.1 336.79498 39.146873Q334.91998 37.19375 334.91998 33.771873ZM337.88873 33.678123Q337.88873 36.115623 339.01373 37.365623Q340.13873 38.615623 341.8731 38.615623Q343.59186 38.615623 344.70123 37.38125Q345.8106 36.13125 345.8106 33.646873Q345.8106 31.178123 344.73248 29.974998Q343.65436 28.756248 341.8731 28.756248Q340.07623 28.756248 338.98248 29.990623Q337.88873 31.209373 337.88873 33.678123ZM351.57623 40.85L351.57623 26.646873L354.46686 26.646873L354.46686 38.44375L361.65436 38.44375L361.65436 40.85L351.57623 40.85Z" fill-rule="nonzero"/></svg>