<svg version="1.1" viewBox="0.0 0.0 466.0 437.0" fill="none" stroke="none" stroke-linecap="square" stroke-miterlimit="10" width="466" height="437" xmlns:xlink="http://www.w3.org/1999/xlink" xmlns="http://www.w3.org/2000/svg"><path fill="#f8f9fa" d="M0 0L466.0 0L466.0 437.0L0 437.0L0 0Z" fill-rule="nonzero"/><path fill="#a42f25" d="M230.75616 205.12161C232.67363 204.92628 234.60876 204.82823 236.54642 204.82823L236.54642 228.95248C234.60876 228.95248 232.67363 229.05054 230.75616 229.24586Z" fill-rule="nonzero"/><path fill="#ea4335" d="M213.38539 121.566826C221.05525 120.78551 228.79578 120.39331 236.54642 120.39331L236.54642 204.82823C234.60876 204.82823 232.67363 204.92628 230.75616 205.12161Z" fill-rule="nonzero"/><path fill="#2e5dab" d="M397.37485 257.09747C397.37485 319.27362 325.3695 369.67737 236.54642 369.67737C147.72334 369.67737 75.718 319.27362 75.718 257.09747L75.718 232.9732C75.718 295.14935 147.72334 345.5531 236.54642 345.5531C325.3695 345.5531 397.37485 295.14935 397.37485 232.9732Z" fill-rule="nonzero"/><path fill="#2e5dab" d="M236.54642 204.82823C258.7522 204.82823 276.75354 217.42917 276.75354 232.9732L276.75354 257.09747C276.75354 241.55342 258.7522 228.95248 236.54642 228.95248Z" fill-rule="nonzero"/><path fill="#2e5dab" d="M196.33932 232.9732C196.33932 218.9948 210.99518 207.13464 230.75616 205.12161L230.75616 229.24586C210.99518 231.25891 196.33932 243.11906 196.33932 257.09747Z" fill-rule="nonzero"/><path fill="#4285f4" d="M236.54642 120.39331C323.10876 120.39331 394.14322 168.35266 397.2699 228.90677C400.39658 289.46088 334.4937 340.88486 248.15723 345.25934C161.82076 349.63382 86.02543 305.38937 76.66173 245.15129C67.298035 184.91321 127.72536 130.29297 213.38539 121.566826L230.75616 205.12161C209.34116 207.30315 194.23433 220.9582 196.57526 236.01773C198.91617 251.07724 217.865 262.13837 239.44913 261.04474C261.03323 259.9511 277.50897 247.09512 276.7273 231.95659C275.94562 216.81807 258.187 204.82823 236.54642 204.82823Z" fill-rule="nonzero"/><path fill="#4285f4" d="M100.5 423.54813C100.5 426.86185 97.813705 429.54813 94.5 429.54813C91.186295 429.54813 88.5 426.86185 88.5 423.54813C88.5 420.23444 91.186295 417.54813 94.5 417.54813C97.813705 417.54813 100.5 420.23444 100.5 423.54813Z" fill-rule="nonzero"/><path fill="#000000" d="M109.234375 426.39188L111.359375 426.1575Q111.4375 426.81375 111.765625 427.12625Q112.09375 427.43875 112.625 427.43875Q113.3125 427.43875 113.78125 426.81375Q114.265625 426.18875 114.390625 424.22Q113.5625 425.17313 112.328125 425.17313Q110.96875 425.17313 109.984375 424.14188Q109.015625 423.095 109.015625 421.42313Q109.015625 419.67313 110.046875 418.61063Q111.078125 417.54813 112.6875 417.54813Q114.421875 417.54813 115.53125 418.89188Q116.65625 420.23563 116.65625 423.32938Q116.65625 426.47 115.484375 427.86063Q114.328125 429.25125 112.46875 429.25125Q111.125 429.25125 110.296875 428.5325Q109.46875 427.81375 109.234375 426.39188ZM114.203125 421.595Q114.203125 420.5325 113.703125 419.95438Q113.21875 419.36063 112.578125 419.36063Q111.96875 419.36063 111.5625 419.845Q111.171875 420.32938 111.171875 421.42313Q111.171875 422.5325 111.609375 423.04813Q112.046875 423.56375 112.703125 423.56375Q113.328125 423.56375 113.765625 423.06375Q114.203125 422.56375 114.203125 421.595ZM118.1875 419.7825L118.1875 417.75125L125.6875 417.75125L125.6875 419.345Q124.765625 420.25125 123.796875 421.97Q122.84375 423.67313 122.328125 425.61063Q121.828125 427.5325 121.84375 429.04813L119.71875 429.04813Q119.78125 426.67313 120.703125 424.20438Q121.625 421.73563 123.171875 419.7825L118.1875 419.7825ZM127.59375 426.845L129.79688 426.845L129.79688 428.42313Q129.79688 429.37625 129.625 429.92313Q129.46875 430.48563 129.0 430.92313Q128.54688 431.36063 127.84375 431.61063L127.421875 430.70438Q128.07812 430.48563 128.35938 430.095Q128.64062 429.72 128.65625 429.04813L127.59375 429.04813L127.59375 426.845ZM131.1875 419.7825L131.1875 417.75125L138.6875 417.75125L138.6875 419.345Q137.76562 420.25125 136.79688 421.97Q135.84375 423.67313 135.32812 425.61063Q134.82812 427.5325 134.84375 429.04813L132.71875 429.04813Q132.78125 426.67313 133.70312 424.20438Q134.625 421.73563 136.17188 419.7825L131.1875 419.7825ZM144.64062 429.04813L144.64062 417.595L148.09375 417.595L150.17188 425.4075L152.23438 417.595L155.70312 417.595L155.70312 429.04813L153.54688 429.04813L153.54688 420.0325L151.28125 429.04813L149.04688 429.04813L146.78125 420.0325L146.78125 429.04813L144.64062 429.04813ZM159.29688 423.2825L157.29688 422.92313Q157.64062 421.72 158.45312 421.14188Q159.28125 420.56375 160.89062 420.56375Q162.35938 420.56375 163.07812 420.9075Q163.79688 421.25125 164.09375 421.79813Q164.39062 422.32938 164.39062 423.75125L164.35938 426.31375Q164.35938 427.4075 164.46875 427.93875Q164.57812 428.45438 164.85938 429.04813L162.6875 429.04813Q162.60938 428.82938 162.48438 428.39188Q162.42188 428.20438 162.40625 428.14188Q161.84375 428.68875 161.20312 428.97Q160.5625 429.23563 159.82812 429.23563Q158.54688 429.23563 157.8125 428.54813Q157.07812 427.845 157.07812 426.7825Q157.07812 426.07938 157.40625 425.5325Q157.75 424.97 158.34375 424.68875Q158.95312 424.39188 160.09375 424.17313Q161.64062 423.87625 162.23438 423.62625L162.23438 423.4075Q162.23438 422.7825 161.92188 422.51688Q161.60938 422.23563 160.73438 422.23563Q160.15625 422.23563 159.82812 422.47Q159.5 422.70438 159.29688 423.2825ZM162.23438 425.06375Q161.8125 425.20438 160.89062 425.4075Q159.98438 425.595 159.70312 425.7825Q159.26562 426.07938 159.26562 426.54813Q159.26562 427.01688 159.60938 427.36063Q159.95312 427.68875 160.48438 427.68875Q161.07812 427.68875 161.625 427.29813Q162.01562 427.00125 162.14062 426.56375Q162.23438 426.2825 162.23438 425.50125L162.23438 425.06375ZM165.875 426.67313L168.07812 426.345Q168.21875 426.98563 168.64062 427.31375Q169.07812 427.64188 169.85938 427.64188Q170.70312 427.64188 171.14062 427.32938Q171.42188 427.11063 171.42188 426.75125Q171.42188 426.50125 171.26562 426.32938Q171.10938 426.17313 170.53125 426.04813Q167.875 425.45438 167.17188 424.97Q166.1875 424.29813 166.1875 423.11063Q166.1875 422.0325 167.03125 421.29813Q167.89062 420.56375 169.67188 420.56375Q171.375 420.56375 172.20312 421.12625Q173.03125 421.67313 173.34375 422.75125L171.28125 423.14188Q171.14062 422.6575 170.76562 422.4075Q170.40625 422.14188 169.71875 422.14188Q168.84375 422.14188 168.46875 422.37625Q168.21875 422.54813 168.21875 422.82938Q168.21875 423.06375 168.4375 423.22Q168.73438 423.43875 170.48438 423.845Q172.25 424.23563 172.9375 424.81375Q173.625 425.4075 173.625 426.45438Q173.625 427.595 172.67188 428.42313Q171.71875 429.23563 169.85938 429.23563Q168.15625 429.23563 167.17188 428.54813Q166.1875 427.86063 165.875 426.67313ZM182.89062 423.20438L180.71875 423.595Q180.60938 422.93875 180.21875 422.61063Q179.84375 422.2825 179.21875 422.2825Q178.40625 422.2825 177.90625 422.86063Q177.42188 423.42313 177.42188 424.75125Q177.42188 426.22 177.92188 426.82938Q178.42188 427.43875 179.25 427.43875Q179.875 427.43875 180.26562 427.095Q180.67188 426.73563 180.84375 425.86063L183.0 426.23563Q182.65625 427.72 181.70312 428.48563Q180.75 429.23563 179.15625 429.23563Q177.32812 429.23563 176.25 428.095Q175.17188 426.93875 175.17188 424.9075Q175.17188 422.845 176.25 421.70438Q177.34375 420.56375 179.1875 420.56375Q180.70312 420.56375 181.59375 421.22Q182.5 421.86063 182.89062 423.20438ZM190.10938 429.04813L190.10938 427.79813Q189.65625 428.47 188.92188 428.86063Q188.1875 429.23563 187.35938 429.23563Q186.53125 429.23563 185.85938 428.87625Q185.20312 428.50125 184.90625 427.845Q184.60938 427.17313 184.60938 426.00125L184.60938 420.75125L186.79688 420.75125L186.79688 424.56375Q186.79688 426.31375 186.92188 426.70438Q187.04688 427.095 187.35938 427.32938Q187.6875 427.56375 188.17188 427.56375Q188.73438 427.56375 189.17188 427.25125Q189.625 426.93875 189.78125 426.48563Q189.95312 426.0325 189.95312 424.25125L189.95312 420.75125L192.15625 420.75125L192.15625 429.04813L190.10938 429.04813ZM194.65625 429.04813L194.65625 417.595L196.84375 417.595L196.84375 429.04813L194.65625 429.04813ZM198.65625 419.62625L198.65625 417.595L200.84375 417.595L200.84375 419.62625L198.65625 419.62625ZM198.65625 429.04813L198.65625 420.75125L200.84375 420.75125L200.84375 429.04813L198.65625 429.04813ZM210.20312 429.04813L208.0 429.04813L208.0 424.81375Q208.0 423.47 207.85938 423.07938Q207.71875 422.67313 207.40625 422.45438Q207.09375 422.23563 206.64062 422.23563Q206.07812 422.23563 205.625 422.54813Q205.17188 422.86063 205.0 423.37625Q204.82812 423.89188 204.82812 425.2825L204.82812 429.04813L202.64062 429.04813L202.64062 420.75125L204.67188 420.75125L204.67188 421.97Q205.76562 420.56375 207.40625 420.56375Q208.14062 420.56375 208.73438 420.82938Q209.34375 421.07938 209.64062 421.48563Q209.95312 421.89188 210.07812 422.4075Q210.20312 422.92313 210.20312 423.89188L210.20312 429.04813ZM212.14062 424.7825Q212.14062 423.68875 212.67188 422.67313Q213.21875 421.64188 214.20312 421.11063Q215.20312 420.56375 216.42188 420.56375Q218.29688 420.56375 219.5 421.7825Q220.70312 423.00125 220.70312 424.87625Q220.70312 426.75125 219.48438 428.00125Q218.28125 429.23563 216.4375 429.23563Q215.29688 429.23563 214.25 428.72Q213.21875 428.20438 212.67188 427.20438Q212.14062 426.20438 212.14062 424.7825ZM214.39062 424.89188Q214.39062 426.12625 214.96875 426.7825Q215.5625 427.43875 216.42188 427.43875Q217.28125 427.43875 217.85938 426.7825Q218.45312 426.12625 218.45312 424.87625Q218.45312 423.6575 217.85938 423.00125Q217.28125 422.345 216.42188 422.345Q215.5625 422.345 214.96875 423.00125Q214.39062 423.6575 214.39062 424.89188ZM221.875 426.67313L224.07812 426.345Q224.21875 426.98563 224.64062 427.31375Q225.07812 427.64188 225.85938 427.64188Q226.70312 427.64188 227.14062 427.32938Q227.42188 427.11063 227.42188 426.75125Q227.42188 426.50125 227.26562 426.32938Q227.10938 426.17313 226.53125 426.04813Q223.875 425.45438 223.17188 424.97Q222.1875 424.29813 222.1875 423.11063Q222.1875 422.0325 223.03125 421.29813Q223.89062 420.56375 225.67188 420.56375Q227.375 420.56375 228.20312 421.12625Q229.03125 421.67313 229.34375 422.75125L227.28125 423.14188Q227.14062 422.6575 226.76562 422.4075Q226.40625 422.14188 225.71875 422.14188Q224.84375 422.14188 224.46875 422.37625Q224.21875 422.54813 224.21875 422.82938Q224.21875 423.06375 224.4375 423.22Q224.73438 423.43875 226.48438 423.845Q228.25 424.23563 228.9375 424.81375Q229.625 425.4075 229.625 426.45438Q229.625 427.595 228.67188 428.42313Q227.71875 429.23563 225.85938 429.23563Q224.15625 429.23563 223.17188 428.54813Q222.1875 427.86063 221.875 426.67313Z" fill-rule="nonzero"/><path fill="#ea4335" d="M258.5 423.54813C258.5 426.86185 255.8137 429.54813 252.5 429.54813C249.1863 429.54813 246.5 426.86185 246.5 423.54813C246.5 420.23444 249.1863 417.54813 252.5 417.54813C255.8137 417.54813 258.5 420.23444 258.5 423.54813Z" fill-rule="nonzero"/><path fill="#000000" d="M274.59375 427.00125L274.59375 429.04813L266.90625 429.04813Q267.03125 427.89188 267.65625 426.86063Q268.28125 425.81375 270.125 424.11063Q271.60938 422.72 271.9375 422.23563Q272.39062 421.54813 272.39062 420.89188Q272.39062 420.1575 272.0 419.76688Q271.60938 419.36063 270.90625 419.36063Q270.21875 419.36063 269.8125 419.7825Q269.40625 420.18875 269.34375 421.1575L267.15625 420.93875Q267.35938 419.12625 268.39062 418.345Q269.42188 417.54813 270.96875 417.54813Q272.65625 417.54813 273.625 418.47Q274.59375 419.37625 274.59375 420.73563Q274.59375 421.50125 274.3125 422.20438Q274.04688 422.9075 273.4375 423.67313Q273.04688 424.17313 272.0 425.12625Q270.96875 426.07938 270.6875 426.39188Q270.40625 426.70438 270.23438 427.00125L274.59375 427.00125ZM276.59375 426.845L278.79688 426.845L278.79688 428.42313Q278.79688 429.37625 278.625 429.92313Q278.46875 430.48563 278.0 430.92313Q277.54688 431.36063 276.84375 431.61063L276.42188 430.70438Q277.07812 430.48563 277.35938 430.095Q277.64062 429.72 277.65625 429.04813L276.59375 429.04813L276.59375 426.845ZM280.10938 426.00125L282.23438 425.75125Q282.32812 426.56375 282.76562 427.00125Q283.21875 427.42313 283.85938 427.42313Q284.53125 427.42313 285.0 426.9075Q285.46875 426.39188 285.46875 425.51688Q285.46875 424.68875 285.01562 424.20438Q284.57812 423.72 283.9375 423.72Q283.51562 423.72 282.92188 423.87625L283.17188 422.095Q284.0625 422.11063 284.53125 421.70438Q285.0 421.29813 285.0 420.61063Q285.0 420.0325 284.65625 419.68875Q284.3125 419.345 283.73438 419.345Q283.17188 419.345 282.76562 419.73563Q282.375 420.12625 282.29688 420.87625L280.26562 420.5325Q280.48438 419.50125 280.90625 418.87625Q281.32812 418.25125 282.09375 417.9075Q282.85938 417.54813 283.79688 417.54813Q285.42188 417.54813 286.39062 418.57938Q287.20312 419.42313 287.20312 420.48563Q287.20312 421.98563 285.54688 422.89188Q286.53125 423.095 287.125 423.82938Q287.71875 424.56375 287.71875 425.61063Q287.71875 427.11063 286.60938 428.18875Q285.51562 429.25125 283.875 429.25125Q282.3125 429.25125 281.28125 428.36063Q280.26562 427.45438 280.10938 426.00125ZM293.6875 429.04813L293.6875 417.595L301.53125 417.595L301.53125 419.5325L296.0 419.5325L296.0 422.23563L300.78125 422.23563L300.78125 424.17313L296.0 424.17313L296.0 429.04813L293.6875 429.04813ZM308.45312 426.4075L310.64062 426.76688Q310.21875 427.97 309.3125 428.61063Q308.40625 429.23563 307.03125 429.23563Q304.875 429.23563 303.82812 427.81375Q303.01562 426.68875 303.01562 424.95438Q303.01562 422.89188 304.09375 421.73563Q305.17188 420.56375 306.8125 420.56375Q308.67188 420.56375 309.73438 421.7825Q310.8125 423.00125 310.76562 425.5325L305.26562 425.5325Q305.28125 426.50125 305.78125 427.04813Q306.29688 427.595 307.0625 427.595Q307.57812 427.595 307.92188 427.31375Q308.28125 427.0325 308.45312 426.4075ZM308.57812 424.18875Q308.5625 423.23563 308.09375 422.73563Q307.625 422.23563 306.95312 422.23563Q306.23438 422.23563 305.76562 422.76688Q305.29688 423.2825 305.29688 424.18875L308.57812 424.18875ZM312.48438 420.75125L314.51562 420.75125L314.51562 421.87625Q315.59375 420.56375 317.09375 420.56375Q317.89062 420.56375 318.46875 420.89188Q319.0625 421.22 319.4375 421.87625Q319.98438 421.22 320.60938 420.89188Q321.25 420.56375 321.96875 420.56375Q322.89062 420.56375 323.51562 420.93875Q324.15625 421.29813 324.46875 422.01688Q324.6875 422.54813 324.6875 423.73563L324.6875 429.04813L322.5 429.04813L322.5 424.29813Q322.5 423.06375 322.26562 422.70438Q321.96875 422.23563 321.32812 422.23563Q320.875 422.23563 320.46875 422.51688Q320.0625 422.79813 319.875 423.345Q319.70312 423.89188 319.70312 425.06375L319.70312 429.04813L317.5 429.04813L317.5 424.50125Q317.5 423.2825 317.375 422.93875Q317.26562 422.57938 317.01562 422.4075Q316.78125 422.23563 316.35938 422.23563Q315.84375 422.23563 315.4375 422.51688Q315.03125 422.7825 314.85938 423.29813Q314.6875 423.81375 314.6875 425.01688L314.6875 429.04813L312.48438 429.04813L312.48438 420.75125ZM331.45312 426.4075L333.64062 426.76688Q333.21875 427.97 332.3125 428.61063Q331.40625 429.23563 330.03125 429.23563Q327.875 429.23563 326.82812 427.81375Q326.01562 426.68875 326.01562 424.95438Q326.01562 422.89188 327.09375 421.73563Q328.17188 420.56375 329.8125 420.56375Q331.67188 420.56375 332.73438 421.7825Q333.8125 423.00125 333.76562 425.5325L328.26562 425.5325Q328.28125 426.50125 328.78125 427.04813Q329.29688 427.595 330.0625 427.595Q330.57812 427.595 330.92188 427.31375Q331.28125 427.0325 331.45312 426.4075ZM331.57812 424.18875Q331.5625 423.23563 331.09375 422.73563Q330.625 422.23563 329.95312 422.23563Q329.23438 422.23563 328.76562 422.76688Q328.29688 423.2825 328.29688 424.18875L331.57812 424.18875ZM343.20312 429.04813L341.0 429.04813L341.0 424.81375Q341.0 423.47 340.85938 423.07938Q340.71875 422.67313 340.40625 422.45438Q340.09375 422.23563 339.64062 422.23563Q339.07812 422.23563 338.625 422.54813Q338.17188 422.86063 338.0 423.37625Q337.82812 423.89188 337.82812 425.2825L337.82812 429.04813L335.64062 429.04813L335.64062 420.75125L337.67188 420.75125L337.67188 421.97Q338.76562 420.56375 340.40625 420.56375Q341.14062 420.56375 341.73438 420.82938Q342.34375 421.07938 342.64062 421.48563Q342.95312 421.89188 343.07812 422.4075Q343.20312 422.92313 343.20312 423.89188L343.20312 429.04813ZM345.65625 419.62625L345.65625 417.595L347.84375 417.595L347.84375 419.62625L345.65625 419.62625ZM345.65625 429.04813L345.65625 420.75125L347.84375 420.75125L347.84375 429.04813L345.65625 429.04813ZM357.20312 429.04813L355.0 429.04813L355.0 424.81375Q355.0 423.47 354.85938 423.07938Q354.71875 422.67313 354.40625 422.45438Q354.09375 422.23563 353.64062 422.23563Q353.07812 422.23563 352.625 422.54813Q352.17188 422.86063 352.0 423.37625Q351.82812 423.89188 351.82812 425.2825L351.82812 429.04813L349.64062 429.04813L349.64062 420.75125L351.67188 420.75125L351.67188 421.97Q352.76562 420.56375 354.40625 420.56375Q355.14062 420.56375 355.73438 420.82938Q356.34375 421.07938 356.64062 421.48563Q356.95312 421.89188 357.07812 422.4075Q357.20312 422.92313 357.20312 423.89188L357.20312 429.04813ZM359.14062 424.7825Q359.14062 423.68875 359.67188 422.67313Q360.21875 421.64188 361.20312 421.11063Q362.20312 420.56375 363.42188 420.56375Q365.29688 420.56375 366.5 421.7825Q367.70312 423.00125 367.70312 424.87625Q367.70312 426.75125 366.48438 428.00125Q365.28125 429.23563 363.4375 429.23563Q362.29688 429.23563 361.25 428.72Q360.21875 428.20438 359.67188 427.20438Q359.14062 426.20438 359.14062 424.7825ZM361.39062 424.89188Q361.39062 426.12625 361.96875 426.7825Q362.5625 427.43875 363.42188 427.43875Q364.28125 427.43875 364.85938 426.7825Q365.45312 426.12625 365.45312 424.87625Q365.45312 423.6575 364.85938 423.00125Q364.28125 422.345 363.42188 422.345Q362.5625 422.345 361.96875 423.00125Q361.39062 423.6575 361.39062 424.89188ZM368.875 426.67313L371.07812 426.345Q371.21875 426.98563 371.64062 427.31375Q372.07812 427.64188 372.85938 427.64188Q373.70312 427.64188 374.14062 427.32938Q374.42188 427.11063 374.42188 426.75125Q374.42188 426.50125 374.26562 426.32938Q374.10938 426.17313 373.53125 426.04813Q370.875 425.45438 370.17188 424.97Q369.1875 424.29813 369.1875 423.11063Q369.1875 422.0325 370.03125 421.29813Q370.89062 420.56375 372.67188 420.56375Q374.375 420.56375 375.20312 421.12625Q376.03125 421.67313 376.34375 422.75125L374.28125 423.14188Q374.14062 422.6575 373.76562 422.4075Q373.40625 422.14188 372.71875 422.14188Q371.84375 422.14188 371.46875 422.37625Q371.21875 422.54813 371.21875 422.82938Q371.21875 423.06375 371.4375 423.22Q371.73438 423.43875 373.48438 423.845Q375.25 424.23563 375.9375 424.81375Q376.625 425.4075 376.625 426.45438Q376.625 427.595 375.67188 428.42313Q374.71875 429.23563 372.85938 429.23563Q371.15625 429.23563 370.17188 428.54813Q369.1875 427.86063 368.875 426.67313Z" fill-rule="nonzero"/><path fill="#000000" d="M175.98438 66.35L179.82812 56.334373L181.25 56.334373L185.35938 66.35L183.84375 66.35L182.67188 63.31875L178.48438 63.31875L177.39062 66.35L175.98438 66.35ZM178.875 62.240623L182.26562 62.240623L181.21875 59.459373Q180.75 58.19375 180.51562 57.38125Q180.32812 58.35 179.96875 59.2875L178.875 62.240623ZM186.0625 66.35L186.0625 56.334373L187.42188 56.334373L192.6875 64.19375L192.6875 56.334373L193.96875 56.334373L193.96875 66.35L192.60938 66.35L187.34375 58.475L187.34375 66.35L186.0625 66.35ZM194.67188 61.475Q194.67188 58.975 196.01562 57.56875Q197.35938 56.146873 199.46875 56.146873Q200.85938 56.146873 201.96875 56.81875Q203.09375 57.475 203.67188 58.6625Q204.26562 59.85 204.26562 61.35Q204.26562 62.88125 203.64062 64.08437Q203.03125 65.2875 201.90625 65.9125Q200.78125 66.52187 199.46875 66.52187Q198.04688 66.52187 196.9375 65.83437Q195.82812 65.14687 195.25 63.975Q194.67188 62.7875 194.67188 61.475ZM196.04688 61.490623Q196.04688 63.303123 197.01562 64.35Q198.0 65.38125 199.46875 65.38125Q200.95312 65.38125 201.92188 64.33437Q202.89062 63.2875 202.89062 61.35Q202.89062 60.115623 202.46875 59.209373Q202.0625 58.303123 201.26562 57.803123Q200.46875 57.2875 199.48438 57.2875Q198.07812 57.2875 197.0625 58.25625Q196.04688 59.225 196.04688 61.490623ZM206.26562 60.490623L206.26562 59.084373L207.67188 59.084373L207.67188 60.490623L206.26562 60.490623ZM206.26562 66.35L206.26562 64.94375L207.67188 64.94375L207.67188 66.35L206.26562 66.35ZM220.04688 65.1625L220.04688 66.35L213.42188 66.35Q213.40625 65.9125 213.5625 65.49062Q213.82812 64.81875 214.375 64.1625Q214.9375 63.50625 215.98438 62.646873Q217.625 61.303123 218.1875 60.521873Q218.76562 59.740623 218.76562 59.0375Q218.76562 58.303123 218.23438 57.803123Q217.71875 57.303123 216.89062 57.303123Q216.0 57.303123 215.45312 57.834373Q214.92188 58.365623 214.92188 59.31875L213.65625 59.178123Q213.78125 57.771873 214.625 57.0375Q215.48438 56.2875 216.90625 56.2875Q218.35938 56.2875 219.1875 57.084373Q220.03125 57.88125 220.03125 59.06875Q220.03125 59.678123 219.78125 60.25625Q219.54688 60.834373 218.96875 61.475Q218.40625 62.115623 217.07812 63.240623Q215.96875 64.1625 215.65625 64.50625Q215.34375 64.83437 215.14062 65.1625L220.04688 65.1625ZM221.57812 61.4125Q221.57812 59.63125 221.9375 58.553123Q222.3125 57.459373 223.03125 56.88125Q223.75 56.2875 224.84375 56.2875Q225.65625 56.2875 226.26562 56.615623Q226.875 56.94375 227.26562 57.553123Q227.67188 58.1625 227.89062 59.0375Q228.10938 59.9125 228.10938 61.4125Q228.10938 63.178123 227.75 64.25625Q227.39062 65.33437 226.67188 65.92812Q225.95312 66.52187 224.84375 66.52187Q223.40625 66.52187 222.57812 65.475Q221.57812 64.225 221.57812 61.4125ZM222.84375 61.4125Q222.84375 63.88125 223.42188 64.69375Q224.0 65.50625 224.84375 65.50625Q225.70312 65.50625 226.28125 64.69375Q226.85938 63.865623 226.85938 61.4125Q226.85938 58.928123 226.28125 58.115623Q225.70312 57.303123 224.82812 57.303123Q223.98438 57.303123 223.48438 58.021873Q222.84375 58.94375 222.84375 61.4125ZM234.21875 66.35L232.98438 66.35L232.98438 58.50625Q232.54688 58.928123 231.8125 59.365623Q231.09375 59.7875 230.53125 59.990623L230.53125 58.803123Q231.5625 58.31875 232.32812 57.63125Q233.10938 56.94375 233.42188 56.2875L234.21875 56.2875L234.21875 66.35ZM241.53125 66.35L241.53125 63.94375L237.17188 63.94375L237.17188 62.81875L241.75 56.334373L242.75 56.334373L242.75 62.81875L244.10938 62.81875L244.10938 63.94375L242.75 63.94375L242.75 66.35L241.53125 66.35ZM241.53125 62.81875L241.53125 58.303123L238.39062 62.81875L241.53125 62.81875ZM249.4375 63.334373L249.4375 62.1L253.21875 62.1L253.21875 63.334373L249.4375 63.334373ZM265.04688 65.1625L265.04688 66.35L258.42188 66.35Q258.40625 65.9125 258.5625 65.49062Q258.82812 64.81875 259.375 64.1625Q259.9375 63.50625 260.98438 62.646873Q262.625 61.303123 263.1875 60.521873Q263.76562 59.740623 263.76562 59.0375Q263.76562 58.303123 263.23438 57.803123Q262.71875 57.303123 261.89062 57.303123Q261.0 57.303123 260.45312 57.834373Q259.92188 58.365623 259.92188 59.31875L258.65625 59.178123Q258.78125 57.771873 259.625 57.0375Q260.48438 56.2875 261.90625 56.2875Q263.35938 56.2875 264.1875 57.084373Q265.03125 57.88125 265.03125 59.06875Q265.03125 59.678123 264.78125 60.25625Q264.54688 60.834373 263.96875 61.475Q263.40625 62.115623 262.07812 63.240623Q260.96875 64.1625 260.65625 64.50625Q260.34375 64.83437 260.14062 65.1625L265.04688 65.1625ZM266.57812 61.4125Q266.57812 59.63125 266.9375 58.553123Q267.3125 57.459373 268.03125 56.88125Q268.75 56.2875 269.84375 56.2875Q270.65625 56.2875 271.26562 56.615623Q271.875 56.94375 272.26562 57.553123Q272.67188 58.1625 272.89062 59.0375Q273.10938 59.9125 273.10938 61.4125Q273.10938 63.178123 272.75 64.25625Q272.39062 65.33437 271.67188 65.92812Q270.95312 66.52187 269.84375 66.52187Q268.40625 66.52187 267.57812 65.475Q266.57812 64.225 266.57812 61.4125ZM267.84375 61.4125Q267.84375 63.88125 268.42188 64.69375Q269.0 65.50625 269.84375 65.50625Q270.70312 65.50625 271.28125 64.69375Q271.85938 63.865623 271.85938 61.4125Q271.85938 58.928123 271.28125 58.115623Q270.70312 57.303123 269.82812 57.303123Q268.98438 57.303123 268.48438 58.021873Q267.84375 58.94375 267.84375 61.4125ZM281.04688 65.1625L281.04688 66.35L274.42188 66.35Q274.40625 65.9125 274.5625 65.49062Q274.82812 64.81875 275.375 64.1625Q275.9375 63.50625 276.98438 62.646873Q278.625 61.303123 279.1875 60.521873Q279.76562 59.740623 279.76562 59.0375Q279.76562 58.303123 279.23438 57.803123Q278.71875 57.303123 277.89062 57.303123Q277.0 57.303123 276.45312 57.834373Q275.92188 58.365623 275.92188 59.31875L274.65625 59.178123Q274.78125 57.771873 275.625 57.0375Q276.48438 56.2875 277.90625 56.2875Q279.35938 56.2875 280.1875 57.084373Q281.03125 57.88125 281.03125 59.06875Q281.03125 59.678123 280.78125 60.25625Q280.54688 60.834373 279.96875 61.475Q279.40625 62.115623 278.07812 63.240623Q276.96875 64.1625 276.65625 64.50625Q276.34375 64.83437 276.14062 65.1625L281.04688 65.1625ZM282.57812 63.725L283.875 63.615623Q284.01562 64.55312 284.53125 65.0375Q285.0625 65.50625 285.79688 65.50625Q286.6875 65.50625 287.29688 64.83437Q287.92188 64.1625 287.92188 63.06875Q287.92188 62.00625 287.32812 61.396873Q286.73438 60.7875 285.78125 60.7875Q285.1875 60.7875 284.70312 61.06875Q284.23438 61.334373 283.95312 61.75625L282.79688 61.615623L283.76562 56.459373L288.75 56.459373L288.75 57.646873L284.75 57.646873L284.21875 60.334373Q285.125 59.709373 286.10938 59.709373Q287.42188 59.709373 288.3125 60.615623Q289.21875 61.521873 289.21875 62.959373Q289.21875 64.31875 288.4375 65.30312Q287.46875 66.52187 285.79688 66.52187Q284.4375 66.52187 283.5625 65.75625Q282.70312 64.99062 282.57812 63.725Z" fill-rule="nonzero"/><path fill="#000000" d="M95.1231 40.85L95.1231 26.537498L105.482475 26.537498L105.482475 28.224998L97.02935 28.224998L97.02935 32.6L104.9356 32.6L104.9356 34.2875L97.02935 34.2875L97.02935 39.1625L105.8106 39.1625L105.8106 40.85L95.1231 40.85ZM107.451225 36.25625L109.232475 36.1Q109.357475 37.1625 109.8106 37.85Q110.27935 38.5375 111.2481 38.975Q112.232475 39.396873 113.46685 39.396873Q114.544975 39.396873 115.3731 39.084373Q116.201225 38.75625 116.607475 38.19375Q117.013725 37.63125 117.013725 36.959373Q117.013725 36.2875 116.6231 35.7875Q116.232475 35.2875 115.34185 34.94375Q114.763725 34.709373 112.77935 34.240623Q110.8106 33.771873 110.02935 33.35Q108.9981 32.81875 108.4981 32.021873Q107.9981 31.224998 107.9981 30.240623Q107.9981 29.146873 108.607475 28.209373Q109.21685 27.271873 110.40435 26.787498Q111.59185 26.287498 113.02935 26.287498Q114.6231 26.287498 115.84185 26.803123Q117.0606 27.318748 117.701225 28.318748Q118.357475 29.303123 118.40435 30.568748L116.59185 30.709373Q116.451225 29.349998 115.607475 28.662498Q114.763725 27.959373 113.107475 27.959373Q111.388725 27.959373 110.59185 28.599998Q109.8106 29.224998 109.8106 30.099998Q109.8106 30.881248 110.3731 31.381248Q110.919975 31.881248 113.232475 32.396873Q115.544975 32.9125 116.40435 33.303123Q117.65435 33.88125 118.2481 34.771873Q118.84185 35.646873 118.84185 36.803123Q118.84185 37.94375 118.1856 38.959373Q117.52935 39.975 116.294975 40.5375Q115.076225 41.1 113.544975 41.1Q111.607475 41.1 110.294975 40.5375Q108.982475 39.959373 108.232475 38.81875Q107.482475 37.678123 107.451225 36.25625ZM124.732475 40.85L124.732475 28.224998L120.013725 28.224998L120.013725 26.537498L131.35748 26.537498L131.35748 28.224998L126.6231 28.224998L126.6231 40.85L124.732475 40.85ZM142.48248 26.537498L144.37311 26.537498L144.37311 34.803123Q144.37311 36.959373 143.88873 38.240623Q143.40436 39.50625 142.12311 40.303123Q140.85748 41.1 138.77936 41.1Q136.76373 41.1 135.48248 40.4125Q134.21686 39.709373 133.66998 38.396873Q133.12311 37.084373 133.12311 34.803123L133.12311 26.537498L135.01373 26.537498L135.01373 34.7875Q135.01373 36.6625 135.35748 37.553123Q135.70123 38.428123 136.54498 38.9125Q137.38873 39.38125 138.62311 39.38125Q140.70123 39.38125 141.59186 38.44375Q142.48248 37.490623 142.48248 34.7875L142.48248 26.537498ZM146.09186 40.85L146.09186 26.537498L151.01373 26.537498Q152.68561 26.537498 153.57623 26.740623Q154.79498 27.021873 155.66998 27.756248Q156.79498 28.724998 157.35748 30.209373Q157.91998 31.693748 157.91998 33.615623Q157.91998 35.240623 157.54498 36.50625Q157.16998 37.75625 156.56061 38.584373Q155.96686 39.4125 155.26373 39.896873Q154.56061 40.365623 153.56061 40.615623Q152.56061 40.85 151.24811 40.85L146.09186 40.85ZM147.98248 39.1625L151.04498 39.1625Q152.45123 39.1625 153.24811 38.896873Q154.06061 38.63125 154.54498 38.146873Q155.21686 37.475 155.59186 36.35Q155.96686 35.209373 155.96686 33.584373Q155.96686 31.334373 155.23248 30.131248Q154.49811 28.928123 153.43561 28.521873Q152.68561 28.224998 150.99811 28.224998L147.98248 28.224998L147.98248 39.1625ZM159.51373 33.88125Q159.51373 30.318748 161.41998 28.303123Q163.34186 26.271873 166.37311 26.271873Q168.35748 26.271873 169.93561 27.224998Q171.52936 28.178123 172.35748 29.881248Q173.20123 31.568748 173.20123 33.709373Q173.20123 35.88125 172.32623 37.6Q171.45123 39.31875 169.82623 40.209373Q168.21686 41.1 166.35748 41.1Q164.34186 41.1 162.74811 40.13125Q161.15436 39.146873 160.32623 37.459373Q159.51373 35.75625 159.51373 33.88125ZM161.46686 33.9125Q161.46686 36.490623 162.85748 37.990623Q164.24811 39.475 166.34186 39.475Q168.48248 39.475 169.85748 37.975Q171.24811 36.459373 171.24811 33.69375Q171.24811 31.959373 170.65436 30.662498Q170.07623 29.349998 168.93561 28.631248Q167.79498 27.912498 166.37311 27.912498Q164.37311 27.912498 162.91998 29.303123Q161.46686 30.678123 161.46686 33.9125ZM175.45123 36.25625L177.23248 36.1Q177.35748 37.1625 177.81061 37.85Q178.27936 38.5375 179.24811 38.975Q180.23248 39.396873 181.46686 39.396873Q182.54498 39.396873 183.37311 39.084373Q184.20123 38.75625 184.60748 38.19375Q185.01373 37.63125 185.01373 36.959373Q185.01373 36.2875 184.62311 35.7875Q184.23248 35.2875 183.34186 34.94375Q182.76373 34.709373 180.77936 34.240623Q178.81061 33.771873 178.02936 33.35Q176.99811 32.81875 176.49811 32.021873Q175.99811 31.224998 175.99811 30.240623Q175.99811 29.146873 176.60748 28.209373Q177.21686 27.271873 178.40436 26.787498Q179.59186 26.287498 181.02936 26.287498Q182.62311 26.287498 183.84186 26.803123Q185.06061 27.318748 185.70123 28.318748Q186.35748 29.303123 186.40436 30.568748L184.59186 30.709373Q184.45123 29.349998 183.60748 28.662498Q182.76373 27.959373 181.10748 27.959373Q179.38873 27.959373 178.59186 28.599998Q177.81061 29.224998 177.81061 30.099998Q177.81061 30.881248 178.37311 31.381248Q178.91998 31.881248 181.23248 32.396873Q183.54498 32.9125 184.40436 33.303123Q185.65436 33.88125 186.24811 34.771873Q186.84186 35.646873 186.84186 36.803123Q186.84186 37.94375 186.18561 38.959373Q185.52936 39.975 184.29498 40.5375Q183.07623 41.1 181.54498 41.1Q179.60748 41.1 178.29498 40.5375Q176.98248 39.959373 176.23248 38.81875Q175.48248 37.678123 175.45123 36.25625ZM194.45123 36.25625L196.23248 36.1Q196.35748 37.1625 196.81061 37.85Q197.27936 38.5375 198.24811 38.975Q199.23248 39.396873 200.46686 39.396873Q201.54498 39.396873 202.37311 39.084373Q203.20123 38.75625 203.60748 38.19375Q204.01373 37.63125 204.01373 36.959373Q204.01373 36.2875 203.62311 35.7875Q203.23248 35.2875 202.34186 34.94375Q201.76373 34.709373 199.77936 34.240623Q197.81061 33.771873 197.02936 33.35Q195.99811 32.81875 195.49811 32.021873Q194.99811 31.224998 194.99811 30.240623Q194.99811 29.146873 195.60748 28.209373Q196.21686 27.271873 197.40436 26.787498Q198.59186 26.287498 200.02936 26.287498Q201.62311 26.287498 202.84186 26.803123Q204.06061 27.318748 204.70123 28.318748Q205.35748 29.303123 205.40436 30.568748L203.59186 30.709373Q203.45123 29.349998 202.60748 28.662498Q201.76373 27.959373 200.10748 27.959373Q198.38873 27.959373 197.59186 28.599998Q196.81061 29.224998 196.81061 30.099998Q196.81061 30.881248 197.37311 31.381248Q197.91998 31.881248 200.23248 32.396873Q202.54498 32.9125 203.40436 33.303123Q204.65436 33.88125 205.24811 34.771873Q205.84186 35.646873 205.84186 36.803123Q205.84186 37.94375 205.18561 38.959373Q204.52936 39.975 203.29498 40.5375Q202.07623 41.1 200.54498 41.1Q198.60748 41.1 197.29498 40.5375Q195.98248 39.959373 195.23248 38.81875Q194.48248 37.678123 194.45123 36.25625ZM207.51373 33.88125Q207.51373 30.318748 209.41998 28.303123Q211.34186 26.271873 214.37311 26.271873Q216.35748 26.271873 217.93561 27.224998Q219.52936 28.178123 220.35748 29.881248Q221.20123 31.568748 221.20123 33.709373Q221.20123 35.88125 220.32623 37.6Q219.45123 39.31875 217.82623 40.209373Q216.21686 41.1 214.35748 41.1Q212.34186 41.1 210.74811 40.13125Q209.15436 39.146873 208.32623 37.459373Q207.51373 35.75625 207.51373 33.88125ZM209.46686 33.9125Q209.46686 36.490623 210.85748 37.990623Q212.24811 39.475 214.34186 39.475Q216.48248 39.475 217.85748 37.975Q219.24811 36.459373 219.24811 33.69375Q219.24811 31.959373 218.65436 30.662498Q218.07623 29.349998 216.93561 28.631248Q215.79498 27.912498 214.37311 27.912498Q212.37311 27.912498 210.91998 29.303123Q209.46686 30.678123 209.46686 33.9125ZM224.01373 40.85L224.01373 26.537498L229.38873 26.537498Q231.02936 26.537498 232.01373 26.974998Q232.99811 27.396873 233.56061 28.303123Q234.12311 29.209373 234.12311 30.193748Q234.12311 31.115623 233.62311 31.928123Q233.13873 32.740623 232.12311 33.225Q233.41998 33.615623 234.12311 34.5375Q234.82623 35.44375 234.82623 36.69375Q234.82623 37.709373 234.38873 38.56875Q233.96686 39.428123 233.34186 39.896873Q232.71686 40.365623 231.77936 40.615623Q230.84186 40.85 229.46686 40.85L224.01373 40.85ZM225.90436 32.553123L228.99811 32.553123Q230.26373 32.553123 230.81061 32.38125Q231.52936 32.1625 231.88873 31.678123Q232.26373 31.178123 232.26373 30.412498Q232.26373 29.709373 231.91998 29.162498Q231.57623 28.615623 230.93561 28.428123Q230.31061 28.224998 228.76373 28.224998L225.90436 28.224998L225.90436 32.553123ZM225.90436 39.1625L229.46686 39.1625Q230.38873 39.1625 230.76373 39.084373Q231.41998 38.975 231.85748 38.709373Q232.29498 38.428123 232.57623 37.9125Q232.85748 37.38125 232.85748 36.69375Q232.85748 35.896873 232.45123 35.303123Q232.04498 34.709373 231.31061 34.475Q230.57623 34.240623 229.21686 34.240623L225.90436 34.240623L225.90436 39.1625ZM237.12311 40.85L237.12311 26.537498L243.46686 26.537498Q245.37311 26.537498 246.37311 26.928123Q247.37311 27.303123 247.96686 28.287498Q248.56061 29.256248 248.56061 30.443748Q248.56061 31.959373 247.57623 33.00625Q246.59186 34.053123 244.52936 34.334373Q245.27936 34.69375 245.66998 35.053123Q246.49811 35.803123 247.24811 36.959373L249.73248 40.85L247.35748 40.85L245.45123 37.865623Q244.62311 36.584373 244.09186 35.896873Q243.56061 35.209373 243.12311 34.94375Q242.70123 34.6625 242.26373 34.553123Q241.93561 34.490623 241.21686 34.490623L239.01373 34.490623L239.01373 40.85L237.12311 40.85ZM239.01373 32.85L243.09186 32.85Q244.38873 32.85 245.10748 32.584373Q245.84186 32.31875 246.21686 31.724998Q246.60748 31.131248 246.60748 30.443748Q246.60748 29.428123 245.87311 28.771873Q245.13873 28.115623 243.54498 28.115623L239.01373 28.115623L239.01373 32.85ZM251.12311 40.85L251.12311 26.537498L261.48248 26.537498L261.48248 28.224998L253.02936 28.224998L253.02936 32.6L260.9356 32.6L260.9356 34.2875L253.02936 34.2875L253.02936 39.1625L261.8106 39.1625L261.8106 40.85L251.12311 40.85ZM270.1856 40.85L270.1856 26.537498L279.84186 26.537498L279.84186 28.224998L272.07623 28.224998L272.07623 32.6625L278.79498 32.6625L278.79498 34.35L272.07623 34.35L272.07623 40.85L270.1856 40.85ZM291.48248 26.537498L293.3731 26.537498L293.3731 34.803123Q293.3731 36.959373 292.88873 38.240623Q292.40436 39.50625 291.1231 40.303123Q289.85748 41.1 287.77936 41.1Q285.76373 41.1 284.48248 40.4125Q283.21686 39.709373 282.66998 38.396873Q282.1231 37.084373 282.1231 34.803123L282.1231 26.537498L284.01373 26.537498L284.01373 34.7875Q284.01373 36.6625 284.35748 37.553123Q284.70123 38.428123 285.54498 38.9125Q286.38873 39.38125 287.6231 39.38125Q289.70123 39.38125 290.59186 38.44375Q291.48248 37.490623 291.48248 34.7875L291.48248 26.537498ZM298.73248 40.85L298.73248 28.224998L294.01373 28.224998L294.01373 26.537498L305.35748 26.537498L305.35748 28.224998L300.6231 28.224998L300.6231 40.85L298.73248 40.85ZM307.1231 40.85L307.1231 26.537498L317.48248 26.537498L317.48248 28.224998L309.02936 28.224998L309.02936 32.6L316.9356 32.6L316.9356 34.2875L309.02936 34.2875L309.02936 39.1625L317.8106 39.1625L317.8106 40.85L307.1231 40.85ZM320.01373 40.85L320.01373 26.537498L325.38873 26.537498Q327.02936 26.537498 328.01373 26.974998Q328.9981 27.396873 329.5606 28.303123Q330.1231 29.209373 330.1231 30.193748Q330.1231 31.115623 329.6231 31.928123Q329.13873 32.740623 328.1231 33.225Q329.41998 33.615623 330.1231 34.5375Q330.82623 35.44375 330.82623 36.69375Q330.82623 37.709373 330.38873 38.56875Q329.96686 39.428123 329.34186 39.896873Q328.71686 40.365623 327.77936 40.615623Q326.84186 40.85 325.46686 40.85L320.01373 40.85ZM321.90436 32.553123L324.9981 32.553123Q326.26373 32.553123 326.8106 32.38125Q327.52936 32.1625 327.88873 31.678123Q328.26373 31.178123 328.26373 30.412498Q328.26373 29.709373 327.91998 29.162498Q327.57623 28.615623 326.9356 28.428123Q326.3106 28.224998 324.76373 28.224998L321.90436 28.224998L321.90436 32.553123ZM321.90436 39.1625L325.46686 39.1625Q326.38873 39.1625 326.76373 39.084373Q327.41998 38.975 327.85748 38.709373Q328.29498 38.428123 328.57623 37.9125Q328.85748 37.38125 328.85748 36.69375Q328.85748 35.896873 328.45123 35.303123Q328.04498 34.709373 327.3106 34.475Q326.57623 34.240623 325.21686 34.240623L321.90436 34.240623L321.90436 39.1625ZM332.51373 33.88125Q332.51373 30.318748 334.41998 28.303123Q336.34186 26.271873 339.3731 26.271873Q341.35748 26.271873 342.9356 27.224998Q344.52936 28.178123 345.35748 29.881248Q346.20123 31.568748 346.20123 33.709373Q346.20123 35.88125 345.32623 37.6Q344.45123 39.31875 342.82623 40.209373Q341.21686 41.1 339.35748 41.1Q337.34186 41.1 335.7481 40.13125Q334.15436 39.146873 333.32623 37.459373Q332.51373 35.75625 332.51373 33.88125ZM334.46686 33.9125Q334.46686 36.490623 335.85748 37.990623Q337.2481 39.475 339.34186 39.475Q341.48248 39.475 342.85748 37.975Q344.2481 36.459373 344.2481 33.69375Q344.2481 31.959373 343.65436 30.662498Q343.07623 29.349998 341.9356 28.631248Q340.79498 27.912498 339.3731 27.912498Q337.3731 27.912498 335.91998 29.303123Q334.46686 30.678123 334.46686 33.9125ZM349.01373 40.85L349.01373 26.537498L350.90436 26.537498L350.90436 39.1625L357.95123 39.1625L357.95123 40.85L349.01373 40.85Z" fill-rule="nonzero"/></svg>