<svg version="1.1" viewBox="0.0 0.0 466.0 437.0" fill="none" stroke="none" stroke-linecap="square" stroke-miterlimit="10" width="466" height="437" xmlns:xlink="http://www.w3.org/1999/xlink" xmlns="http://www.w3.org/2000/svg"><path fill="#f8f9fa" d="M0 0L466.0 0L466.0 437.0L0 437.0L0 0Z" fill-rule="nonzero"/><path fill="#a42f25" d="M231.8359 195.55441C232.22382 195.54591 232.6119 195.54167 233.0 195.54167L233.0 217.86667C232.6119 217.86667 232.22382 217.87091 231.8359 217.87941Z" fill-rule="nonzero"/><path fill="#ea4335" d="M228.34366 117.45517C229.8953 117.421165 231.4476 117.40417 233.0 117.40417L233.0 195.54167C232.6119 195.54167 232.22382 195.54591 231.8359 195.55441Z" fill-rule="nonzero"/><path fill="#2e5dab" d="M381.83334 243.9125C381.83334 301.45135 315.1984 348.09583 233.0 348.09583C150.80162 348.09583 84.166664 301.45135 84.166664 243.9125L84.166664 221.5875C84.166664 279.12637 150.80162 325.77084 233.0 325.77084C315.1984 325.77084 381.83334 279.12637 381.83334 221.5875Z" fill-rule="nonzero"/><path fill="#2e5dab" d="M233.0 195.54167C253.54959 195.54167 270.20834 207.20279 270.20834 221.5875L270.20834 243.9125C270.20834 229.52779 253.54959 217.86667 233.0 217.86667Z" fill-rule="nonzero"/><path fill="#2e5dab" d="M195.79167 221.5875C195.79167 207.52003 211.74937 195.99452 231.8359 195.55441L231.8359 217.87941C211.74937 218.31952 195.79167 229.84503 195.79167 243.9125Z" fill-rule="nonzero"/><path fill="#4285f4" d="M233.0 117.40417C314.74408 117.40417 381.18933 163.55342 381.82877 220.7725C382.46823 277.9916 317.06253 324.86288 235.32846 325.7581C153.59439 326.6533 86.12585 281.23734 84.20765 224.03226C82.28945 166.82716 146.6396 119.24536 228.34366 117.45517L231.8359 195.55441C211.4099 196.00197 195.32236 207.89742 195.80191 222.19868C196.28146 236.49997 213.1486 247.85394 233.5821 247.63014C254.01562 247.40634 270.36707 235.68852 270.20718 221.38376C270.04733 207.07898 253.43602 195.54167 233.0 195.54167Z" fill-rule="nonzero"/><path fill="#4285f4" d="M78.0 405.65C78.0 408.9637 75.313705 411.65 72.0 411.65C68.686295 411.65 66.0 408.9637 66.0 405.65C66.0 402.3363 68.686295 399.65 72.0 399.65C75.313705 399.65 78.0 402.3363 78.0 405.65Z" fill-rule="nonzero"/><path fill="#000000" d="M86.734375 408.49374L88.859375 408.25937Q88.9375 408.91562 89.265625 409.22812Q89.59375 409.54062 90.125 409.54062Q90.8125 409.54062 91.28125 408.91562Q91.765625 408.29062 91.890625 406.32187Q91.0625 407.275 89.828125 407.275Q88.46875 407.275 87.484375 406.24374Q86.515625 405.19687 86.515625 403.525Q86.515625 401.775 87.546875 400.7125Q88.578125 399.65 90.1875 399.65Q91.921875 399.65 93.03125 400.99374Q94.15625 402.3375 94.15625 405.43124Q94.15625 408.57187 92.984375 409.9625Q91.828125 411.35312 89.96875 411.35312Q88.625 411.35312 87.796875 410.63437Q86.96875 409.91562 86.734375 408.49374ZM91.703125 403.69687Q91.703125 402.63437 91.203125 402.05624Q90.71875 401.4625 90.078125 401.4625Q89.46875 401.4625 89.0625 401.94687Q88.671875 402.43124 88.671875 403.525Q88.671875 404.63437 89.109375 405.15Q89.546875 405.66562 90.203125 405.66562Q90.828125 405.66562 91.265625 405.16562Q91.703125 404.66562 91.703125 403.69687ZM95.734375 408.49374L97.859375 408.25937Q97.9375 408.91562 98.265625 409.22812Q98.59375 409.54062 99.125 409.54062Q99.8125 409.54062 100.28125 408.91562Q100.765625 408.29062 100.890625 406.32187Q100.0625 407.275 98.828125 407.275Q97.46875 407.275 96.484375 406.24374Q95.515625 405.19687 95.515625 403.525Q95.515625 401.775 96.546875 400.7125Q97.578125 399.65 99.1875 399.65Q100.921875 399.65 102.03125 400.99374Q103.15625 402.3375 103.15625 405.43124Q103.15625 408.57187 101.984375 409.9625Q100.828125 411.35312 98.96875 411.35312Q97.625 411.35312 96.796875 410.63437Q95.96875 409.91562 95.734375 408.49374ZM100.703125 403.69687Q100.703125 402.63437 100.203125 402.05624Q99.71875 401.4625 99.078125 401.4625Q98.46875 401.4625 98.0625 401.94687Q97.671875 402.43124 97.671875 403.525Q97.671875 404.63437 98.109375 405.15Q98.546875 405.66562 99.203125 405.66562Q99.828125 405.66562 100.265625 405.16562Q100.703125 404.66562 100.703125 403.69687ZM105.09375 408.94687L107.296875 408.94687L107.296875 410.525Q107.296875 411.47812 107.125 412.025Q106.96875 412.5875 106.5 413.025Q106.046875 413.4625 105.34375 413.7125L104.921875 412.80624Q105.578125 412.5875 105.859375 412.19687Q106.140625 411.82187 106.15625 411.15L105.09375 411.15L105.09375 408.94687ZM108.734375 408.49374L110.859375 408.25937Q110.9375 408.91562 111.265625 409.22812Q111.59375 409.54062 112.125 409.54062Q112.8125 409.54062 113.28125 408.91562Q113.765625 408.29062 113.890625 406.32187Q113.0625 407.275 111.828125 407.275Q110.46875 407.275 109.484375 406.24374Q108.515625 405.19687 108.515625 403.525Q108.515625 401.775 109.546875 400.7125Q110.578125 399.65 112.1875 399.65Q113.921875 399.65 115.03125 400.99374Q116.15625 402.3375 116.15625 405.43124Q116.15625 408.57187 114.984375 409.9625Q113.828125 411.35312 111.96875 411.35312Q110.625 411.35312 109.796875 410.63437Q108.96875 409.91562 108.734375 408.49374ZM113.703125 403.69687Q113.703125 402.63437 113.203125 402.05624Q112.71875 401.4625 112.078125 401.4625Q111.46875 401.4625 111.0625 401.94687Q110.671875 402.43124 110.671875 403.525Q110.671875 404.63437 111.109375 405.15Q111.546875 405.66562 112.203125 405.66562Q112.828125 405.66562 113.265625 405.16562Q113.703125 404.66562 113.703125 403.69687ZM117.703125 402.525Q117.703125 400.97812 118.375 400.24374Q119.046875 399.49374 120.203125 399.49374Q121.40625 399.49374 122.078125 400.24374Q122.75 400.97812 122.75 402.525Q122.75 404.05624 122.078125 404.80624Q121.40625 405.54062 120.25 405.54062Q119.046875 405.54062 118.375 404.80624Q117.703125 404.07187 117.703125 402.525ZM119.40625 402.50937Q119.40625 403.61874 119.671875 404.00937Q119.859375 404.29062 120.203125 404.29062Q120.5625 404.29062 120.75 404.00937Q121.0 403.61874 121.0 402.50937Q121.0 401.38437 120.75 401.00937Q120.5625 400.72812 120.203125 400.72812Q119.859375 400.72812 119.671875 401.00937Q119.40625 401.38437 119.40625 402.50937ZM121.875 411.5875L120.25 411.5875L126.359375 399.49374L127.9375 399.49374L121.875 411.5875ZM125.421875 408.57187Q125.421875 407.04062 126.09375 406.30624Q126.78125 405.55624 127.953125 405.55624Q129.125 405.55624 129.79688 406.30624Q130.48438 407.04062 130.48438 408.57187Q130.48438 410.11874 129.79688 410.86874Q129.125 411.61874 127.96875 411.61874Q126.78125 411.61874 126.09375 410.86874Q125.421875 410.11874 125.421875 408.57187ZM127.140625 408.57187Q127.140625 409.68124 127.390625 410.05624Q127.59375 410.35312 127.9375 410.35312Q128.28125 410.35312 128.46875 410.07187Q128.73438 409.68124 128.73438 408.57187Q128.73438 407.44687 128.48438 407.07187Q128.28125 406.79062 127.9375 406.79062Q127.578125 406.79062 127.390625 407.07187Q127.140625 407.44687 127.140625 408.57187ZM138.1875 411.15L138.1875 399.69687L140.4375 399.69687L145.125 407.3375L145.125 399.69687L147.28125 399.69687L147.28125 411.15L144.95312 411.15L140.34375 403.68124L140.34375 411.15L138.1875 411.15ZM151.79688 405.38437L149.79688 405.025Q150.14062 403.82187 150.95312 403.24374Q151.78125 402.66562 153.39062 402.66562Q154.85938 402.66562 155.57812 403.00937Q156.29688 403.35312 156.59375 403.9Q156.89062 404.43124 156.89062 405.85312L156.85938 408.41562Q156.85938 409.50937 156.96875 410.04062Q157.07812 410.55624 157.35938 411.15L155.1875 411.15Q155.10938 410.93124 154.98438 410.49374Q154.92188 410.30624 154.90625 410.24374Q154.34375 410.79062 153.70312 411.07187Q153.0625 411.3375 152.32812 411.3375Q151.04688 411.3375 150.3125 410.65Q149.57812 409.94687 149.57812 408.88437Q149.57812 408.18124 149.90625 407.63437Q150.25 407.07187 150.84375 406.79062Q151.45312 406.49374 152.59375 406.275Q154.14062 405.97812 154.73438 405.72812L154.73438 405.50937Q154.73438 404.88437 154.42188 404.61874Q154.10938 404.3375 153.23438 404.3375Q152.65625 404.3375 152.32812 404.57187Q152.0 404.80624 151.79688 405.38437ZM154.73438 407.16562Q154.3125 407.30624 153.39062 407.50937Q152.48438 407.69687 152.20312 407.88437Q151.76562 408.18124 151.76562 408.65Q151.76562 409.11874 152.10938 409.4625Q152.45312 409.79062 152.98438 409.79062Q153.57812 409.79062 154.125 409.4Q154.51562 409.10312 154.64062 408.66562Q154.73438 408.38437 154.73438 407.60312L154.73438 407.16562ZM151.78125 401.72812L150.78125 401.72812Q150.76562 401.55624 150.76562 401.44687Q150.76562 400.63437 151.17188 400.19687Q151.57812 399.74374 152.20312 399.74374Q152.46875 399.74374 152.70312 399.80624Q152.9375 399.86874 153.5625 400.15Q154.1875 400.41562 154.53125 400.41562Q154.78125 400.41562 154.95312 400.25937Q155.125 400.10312 155.17188 399.74374L156.1875 399.74374Q156.17188 400.79062 155.78125 401.24374Q155.40625 401.69687 154.79688 401.69687Q154.53125 401.69687 154.26562 401.65Q154.09375 401.60312 153.375 401.3375Q152.65625 401.05624 152.32812 401.05624Q152.07812 401.05624 151.9375 401.2125Q151.79688 401.35312 151.78125 401.72812ZM158.64062 406.88437Q158.64062 405.79062 159.17188 404.775Q159.71875 403.74374 160.70312 403.2125Q161.70312 402.66562 162.92188 402.66562Q164.79688 402.66562 166.0 403.88437Q167.20312 405.10312 167.20312 406.97812Q167.20312 408.85312 165.98438 410.10312Q164.78125 411.3375 162.9375 411.3375Q161.79688 411.3375 160.75 410.82187Q159.71875 410.30624 159.17188 409.30624Q158.64062 408.30624 158.64062 406.88437ZM160.89062 406.99374Q160.89062 408.22812 161.46875 408.88437Q162.0625 409.54062 162.92188 409.54062Q163.78125 409.54062 164.35938 408.88437Q164.95312 408.22812 164.95312 406.97812Q164.95312 405.75937 164.35938 405.10312Q163.78125 404.44687 162.92188 404.44687Q162.0625 404.44687 161.46875 405.10312Q160.89062 405.75937 160.89062 406.99374ZM173.15625 401.72812L173.15625 399.69687L175.34375 399.69687L175.34375 401.72812L173.15625 401.72812ZM173.15625 411.15L173.15625 402.85312L175.34375 402.85312L175.34375 411.15L173.15625 411.15ZM184.70312 411.15L182.5 411.15L182.5 406.91562Q182.5 405.57187 182.35938 405.18124Q182.21875 404.775 181.90625 404.55624Q181.59375 404.3375 181.14062 404.3375Q180.57812 404.3375 180.125 404.65Q179.67188 404.9625 179.5 405.47812Q179.32812 405.99374 179.32812 407.38437L179.32812 411.15L177.14062 411.15L177.14062 402.85312L179.17188 402.85312L179.17188 404.07187Q180.26562 402.66562 181.90625 402.66562Q182.64062 402.66562 183.23438 402.93124Q183.84375 403.18124 184.14062 403.5875Q184.45312 403.99374 184.57812 404.50937Q184.70312 405.025 184.70312 405.99374L184.70312 411.15ZM194.76562 411.15L192.71875 411.15L192.71875 409.93124Q192.21875 410.63437 191.51562 410.99374Q190.82812 411.3375 190.125 411.3375Q188.70312 411.3375 187.67188 410.18124Q186.65625 409.025 186.65625 406.9625Q186.65625 404.85312 187.64062 403.75937Q188.64062 402.66562 190.15625 402.66562Q191.54688 402.66562 192.5625 403.82187L192.5625 399.69687L194.76562 399.69687L194.76562 411.15ZM188.90625 406.82187Q188.90625 408.15 189.26562 408.74374Q189.79688 409.60312 190.75 409.60312Q191.51562 409.60312 192.04688 408.9625Q192.57812 408.30624 192.57812 407.025Q192.57812 405.60312 192.0625 404.97812Q191.54688 404.3375 190.73438 404.3375Q189.95312 404.3375 189.42188 404.9625Q188.90625 405.5875 188.90625 406.82187ZM197.15625 411.15L197.15625 402.85312L199.34375 402.85312L199.34375 411.15L197.15625 411.15ZM196.98438 401.8375L198.0625 399.49374L200.51562 399.49374L198.375 401.8375L196.98438 401.8375ZM200.95312 411.69687L203.45312 412.00937Q203.51562 412.44687 203.75 412.60312Q204.0625 412.8375 204.73438 412.8375Q205.59375 412.8375 206.01562 412.5875Q206.3125 412.41562 206.45312 412.025Q206.5625 411.75937 206.5625 411.00937L206.5625 409.80624Q205.57812 411.15 204.07812 411.15Q202.40625 411.15 201.42188 409.72812Q200.65625 408.61874 200.65625 406.94687Q200.65625 404.86874 201.65625 403.775Q202.67188 402.66562 204.15625 402.66562Q205.70312 402.66562 206.70312 404.00937L206.70312 402.85312L208.75 402.85312L208.75 410.29062Q208.75 411.775 208.5 412.49374Q208.26562 413.22812 207.82812 413.63437Q207.39062 414.05624 206.65625 414.29062Q205.9375 414.525 204.8125 414.525Q202.70312 414.525 201.8125 413.79062Q200.9375 413.07187 200.9375 411.9625Q200.9375 411.85312 200.95312 411.69687ZM202.90625 406.82187Q202.90625 408.15 203.42188 408.75937Q203.9375 409.36874 204.6875 409.36874Q205.48438 409.36874 206.03125 408.74374Q206.59375 408.11874 206.59375 406.88437Q206.59375 405.5875 206.0625 404.9625Q205.53125 404.3375 204.71875 404.3375Q203.9375 404.3375 203.42188 404.9625Q202.90625 405.57187 202.90625 406.82187ZM215.95312 408.50937L218.14062 408.86874Q217.71875 410.07187 216.8125 410.7125Q215.90625 411.3375 214.53125 411.3375Q212.375 411.3375 211.32812 409.91562Q210.51562 408.79062 210.51562 407.05624Q210.51562 404.99374 211.59375 403.8375Q212.67188 402.66562 214.3125 402.66562Q216.17188 402.66562 217.23438 403.88437Q218.3125 405.10312 218.26562 407.63437L212.76562 407.63437Q212.78125 408.60312 213.28125 409.15Q213.79688 409.69687 214.5625 409.69687Q215.07812 409.69687 215.42188 409.41562Q215.78125 409.13437 215.95312 408.50937ZM216.07812 406.29062Q216.0625 405.3375 215.59375 404.8375Q215.125 404.3375 214.45312 404.3375Q213.73438 404.3375 213.26562 404.86874Q212.79688 405.38437 212.79688 406.29062L216.07812 406.29062ZM227.70312 411.15L225.5 411.15L225.5 406.91562Q225.5 405.57187 225.35938 405.18124Q225.21875 404.775 224.90625 404.55624Q224.59375 404.3375 224.14062 404.3375Q223.57812 404.3375 223.125 404.65Q222.67188 404.9625 222.5 405.47812Q222.32812 405.99374 222.32812 407.38437L222.32812 411.15L220.14062 411.15L220.14062 402.85312L222.17188 402.85312L222.17188 404.07187Q223.26562 402.66562 224.90625 402.66562Q225.64062 402.66562 226.23438 402.93124Q226.84375 403.18124 227.14062 403.5875Q227.45312 403.99374 227.57812 404.50937Q227.70312 405.025 227.70312 405.99374L227.70312 411.15ZM231.79688 405.38437L229.79688 405.025Q230.14062 403.82187 230.95312 403.24374Q231.78125 402.66562 233.39062 402.66562Q234.85938 402.66562 235.57812 403.00937Q236.29688 403.35312 236.59375 403.9Q236.89062 404.43124 236.89062 405.85312L236.85938 408.41562Q236.85938 409.50937 236.96875 410.04062Q237.07812 410.55624 237.35938 411.15L235.1875 411.15Q235.10938 410.93124 234.98438 410.49374Q234.92188 410.30624 234.90625 410.24374Q234.34375 410.79062 233.70312 411.07187Q233.0625 411.3375 232.32812 411.3375Q231.04688 411.3375 230.3125 410.65Q229.57812 409.94687 229.57812 408.88437Q229.57812 408.18124 229.90625 407.63437Q230.25 407.07187 230.84375 406.79062Q231.45312 406.49374 232.59375 406.275Q234.14062 405.97812 234.73438 405.72812L234.73438 405.50937Q234.73438 404.88437 234.42188 404.61874Q234.10938 404.3375 233.23438 404.3375Q232.65625 404.3375 232.32812 404.57187Q232.0 404.80624 231.79688 405.38437ZM234.73438 407.16562Q234.3125 407.30624 233.39062 407.50937Q232.48438 407.69687 232.20312 407.88437Q231.76562 408.18124 231.76562 408.65Q231.76562 409.11874 232.10938 409.4625Q232.45312 409.79062 232.98438 409.79062Q233.57812 409.79062 234.125 409.4Q234.51562 409.10312 234.64062 408.66562Q234.73438 408.38437 234.73438 407.60312L234.73438 407.16562ZM238.375 408.775L240.57812 408.44687Q240.71875 409.0875 241.14062 409.41562Q241.57812 409.74374 242.35938 409.74374Q243.20312 409.74374 243.64062 409.43124Q243.92188 409.2125 243.92188 408.85312Q243.92188 408.60312 243.76562 408.43124Q243.60938 408.275 243.03125 408.15Q240.375 407.55624 239.67188 407.07187Q238.6875 406.4 238.6875 405.2125Q238.6875 404.13437 239.53125 403.4Q240.39062 402.66562 242.17188 402.66562Q243.875 402.66562 244.70312 403.22812Q245.53125 403.775 245.84375 404.85312L243.78125 405.24374Q243.64062 404.75937 243.26562 404.50937Q242.90625 404.24374 242.21875 404.24374Q241.34375 404.24374 240.96875 404.47812Q240.71875 404.65 240.71875 404.93124Q240.71875 405.16562 240.9375 405.32187Q241.23438 405.54062 242.98438 405.94687Q244.75 406.3375 245.4375 406.91562Q246.125 407.50937 246.125 408.55624Q246.125 409.69687 245.17188 410.525Q244.21875 411.3375 242.35938 411.3375Q240.65625 411.3375 239.67188 410.65Q238.6875 409.9625 238.375 408.775Z" fill-rule="nonzero"/><path fill="#ea4335" d="M275.0 405.65C275.0 408.9637 272.31372 411.65 269.0 411.65C265.68628 411.65 263.0 408.9637 263.0 405.65C263.0 402.3363 265.68628 399.65 269.0 399.65C272.31372 399.65 275.0 402.3363 275.0 405.65Z" fill-rule="nonzero"/><path fill="#000000" d="M287.39062 399.65Q289.0625 399.65 290.0 400.8375Q291.10938 402.24374 291.10938 405.49374Q291.10938 408.74374 289.98438 410.16562Q289.0625 411.35312 287.39062 411.35312Q285.71875 411.35312 284.6875 410.07187Q283.67188 408.775 283.67188 405.47812Q283.67188 402.24374 284.79688 400.82187Q285.73438 399.65 287.39062 399.65ZM287.39062 401.4625Q287.0 401.4625 286.6875 401.72812Q286.375 401.97812 286.20312 402.63437Q285.96875 403.47812 285.96875 405.49374Q285.96875 407.50937 286.17188 408.275Q286.375 409.025 286.6875 409.275Q287.0 409.525 287.39062 409.525Q287.79688 409.525 288.10938 409.275Q288.42188 409.00937 288.59375 408.35312Q288.8125 407.50937 288.8125 405.49374Q288.8125 403.47812 288.60938 402.72812Q288.40625 401.97812 288.09375 401.72812Q287.79688 401.4625 287.39062 401.4625ZM293.09375 408.94687L295.29688 408.94687L295.29688 410.525Q295.29688 411.47812 295.125 412.025Q294.96875 412.5875 294.5 413.025Q294.04688 413.4625 293.34375 413.7125L292.92188 412.80624Q293.57812 412.5875 293.85938 412.19687Q294.14062 411.82187 294.15625 411.15L293.09375 411.15L293.09375 408.94687ZM302.29688 411.15L300.10938 411.15L300.10938 402.86874Q298.90625 403.99374 297.26562 404.54062L297.26562 402.54062Q298.125 402.25937 299.125 401.47812Q300.14062 400.69687 300.51562 399.65L302.29688 399.65L302.29688 411.15ZM305.70312 402.525Q305.70312 400.97812 306.375 400.24374Q307.04688 399.49374 308.20312 399.49374Q309.40625 399.49374 310.07812 400.24374Q310.75 400.97812 310.75 402.525Q310.75 404.05624 310.07812 404.80624Q309.40625 405.54062 308.25 405.54062Q307.04688 405.54062 306.375 404.80624Q305.70312 404.07187 305.70312 402.525ZM307.40625 402.50937Q307.40625 403.61874 307.67188 404.00937Q307.85938 404.29062 308.20312 404.29062Q308.5625 404.29062 308.75 404.00937Q309.0 403.61874 309.0 402.50937Q309.0 401.38437 308.75 401.00937Q308.5625 400.72812 308.20312 400.72812Q307.85938 400.72812 307.67188 401.00937Q307.40625 401.38437 307.40625 402.50937ZM309.875 411.5875L308.25 411.5875L314.35938 399.49374L315.9375 399.49374L309.875 411.5875ZM313.42188 408.57187Q313.42188 407.04062 314.09375 406.30624Q314.78125 405.55624 315.95312 405.55624Q317.125 405.55624 317.79688 406.30624Q318.48438 407.04062 318.48438 408.57187Q318.48438 410.11874 317.79688 410.86874Q317.125 411.61874 315.96875 411.61874Q314.78125 411.61874 314.09375 410.86874Q313.42188 410.11874 313.42188 408.57187ZM315.14062 408.57187Q315.14062 409.68124 315.39062 410.05624Q315.59375 410.35312 315.9375 410.35312Q316.28125 410.35312 316.46875 410.07187Q316.73438 409.68124 316.73438 408.57187Q316.73438 407.44687 316.48438 407.07187Q316.28125 406.79062 315.9375 406.79062Q315.57812 406.79062 315.39062 407.07187Q315.14062 407.44687 315.14062 408.57187ZM326.15625 401.72812L326.15625 399.69687L328.34375 399.69687L328.34375 401.72812L326.15625 401.72812ZM326.15625 411.15L326.15625 402.85312L328.34375 402.85312L328.34375 411.15L326.15625 411.15ZM337.70312 411.15L335.5 411.15L335.5 406.91562Q335.5 405.57187 335.35938 405.18124Q335.21875 404.775 334.90625 404.55624Q334.59375 404.3375 334.14062 404.3375Q333.57812 404.3375 333.125 404.65Q332.67188 404.9625 332.5 405.47812Q332.32812 405.99374 332.32812 407.38437L332.32812 411.15L330.14062 411.15L330.14062 402.85312L332.17188 402.85312L332.17188 404.07187Q333.26562 402.66562 334.90625 402.66562Q335.64062 402.66562 336.23438 402.93124Q336.84375 403.18124 337.14062 403.5875Q337.45312 403.99374 337.57812 404.50937Q337.70312 405.025 337.70312 405.99374L337.70312 411.15ZM347.76562 411.15L345.71875 411.15L345.71875 409.93124Q345.21875 410.63437 344.51562 410.99374Q343.82812 411.3375 343.125 411.3375Q341.70312 411.3375 340.67188 410.18124Q339.65625 409.025 339.65625 406.9625Q339.65625 404.85312 340.64062 403.75937Q341.64062 402.66562 343.15625 402.66562Q344.54688 402.66562 345.5625 403.82187L345.5625 399.69687L347.76562 399.69687L347.76562 411.15ZM341.90625 406.82187Q341.90625 408.15 342.26562 408.74374Q342.79688 409.60312 343.75 409.60312Q344.51562 409.60312 345.04688 408.9625Q345.57812 408.30624 345.57812 407.025Q345.57812 405.60312 345.0625 404.97812Q344.54688 404.3375 343.73438 404.3375Q342.95312 404.3375 342.42188 404.9625Q341.90625 405.5875 341.90625 406.82187ZM350.15625 411.15L350.15625 402.85312L352.34375 402.85312L352.34375 411.15L350.15625 411.15ZM349.98438 401.8375L351.0625 399.49374L353.51562 399.49374L351.375 401.8375L349.98438 401.8375ZM353.95312 411.69687L356.45312 412.00937Q356.51562 412.44687 356.75 412.60312Q357.0625 412.8375 357.73438 412.8375Q358.59375 412.8375 359.01562 412.5875Q359.3125 412.41562 359.45312 412.025Q359.5625 411.75937 359.5625 411.00937L359.5625 409.80624Q358.57812 411.15 357.07812 411.15Q355.40625 411.15 354.42188 409.72812Q353.65625 408.61874 353.65625 406.94687Q353.65625 404.86874 354.65625 403.775Q355.67188 402.66562 357.15625 402.66562Q358.70312 402.66562 359.70312 404.00937L359.70312 402.85312L361.75 402.85312L361.75 410.29062Q361.75 411.775 361.5 412.49374Q361.26562 413.22812 360.82812 413.63437Q360.39062 414.05624 359.65625 414.29062Q358.9375 414.525 357.8125 414.525Q355.70312 414.525 354.8125 413.79062Q353.9375 413.07187 353.9375 411.9625Q353.9375 411.85312 353.95312 411.69687ZM355.90625 406.82187Q355.90625 408.15 356.42188 408.75937Q356.9375 409.36874 357.6875 409.36874Q358.48438 409.36874 359.03125 408.74374Q359.59375 408.11874 359.59375 406.88437Q359.59375 405.5875 359.0625 404.9625Q358.53125 404.3375 357.71875 404.3375Q356.9375 404.3375 356.42188 404.9625Q355.90625 405.57187 355.90625 406.82187ZM368.95312 408.50937L371.14062 408.86874Q370.71875 410.07187 369.8125 410.7125Q368.90625 411.3375 367.53125 411.3375Q365.375 411.3375 364.32812 409.91562Q363.51562 408.79062 363.51562 407.05624Q363.51562 404.99374 364.59375 403.8375Q365.67188 402.66562 367.3125 402.66562Q369.17188 402.66562 370.23438 403.88437Q371.3125 405.10312 371.26562 407.63437L365.76562 407.63437Q365.78125 408.60312 366.28125 409.15Q366.79688 409.69687 367.5625 409.69687Q368.07812 409.69687 368.42188 409.41562Q368.78125 409.13437 368.95312 408.50937ZM369.07812 406.29062Q369.0625 405.3375 368.59375 404.8375Q368.125 404.3375 367.45312 404.3375Q366.73438 404.3375 366.26562 404.86874Q365.79688 405.38437 365.79688 406.29062L369.07812 406.29062ZM380.70312 411.15L378.5 411.15L378.5 406.91562Q378.5 405.57187 378.35938 405.18124Q378.21875 404.775 377.90625 404.55624Q377.59375 404.3375 377.14062 404.3375Q376.57812 404.3375 376.125 404.65Q375.67188 404.9625 375.5 405.47812Q375.32812 405.99374 375.32812 407.38437L375.32812 411.15L373.14062 411.15L373.14062 402.85312L375.17188 402.85312L375.17188 404.07187Q376.26562 402.66562 377.90625 402.66562Q378.64062 402.66562 379.23438 402.93124Q379.84375 403.18124 380.14062 403.5875Q380.45312 403.99374 380.57812 404.50937Q380.70312 405.025 380.70312 405.99374L380.70312 411.15ZM384.79688 405.38437L382.79688 405.025Q383.14062 403.82187 383.95312 403.24374Q384.78125 402.66562 386.39062 402.66562Q387.85938 402.66562 388.57812 403.00937Q389.29688 403.35312 389.59375 403.9Q389.89062 404.43124 389.89062 405.85312L389.85938 408.41562Q389.85938 409.50937 389.96875 410.04062Q390.07812 410.55624 390.35938 411.15L388.1875 411.15Q388.10938 410.93124 387.98438 410.49374Q387.92188 410.30624 387.90625 410.24374Q387.34375 410.79062 386.70312 411.07187Q386.0625 411.3375 385.32812 411.3375Q384.04688 411.3375 383.3125 410.65Q382.57812 409.94687 382.57812 408.88437Q382.57812 408.18124 382.90625 407.63437Q383.25 407.07187 383.84375 406.79062Q384.45312 406.49374 385.59375 406.275Q387.14062 405.97812 387.73438 405.72812L387.73438 405.50937Q387.73438 404.88437 387.42188 404.61874Q387.10938 404.3375 386.23438 404.3375Q385.65625 404.3375 385.32812 404.57187Q385.0 404.80624 384.79688 405.38437ZM387.73438 407.16562Q387.3125 407.30624 386.39062 407.50937Q385.48438 407.69687 385.20312 407.88437Q384.76562 408.18124 384.76562 408.65Q384.76562 409.11874 385.10938 409.4625Q385.45312 409.79062 385.98438 409.79062Q386.57812 409.79062 387.125 409.4Q387.51562 409.10312 387.64062 408.66562Q387.73438 408.38437 387.73438 407.60312L387.73438 407.16562ZM391.375 408.775L393.57812 408.44687Q393.71875 409.0875 394.14062 409.41562Q394.57812 409.74374 395.35938 409.74374Q396.20312 409.74374 396.64062 409.43124Q396.92188 409.2125 396.92188 408.85312Q396.92188 408.60312 396.76562 408.43124Q396.60938 408.275 396.03125 408.15Q393.375 407.55624 392.67188 407.07187Q391.6875 406.4 391.6875 405.2125Q391.6875 404.13437 392.53125 403.4Q393.39062 402.66562 395.17188 402.66562Q396.875 402.66562 397.70312 403.22812Q398.53125 403.775 398.84375 404.85312L396.78125 405.24374Q396.64062 404.75937 396.26562 404.50937Q395.90625 404.24374 395.21875 404.24374Q394.34375 404.24374 393.96875 404.47812Q393.71875 404.65 393.71875 404.93124Q393.71875 405.16562 393.9375 405.32187Q394.23438 405.54062 395.98438 405.94687Q397.75 406.3375 398.4375 406.91562Q399.125 407.50937 399.125 408.55624Q399.125 409.69687 398.17188 410.525Q397.21875 411.3375 395.35938 411.3375Q393.65625 411.3375 392.67188 410.65Q391.6875 409.9625 391.375 408.775Z" fill-rule="nonzero"/><path fill="#000000" d="M175.98438 66.35L179.82812 56.334373L181.25 56.334373L185.35938 66.35L183.84375 66.35L182.67188 63.31875L178.48438 63.31875L177.39062 66.35L175.98438 66.35ZM178.875 62.240623L182.26562 62.240623L181.21875 59.459373Q180.75 58.19375 180.51562 57.38125Q180.32812 58.35 179.96875 59.2875L178.875 62.240623ZM186.0625 66.35L186.0625 56.334373L187.42188 56.334373L192.6875 64.19375L192.6875 56.334373L193.96875 56.334373L193.96875 66.35L192.60938 66.35L187.34375 58.475L187.34375 66.35L186.0625 66.35ZM194.67188 61.475Q194.67188 58.975 196.01562 57.56875Q197.35938 56.146873 199.46875 56.146873Q200.85938 56.146873 201.96875 56.81875Q203.09375 57.475 203.67188 58.6625Q204.26562 59.85 204.26562 61.35Q204.26562 62.88125 203.64062 64.08437Q203.03125 65.2875 201.90625 65.9125Q200.78125 66.52187 199.46875 66.52187Q198.04688 66.52187 196.9375 65.83437Q195.82812 65.14687 195.25 63.975Q194.67188 62.7875 194.67188 61.475ZM196.04688 61.490623Q196.04688 63.303123 197.01562 64.35Q198.0 65.38125 199.46875 65.38125Q200.95312 65.38125 201.92188 64.33437Q202.89062 63.2875 202.89062 61.35Q202.89062 60.115623 202.46875 59.209373Q202.0625 58.303123 201.26562 57.803123Q200.46875 57.2875 199.48438 57.2875Q198.07812 57.2875 197.0625 58.25625Q196.04688 59.225 196.04688 61.490623ZM206.26562 60.490623L206.26562 59.084373L207.67188 59.084373L207.67188 60.490623L206.26562 60.490623ZM206.26562 66.35L206.26562 64.94375L207.67188 64.94375L207.67188 66.35L206.26562 66.35ZM220.04688 65.1625L220.04688 66.35L213.42188 66.35Q213.40625 65.9125 213.5625 65.49062Q213.82812 64.81875 214.375 64.1625Q214.9375 63.50625 215.98438 62.646873Q217.625 61.303123 218.1875 60.521873Q218.76562 59.740623 218.76562 59.0375Q218.76562 58.303123 218.23438 57.803123Q217.71875 57.303123 216.89062 57.303123Q216.0 57.303123 215.45312 57.834373Q214.92188 58.365623 214.92188 59.31875L213.65625 59.178123Q213.78125 57.771873 214.625 57.0375Q215.48438 56.2875 216.90625 56.2875Q218.35938 56.2875 219.1875 57.084373Q220.03125 57.88125 220.03125 59.06875Q220.03125 59.678123 219.78125 60.25625Q219.54688 60.834373 218.96875 61.475Q218.40625 62.115623 217.07812 63.240623Q215.96875 64.1625 215.65625 64.50625Q215.34375 64.83437 215.14062 65.1625L220.04688 65.1625ZM221.57812 61.4125Q221.57812 59.63125 221.9375 58.553123Q222.3125 57.459373 223.03125 56.88125Q223.75 56.2875 224.84375 56.2875Q225.65625 56.2875 226.26562 56.615623Q226.875 56.94375 227.26562 57.553123Q227.67188 58.1625 227.89062 59.0375Q228.10938 59.9125 228.10938 61.4125Q228.10938 63.178123 227.75 64.25625Q227.39062 65.33437 226.67188 65.92812Q225.95312 66.52187 224.84375 66.52187Q223.40625 66.52187 222.57812 65.475Q221.57812 64.225 221.57812 61.4125ZM222.84375 61.4125Q222.84375 63.88125 223.42188 64.69375Q224.0 65.50625 224.84375 65.50625Q225.70312 65.50625 226.28125 64.69375Q226.85938 63.865623 226.85938 61.4125Q226.85938 58.928123 226.28125 58.115623Q225.70312 57.303123 224.82812 57.303123Q223.98438 57.303123 223.48438 58.021873Q222.84375 58.94375 222.84375 61.4125ZM234.21875 66.35L232.98438 66.35L232.98438 58.50625Q232.54688 58.928123 231.8125 59.365623Q231.09375 59.7875 230.53125 59.990623L230.53125 58.803123Q231.5625 58.31875 232.32812 57.63125Q233.10938 56.94375 233.42188 56.2875L234.21875 56.2875L234.21875 66.35ZM241.53125 66.35L241.53125 63.94375L237.17188 63.94375L237.17188 62.81875L241.75 56.334373L242.75 56.334373L242.75 62.81875L244.10938 62.81875L244.10938 63.94375L242.75 63.94375L242.75 66.35L241.53125 66.35ZM241.53125 62.81875L241.53125 58.303123L238.39062 62.81875L241.53125 62.81875ZM249.4375 63.334373L249.4375 62.1L253.21875 62.1L253.21875 63.334373L249.4375 63.334373ZM265.04688 65.1625L265.04688 66.35L258.42188 66.35Q258.40625 65.9125 258.5625 65.49062Q258.82812 64.81875 259.375 64.1625Q259.9375 63.50625 260.98438 62.646873Q262.625 61.303123 263.1875 60.521873Q263.76562 59.740623 263.76562 59.0375Q263.76562 58.303123 263.23438 57.803123Q262.71875 57.303123 261.89062 57.303123Q261.0 57.303123 260.45312 57.834373Q259.92188 58.365623 259.92188 59.31875L258.65625 59.178123Q258.78125 57.771873 259.625 57.0375Q260.48438 56.2875 261.90625 56.2875Q263.35938 56.2875 264.1875 57.084373Q265.03125 57.88125 265.03125 59.06875Q265.03125 59.678123 264.78125 60.25625Q264.54688 60.834373 263.96875 61.475Q263.40625 62.115623 262.07812 63.240623Q260.96875 64.1625 260.65625 64.50625Q260.34375 64.83437 260.14062 65.1625L265.04688 65.1625ZM266.57812 61.4125Q266.57812 59.63125 266.9375 58.553123Q267.3125 57.459373 268.03125 56.88125Q268.75 56.2875 269.84375 56.2875Q270.65625 56.2875 271.26562 56.615623Q271.875 56.94375 272.26562 57.553123Q272.67188 58.1625 272.89062 59.0375Q273.10938 59.9125 273.10938 61.4125Q273.10938 63.178123 272.75 64.25625Q272.39062 65.33437 271.67188 65.92812Q270.95312 66.52187 269.84375 66.52187Q268.40625 66.52187 267.57812 65.475Q266.57812 64.225 266.57812 61.4125ZM267.84375 61.4125Q267.84375 63.88125 268.42188 64.69375Q269.0 65.50625 269.84375 65.50625Q270.70312 65.50625 271.28125 64.69375Q271.85938 63.865623 271.85938 61.4125Q271.85938 58.928123 271.28125 58.115623Q270.70312 57.303123 269.82812 57.303123Q268.98438 57.303123 268.48438 58.021873Q267.84375 58.94375 267.84375 61.4125ZM281.04688 65.1625L281.04688 66.35L274.42188 66.35Q274.40625 65.9125 274.5625 65.49062Q274.82812 64.81875 275.375 64.1625Q275.9375 63.50625 276.98438 62.646873Q278.625 61.303123 279.1875 60.521873Q279.76562 59.740623 279.76562 59.0375Q279.76562 58.303123 279.23438 57.803123Q278.71875 57.303123 277.89062 57.303123Q277.0 57.303123 276.45312 57.834373Q275.92188 58.365623 275.92188 59.31875L274.65625 59.178123Q274.78125 57.771873 275.625 57.0375Q276.48438 56.2875 277.90625 56.2875Q279.35938 56.2875 280.1875 57.084373Q281.03125 57.88125 281.03125 59.06875Q281.03125 59.678123 280.78125 60.25625Q280.54688 60.834373 279.96875 61.475Q279.40625 62.115623 278.07812 63.240623Q276.96875 64.1625 276.65625 64.50625Q276.34375 64.83437 276.14062 65.1625L281.04688 65.1625ZM282.57812 63.725L283.875 63.615623Q284.01562 64.55312 284.53125 65.0375Q285.0625 65.50625 285.79688 65.50625Q286.6875 65.50625 287.29688 64.83437Q287.92188 64.1625 287.92188 63.06875Q287.92188 62.00625 287.32812 61.396873Q286.73438 60.7875 285.78125 60.7875Q285.1875 60.7875 284.70312 61.06875Q284.23438 61.334373 283.95312 61.75625L282.79688 61.615623L283.76562 56.459373L288.75 56.459373L288.75 57.646873L284.75 57.646873L284.21875 60.334373Q285.125 59.709373 286.10938 59.709373Q287.42188 59.709373 288.3125 60.615623Q289.21875 61.521873 289.21875 62.959373Q289.21875 64.31875 288.4375 65.30312Q287.46875 66.52187 285.79688 66.52187Q284.4375 66.52187 283.5625 65.75625Q282.70312 64.99062 282.57812 63.725Z" fill-rule="nonzero"/><path fill="#000000" d="M41.4981 40.85L41.4981 26.537498L52.1231 26.537498L52.1231 28.959373L44.388725 28.959373L44.388725 32.13125L51.576225 32.13125L51.576225 34.5375L44.388725 34.5375L44.388725 38.44375L52.388725 38.44375L52.388725 40.85L41.4981 40.85ZM53.763725 36.19375L56.576225 35.9125Q56.84185 37.334373 57.607475 38.00625Q58.388725 38.6625 59.701225 38.6625Q61.107475 38.6625 61.8106 38.06875Q62.513725 37.475 62.513725 36.69375Q62.513725 36.178123 62.21685 35.834373Q61.919975 35.475 61.1856 35.209373Q60.669975 35.021873 58.8731 34.584373Q56.544975 34.00625 55.607475 33.1625Q54.27935 31.974998 54.27935 30.287498Q54.27935 29.193748 54.90435 28.240623Q55.52935 27.287498 56.6856 26.787498Q57.857475 26.287498 59.513725 26.287498Q62.201225 26.287498 63.5606 27.474998Q64.9356 28.646873 64.9981 30.631248L62.107475 30.756248Q61.919975 29.646873 61.3106 29.162498Q60.701225 28.678123 59.482475 28.678123Q58.21685 28.678123 57.513725 29.193748Q57.044975 29.537498 57.044975 30.084373Q57.044975 30.599998 57.482475 30.959373Q58.02935 31.412498 60.138725 31.912498Q62.2481 32.4125 63.2481 32.94375Q64.263725 33.475 64.826225 34.396873Q65.40435 35.31875 65.40435 36.678123Q65.40435 37.9125 64.71685 38.990623Q64.044975 40.053123 62.794975 40.584373Q61.544975 41.1 59.669975 41.1Q56.96685 41.1 55.4981 39.85Q54.044975 38.6 53.763725 36.19375ZM70.71685 40.85L70.71685 28.959373L66.482475 28.959373L66.482475 26.537498L77.857475 26.537498L77.857475 28.959373L73.607475 28.959373L73.607475 40.85L70.71685 40.85ZM80.482475 26.537498L83.3731 26.537498L83.3731 34.2875Q83.3731 36.13125 83.482475 36.678123Q83.669975 37.553123 84.357475 38.084373Q85.0606 38.615623 86.27935 38.615623Q87.4981 38.615623 88.1231 38.115623Q88.7481 37.615623 88.8731 36.88125Q89.013725 36.146873 89.013725 34.459373L89.013725 26.537498L91.90435 26.537498L91.90435 34.053123Q91.90435 36.63125 91.669975 37.69375Q91.4356 38.75625 90.794975 39.490623Q90.169975 40.225 89.107475 40.6625Q88.0606 41.1 86.357475 41.1Q84.3106 41.1 83.2481 40.63125Q82.1856 40.146873 81.576225 39.396873Q80.96685 38.63125 80.763725 37.803123Q80.482475 36.56875 80.482475 34.1625L80.482475 26.537498ZM94.4981 26.537498L99.77935 26.537498Q101.5606 26.537498 102.4981 26.803123Q103.763725 27.178123 104.65435 28.131248Q105.5606 29.068748 106.02935 30.443748Q106.4981 31.818748 106.4981 33.834373Q106.4981 35.6 106.0606 36.88125Q105.513725 38.44375 104.513725 39.396873Q103.763725 40.13125 102.482475 40.553123Q101.52935 40.85 99.9356 40.85L94.4981 40.85L94.4981 26.537498ZM97.388725 28.959373L97.388725 38.44375L99.544975 38.44375Q100.7481 38.44375 101.294975 38.303123Q101.9981 38.13125 102.451225 37.709373Q102.919975 37.2875 103.201225 36.334373Q103.4981 35.365623 103.4981 33.69375Q103.4981 32.0375 103.201225 31.146873Q102.919975 30.256248 102.388725 29.771873Q101.857475 29.271873 101.0606 29.084373Q100.451225 28.959373 98.6856 28.959373L97.388725 28.959373ZM107.919975 33.771873Q107.919975 31.584373 108.576225 30.099998Q109.0606 29.006248 109.90435 28.146873Q110.7481 27.271873 111.7481 26.849998Q113.09185 26.287498 114.84185 26.287498Q117.9981 26.287498 119.888725 28.256248Q121.794975 30.209373 121.794975 33.709373Q121.794975 37.178123 119.90435 39.146873Q118.02935 41.1 114.8731 41.1Q111.6856 41.1 109.794975 39.146873Q107.919975 37.19375 107.919975 33.771873ZM110.888725 33.678123Q110.888725 36.115623 112.013725 37.365623Q113.138725 38.615623 114.8731 38.615623Q116.59185 38.615623 117.701225 37.38125Q118.8106 36.13125 118.8106 33.646873Q118.8106 31.178123 117.732475 29.974998Q116.65435 28.756248 114.8731 28.756248Q113.076225 28.756248 111.982475 29.990623Q110.888725 31.209373 110.888725 33.678123ZM123.763725 36.19375L126.576225 35.9125Q126.84185 37.334373 127.607475 38.00625Q128.38873 38.6625 129.70123 38.6625Q131.10748 38.6625 131.81061 38.06875Q132.51373 37.475 132.51373 36.69375Q132.51373 36.178123 132.21686 35.834373Q131.91998 35.475 131.18561 35.209373Q130.66998 35.021873 128.87311 34.584373Q126.544975 34.00625 125.607475 33.1625Q124.27935 31.974998 124.27935 30.287498Q124.27935 29.193748 124.90435 28.240623Q125.52935 27.287498 126.6856 26.787498Q127.857475 26.287498 129.51373 26.287498Q132.20123 26.287498 133.56061 27.474998Q134.93561 28.646873 134.99811 30.631248L132.10748 30.756248Q131.91998 29.646873 131.31061 29.162498Q130.70123 28.678123 129.48248 28.678123Q128.21686 28.678123 127.513725 29.193748Q127.044975 29.537498 127.044975 30.084373Q127.044975 30.599998 127.482475 30.959373Q128.02936 31.412498 130.13873 31.912498Q132.24811 32.4125 133.24811 32.94375Q134.26373 33.475 134.82623 34.396873Q135.40436 35.31875 135.40436 36.678123Q135.40436 37.9125 134.71686 38.990623Q134.04498 40.053123 132.79498 40.584373Q131.54498 41.1 129.66998 41.1Q126.96685 41.1 125.4981 39.85Q124.044975 38.6 123.763725 36.19375ZM142.76373 36.19375L145.57623 35.9125Q145.84186 37.334373 146.60748 38.00625Q147.38873 38.6625 148.70123 38.6625Q150.10748 38.6625 150.81061 38.06875Q151.51373 37.475 151.51373 36.69375Q151.51373 36.178123 151.21686 35.834373Q150.91998 35.475 150.18561 35.209373Q149.66998 35.021873 147.87311 34.584373Q145.54498 34.00625 144.60748 33.1625Q143.27936 31.974998 143.27936 30.287498Q143.27936 29.193748 143.90436 28.240623Q144.52936 27.287498 145.68561 26.787498Q146.85748 26.287498 148.51373 26.287498Q151.20123 26.287498 152.56061 27.474998Q153.93561 28.646873 153.99811 30.631248L151.10748 30.756248Q150.91998 29.646873 150.31061 29.162498Q149.70123 28.678123 148.48248 28.678123Q147.21686 28.678123 146.51373 29.193748Q146.04498 29.537498 146.04498 30.084373Q146.04498 30.599998 146.48248 30.959373Q147.02936 31.412498 149.13873 31.912498Q151.24811 32.4125 152.24811 32.94375Q153.26373 33.475 153.82623 34.396873Q154.40436 35.31875 154.40436 36.678123Q154.40436 37.9125 153.71686 38.990623Q153.04498 40.053123 151.79498 40.584373Q150.54498 41.1 148.66998 41.1Q145.96686 41.1 144.49811 39.85Q143.04498 38.6 142.76373 36.19375ZM155.91998 33.771873Q155.91998 31.584373 156.57623 30.099998Q157.06061 29.006248 157.90436 28.146873Q158.74811 27.271873 159.74811 26.849998Q161.09186 26.287498 162.84186 26.287498Q165.99811 26.287498 167.88873 28.256248Q169.79498 30.209373 169.79498 33.709373Q169.79498 37.178123 167.90436 39.146873Q166.02936 41.1 162.87311 41.1Q159.68561 41.1 157.79498 39.146873Q155.91998 37.19375 155.91998 33.771873ZM158.88873 33.678123Q158.88873 36.115623 160.01373 37.365623Q161.13873 38.615623 162.87311 38.615623Q164.59186 38.615623 165.70123 37.38125Q166.81061 36.13125 166.81061 33.646873Q166.81061 31.178123 165.73248 29.974998Q164.65436 28.756248 162.87311 28.756248Q161.07623 28.756248 159.98248 29.990623Q158.88873 31.209373 158.88873 33.678123ZM172.51373 26.537498L178.23248 26.537498Q179.93561 26.537498 180.76373 26.678123Q181.60748 26.818748 182.26373 27.271873Q182.91998 27.709373 183.35748 28.459373Q183.79498 29.209373 183.79498 30.131248Q183.79498 31.146873 183.24811 31.990623Q182.71686 32.81875 181.79498 33.240623Q183.09186 33.615623 183.79498 34.5375Q184.49811 35.459373 184.49811 36.69375Q184.49811 37.678123 184.04498 38.6Q183.59186 39.521873 182.81061 40.084373Q182.02936 40.63125 180.87311 40.75625Q180.15436 40.834373 177.38873 40.85L172.51373 40.85L172.51373 26.537498ZM175.40436 28.912498L175.40436 32.225L177.29498 32.225Q178.98248 32.225 179.38873 32.178123Q180.13873 32.084373 180.56061 31.662498Q180.98248 31.240623 180.98248 30.553123Q180.98248 29.881248 180.60748 29.474998Q180.24811 29.053123 179.52936 28.959373Q179.10748 28.912498 177.06061 28.912498L175.40436 28.912498ZM175.40436 34.615623L175.40436 38.44375L178.07623 38.44375Q179.63873 38.44375 180.06061 38.35Q180.70123 38.225 181.10748 37.771873Q181.51373 37.31875 181.51373 36.56875Q181.51373 35.9125 181.20123 35.475Q180.88873 35.021873 180.29498 34.81875Q179.70123 34.615623 177.73248 34.615623L175.40436 34.615623ZM186.51373 40.85L186.51373 26.537498L192.59186 26.537498Q194.88873 26.537498 195.91998 26.928123Q196.96686 27.303123 197.59186 28.287498Q198.21686 29.271873 198.21686 30.553123Q198.21686 32.1625 197.26373 33.209373Q196.32623 34.25625 194.43561 34.5375Q195.37311 35.084373 195.98248 35.740623Q196.59186 36.38125 197.63873 38.053123L199.38873 40.85L195.91998 40.85L193.84186 37.740623Q192.71686 36.06875 192.31061 35.63125Q191.90436 35.19375 191.43561 35.0375Q190.98248 34.865623 189.98248 34.865623L189.40436 34.865623L189.40436 40.85L186.51373 40.85ZM189.40436 32.584373L191.54498 32.584373Q193.62311 32.584373 194.13873 32.4125Q194.65436 32.240623 194.95123 31.818748Q195.24811 31.381248 195.24811 30.724998Q195.24811 30.006248 194.85748 29.568748Q194.46686 29.115623 193.76373 29.006248Q193.41998 28.959373 191.65436 28.959373L189.40436 28.959373L189.40436 32.584373ZM200.49811 40.85L200.49811 26.537498L211.12311 26.537498L211.12311 28.959373L203.38873 28.959373L203.38873 32.13125L210.57623 32.13125L210.57623 34.5375L203.38873 34.5375L203.38873 38.44375L211.38873 38.44375L211.38873 40.85L200.49811 40.85ZM219.51373 40.85L219.51373 26.537498L229.34186 26.537498L229.34186 28.959373L222.40436 28.959373L222.40436 32.35L228.38873 32.35L228.38873 34.771873L222.40436 34.771873L222.40436 40.85L219.51373 40.85ZM231.48248 26.537498L234.37311 26.537498L234.37311 34.2875Q234.37311 36.13125 234.48248 36.678123Q234.66998 37.553123 235.35748 38.084373Q236.06061 38.615623 237.27936 38.615623Q238.49811 38.615623 239.12311 38.115623Q239.74811 37.615623 239.87311 36.88125Q240.01373 36.146873 240.01373 34.459373L240.01373 26.537498L242.90436 26.537498L242.90436 34.053123Q242.90436 36.63125 242.66998 37.69375Q242.43561 38.75625 241.79498 39.490623Q241.16998 40.225 240.10748 40.6625Q239.06061 41.1 237.35748 41.1Q235.31061 41.1 234.24811 40.63125Q233.18561 40.146873 232.57623 39.396873Q231.96686 38.63125 231.76373 37.803123Q231.48248 36.56875 231.48248 34.1625L231.48248 26.537498ZM248.71686 40.85L248.71686 28.959373L244.48248 28.959373L244.48248 26.537498L255.85748 26.537498L255.85748 28.959373L251.60748 28.959373L251.60748 40.85L248.71686 40.85ZM258.4981 40.85L258.4981 26.537498L269.1231 26.537498L269.1231 28.959373L261.38873 28.959373L261.38873 32.13125L268.57623 32.13125L268.57623 34.5375L261.38873 34.5375L261.38873 38.44375L269.38873 38.44375L269.38873 40.85L258.4981 40.85ZM271.51373 26.537498L277.23248 26.537498Q278.9356 26.537498 279.76373 26.678123Q280.60748 26.818748 281.26373 27.271873Q281.91998 27.709373 282.35748 28.459373Q282.79498 29.209373 282.79498 30.131248Q282.79498 31.146873 282.2481 31.990623Q281.71686 32.81875 280.79498 33.240623Q282.09186 33.615623 282.79498 34.5375Q283.4981 35.459373 283.4981 36.69375Q283.4981 37.678123 283.04498 38.6Q282.59186 39.521873 281.8106 40.084373Q281.02936 40.63125 279.8731 40.75625Q279.15436 40.834373 276.38873 40.85L271.51373 40.85L271.51373 26.537498ZM274.40436 28.912498L274.40436 32.225L276.29498 32.225Q277.98248 32.225 278.38873 32.178123Q279.13873 32.084373 279.5606 31.662498Q279.98248 31.240623 279.98248 30.553123Q279.98248 29.881248 279.60748 29.474998Q279.2481 29.053123 278.52936 28.959373Q278.10748 28.912498 276.0606 28.912498L274.40436 28.912498ZM274.40436 34.615623L274.40436 38.44375L277.07623 38.44375Q278.63873 38.44375 279.0606 38.35Q279.70123 38.225 280.10748 37.771873Q280.51373 37.31875 280.51373 36.56875Q280.51373 35.9125 280.20123 35.475Q279.88873 35.021873 279.29498 34.81875Q278.70123 34.615623 276.73248 34.615623L274.40436 34.615623ZM284.91998 33.771873Q284.91998 31.584373 285.57623 30.099998Q286.0606 29.006248 286.90436 28.146873Q287.7481 27.271873 288.7481 26.849998Q290.09186 26.287498 291.84186 26.287498Q294.9981 26.287498 296.88873 28.256248Q298.79498 30.209373 298.79498 33.709373Q298.79498 37.178123 296.90436 39.146873Q295.02936 41.1 291.8731 41.1Q288.6856 41.1 286.79498 39.146873Q284.91998 37.19375 284.91998 33.771873ZM287.88873 33.678123Q287.88873 36.115623 289.01373 37.365623Q290.13873 38.615623 291.8731 38.615623Q293.59186 38.615623 294.70123 37.38125Q295.8106 36.13125 295.8106 33.646873Q295.8106 31.178123 294.73248 29.974998Q293.65436 28.756248 291.8731 28.756248Q290.07623 28.756248 288.98248 29.990623Q287.88873 31.209373 287.88873 33.678123ZM301.57623 40.85L301.57623 26.646873L304.46686 26.646873L304.46686 38.44375L311.65436 38.44375L311.65436 40.85L301.57623 40.85ZM319.41998 40.85L319.41998 26.537498L322.3106 26.537498L322.3106 40.85L319.41998 40.85ZM324.52936 40.85L324.52936 26.537498L327.34186 26.537498L333.20123 36.1L333.20123 26.537498L335.88873 26.537498L335.88873 40.85L332.98248 40.85L327.21686 31.506248L327.21686 40.85L324.52936 40.85ZM338.4981 26.537498L343.77936 26.537498Q345.5606 26.537498 346.4981 26.803123Q347.76373 27.178123 348.65436 28.131248Q349.5606 29.068748 350.02936 30.443748Q350.4981 31.818748 350.4981 33.834373Q350.4981 35.6 350.0606 36.88125Q349.51373 38.44375 348.51373 39.396873Q347.76373 40.13125 346.48248 40.553123Q345.52936 40.85 343.9356 40.85L338.4981 40.85L338.4981 26.537498ZM341.38873 28.959373L341.38873 38.44375L343.54498 38.44375Q344.7481 38.44375 345.29498 38.303123Q345.9981 38.13125 346.45123 37.709373Q346.91998 37.2875 347.20123 36.334373Q347.4981 35.365623 347.4981 33.69375Q347.4981 32.0375 347.20123 31.146873Q346.91998 30.256248 346.38873 29.771873Q345.85748 29.271873 345.0606 29.084373Q344.45123 28.959373 342.6856 28.959373L341.38873 28.959373ZM352.41998 40.85L352.41998 26.537498L355.3106 26.537498L355.3106 40.85L352.41998 40.85ZM352.07623 25.709373L353.41998 22.787498L356.4981 22.787498L353.8106 25.709373L352.07623 25.709373ZM364.15436 35.584373L364.15436 33.178123L370.38873 33.178123L370.38873 38.88125Q369.48248 39.75625 367.7481 40.428123Q366.02936 41.1 364.26373 41.1Q362.02936 41.1 360.35748 40.1625Q358.6856 39.209373 357.84186 37.459373Q356.9981 35.709373 356.9981 33.646873Q356.9981 31.412498 357.9356 29.678123Q358.8731 27.928123 360.6856 27.006248Q362.0606 26.287498 364.10748 26.287498Q366.77936 26.287498 368.27936 27.412498Q369.77936 28.521873 370.20123 30.490623L367.34186 31.037498Q367.02936 29.974998 366.1856 29.365623Q365.35748 28.756248 364.10748 28.756248Q362.21686 28.756248 361.09186 29.959373Q359.98248 31.162498 359.98248 33.521873Q359.98248 36.06875 361.10748 37.35Q362.2481 38.615623 364.07623 38.615623Q364.9981 38.615623 365.90436 38.271873Q366.8106 37.9125 367.46686 37.396873L367.46686 35.584373L364.15436 35.584373ZM373.4981 40.85L373.4981 26.537498L384.1231 26.537498L384.1231 28.959373L376.38873 28.959373L376.38873 32.13125L383.57623 32.13125L383.57623 34.5375L376.38873 34.5375L376.38873 38.44375L384.38873 38.44375L384.38873 40.85L373.4981 40.85ZM386.52936 40.85L386.52936 26.537498L389.34186 26.537498L395.20123 36.1L395.20123 26.537498L397.88873 26.537498L397.88873 40.85L394.98248 40.85L389.21686 31.506248L389.21686 40.85L386.52936 40.85ZM413.40436 40.85L410.26373 40.85L409.01373 37.6L403.29498 37.6L402.10748 40.85L399.04498 40.85L404.6231 26.537498L407.6856 26.537498L413.40436 40.85ZM408.09186 35.178123L406.1231 29.865623L404.1856 35.178123L408.09186 35.178123Z" fill-rule="nonzero"/></svg>